<svg xmlns="http://www.w3.org/2000/svg" viewBox="0 0 64 64"><defs><style>.cls-1{fill:none;}.cls-2{fill:#9f63c6;}.cls-3{fill:#4b2048;}.cls-4{fill:#fff;}</style></defs><title>financial-day</title><g id="invisi-border"><rect class="cls-1" width="64" height="64"/></g><g id="icon"><rect class="cls-2" x="9" y="9" width="46" height="40"/><path class="cls-3" d="M55,51H9a2.0001,2.0001,0,0,1-2-2V9A2.0001,2.0001,0,0,1,9,7H55a2.0001,2.0001,0,0,1,2,2V49A2.0001,2.0001,0,0,1,55,51ZM11,47H53V11H11Z"/><rect class="cls-4" x="15" y="49" width="34" height="8"/><path class="cls-3" d="M49,59H15a2.0001,2.0001,0,0,1-2-2V49a2.0001,2.0001,0,0,1,2-2H49a2.0001,2.0001,0,0,1,2,2v8A2.0001,2.0001,0,0,1,49,59ZM17,55H47V51H17Z"/><path class="cls-4" d="M47,43a2.0001,2.0001,0,0,1-2-2V17a2,2,0,0,1,4,0V41A2.0001,2.0001,0,0,1,47,43Z"/><path class="cls-3" d="M28,42a2.0001,2.0001,0,0,1-2-2V36a2,2,0,0,1,4,0v4A2.0001,2.0001,0,0,1,28,42Z"/><path class="cls-3" d="M28,24a2.0001,2.0001,0,0,1-2-2V18a2,2,0,0,1,4,0v4A2.0001,2.0001,0,0,1,28,24Z"/><path class="cls-3" d="M21,31H17a2,2,0,0,1,0-4h4a2,2,0,0,1,0,4Z"/><path class="cls-3" d="M39,31H35a2,2,0,0,1,0-4h4a2,2,0,0,1,0,4Z"/><path class="cls-3" d="M20.22168,38.77832a1.99976,1.99976,0,0,1-1.41406-3.41406l2.82861-2.82812a1.99979,1.99979,0,1,1,2.82813,2.82813l-2.82861,2.82813A1.99352,1.99352,0,0,1,20.22168,38.77832Z"/><path class="cls-3" d="M32.94971,26.0498a1.99976,1.99976,0,0,1-1.41406-3.41406l2.82861-2.82812a1.99979,1.99979,0,1,1,2.82813,2.82813l-2.82861,2.82813A1.99352,1.99352,0,0,1,32.94971,26.0498Z"/><path class="cls-3" d="M23.05029,26.0498a1.99352,1.99352,0,0,1-1.41406-.58594l-2.82861-2.82812a1.99979,1.99979,0,1,1,2.82813-2.82812l2.82861,2.82813a1.99976,1.99976,0,0,1-1.41406,3.41406Z"/><path class="cls-3" d="M35.77832,38.77832a1.99352,1.99352,0,0,1-1.41406-.58594l-2.82861-2.82812a1.99979,1.99979,0,1,1,2.82813-2.82812l2.82861,2.82813a1.99976,1.99976,0,0,1-1.41406,3.41406Z"/><circle class="cls-4" cx="28" cy="29" r="7"/><path class="cls-3" d="M28,38a9,9,0,1,1,9-9A9.01015,9.01015,0,0,1,28,38Zm0-14a5,5,0,1,0,5,5A5.00589,5.00589,0,0,0,28,24Z"/></g></svg>