<svg xmlns="http://www.w3.org/2000/svg" viewBox="0 0 2631.55 1349">
  <defs>
    <style>
      .cls-1 {
        fill: #def4f9;
      }

      .cls-2 {
        fill: #a8d29f;
      }

      .cls-3 {
        fill: #12789b;
      }

      .cls-4 {
        fill: #35abdd;
      }

      .cls-5 {
        fill: #d86713;
      }

      .cls-6 {
        fill: #f1a34f;
      }

      .cls-7 {
        fill: #c95c12;
      }

      .cls-8 {
        fill: #82b378;
      }

      .cls-9 {
        fill: #ffb973;
      }

      .cls-10 {
        fill: #ed975d;
      }

      .cls-11 {
        fill: #6791c9;
      }

      .cls-12 {
        fill: #1470b3;
      }

      .cls-13 {
        fill: #5280b2;
      }

      .cls-14 {
        fill: #75a1de;
      }

      .cls-15 {
        fill: #ffb27d;
      }

      .cls-16 {
        fill: #404040;
      }

      .cls-17 {
        fill: #f37168;
      }

      .cls-18 {
        fill: #d54a41;
      }

      .cls-19 {
        fill: #0a627a;
      }

      .cls-20 {
        fill: #96cfe0;
      }

      .cls-21 {
        fill: #a2dff2;
      }

      .cls-22 {
        fill: #35488b;
      }

      .cls-23 {
        fill: #2c3a64;
      }

      .cls-24 {
        fill: #5d8bc1;
      }

      .cls-25 {
        fill: #a8ceff;
      }

      .cls-26 {
        fill: #0a667f;
      }

      .cls-27 {
        fill: #0c6591;
      }

      .cls-28 {
        fill: #085e7f;
      }

      .cls-29 {
        fill: #fff;
      }
    </style>
  </defs>
  <g id="Layer_2" data-name="Layer 2">
    <g id="_Layer_" data-name="&lt;Layer&gt;">
      <g>
        <path class="cls-1" d="M2118,596.32a154.57,154.57,0,0,0-235.24-196.06A218.69,218.69,0,0,0,1577.56,331C1557.2,144.87,1399.47,0,1207.88,0,1074.3,0,957.19,70.44,891.6,176.18a217.72,217.72,0,0,0-97.41-22.86c-120.73,0-218.61,97.87-218.61,218.61a217.69,217.69,0,0,0,25.1,101.76c-8.27-.7-16.64-1.08-25.1-1.08-161.72,0-292.84,131.11-292.84,292.84s131.12,292.84,292.84,292.84H2066.14c129.17,0,233.88-104.71,233.88-233.87C2300,713.08,2222.21,619.92,2118,596.32Z"/>
        <path class="cls-2" d="M2421,1272.21c-26.38-19.28-80.29-6.26-120.07,7.66A181.15,181.15,0,0,0,2279,1254.5c85.71-55.22,204.08-173,141.34-182.92-54.54-8.67-128.15,97.31-167.48,161.83-40.85-27.48-103.44-47.68-199-40.67-248,18.18-441.76-141.8-584.58-88.44-113.55,42.42-217.62,66.19-318,58.07,4.32-73.32,5.26-217.27-52.31-232.2-58.45-15.17-1.12,148.31,30.74,229.94q-11.2-1.42-22.37-3.42c-20.64-40.69-54.64-93.93-92-95.75-35.16-1.71,8.23,46.15,50.94,86.71-122.74-25.77-268.33,74-270.74,192H2327.86s-2.71-17.22-14.73-39.92C2372.35,1298.53,2449.61,1293.15,2421,1272.21Z"/>
        <g>
          <rect class="cls-3" x="726" y="1248.44" width="403.85" height="91.19"/>
          <rect class="cls-4" x="601.48" y="1248.44" width="403.84" height="91.2"/>
        </g>
        <g>
          <g>
            <rect class="cls-5" x="1288.71" y="919.3" width="300.71" height="420.31" transform="translate(2878.14 2258.91) rotate(180)"/>
            <rect class="cls-6" x="1196" y="919.3" width="300.71" height="420.31" transform="translate(2692.7 2258.91) rotate(180)"/>
          </g>
          <polygon class="cls-7" points="1496.7 919.3 1589.42 982.41 1589.42 919.3 1496.7 919.3"/>
        </g>
        <g>
          <path class="cls-8" d="M568.44,1012.4s-56.23,41.82-67.2,39.28,41.1-45.14,41.1-45.14c-19.59-9.42-80.49-3.51-80.49-3.51s-20.29,65.41-30.29,60.26,20.91-57,20.91-57c-21.82-1.32-48.58,14.88-48.58,14.88-36.64,28.94,2.41,74.49,2.41,74.49s-7.52,22.52-30.66,43c0,0-33,24.44-35.34,68.1l6,.54s9.51-40.67,26.78-59.91c.68-.69,1.65-1.69,2.86-2.91,2.81-2.6,4.78-4.56,6.11-6,8.6-8.27,20.48-18.79,26.21-19.81a11,11,0,0,1-.25-2.88c.08.92.16,1.87.25,2.88,2,23,46.63,43.13,74.1,47.26s19-7.16,9.52-23.91-39.43-24.24-46.27-32,7.3-7.73,23.86-.17,18.82,27.72,45.38,40.44S581.37,1119,581.37,1119c-21.17-1.07-51.39-24.06-50.3-31.09S582.38,1100,591,1101s28.12-9.76,31.14-44.34S568.44,1012.4,568.44,1012.4Z"/>
          <g>
            <path class="cls-2" d="M269.78,1038.37s62.11-34.79,33.12-82c0,0-23.18-29-48-36.44,0,0,13.25,70.39,0,72s-9.11-79.51-9.11-79.51-65.43-31.47-91.1-29c0,0,40.58,68.74,27.33,67.08s-58.8-71.22-58.8-71.22-67.08-12.43-77.85,27.33S52,966.31,61.91,968.8s73.7,1.65,72.05,9.94-44.72,21.53-68.74,14.08c0,0,26.5,65.42,61.28,62.11s45.55-24.85,67.09-26.5,37.26,4.14,26.5,9.94-47.21,1.89-64.6,16.68-31.47,23.9.83,30.52,90.27,2.48,101.86-22.36Z"/>
            <path class="cls-8" d="M286.34,1098.82c-17.39-32.3-16.56-60.45-16.56-60.45C249.9,975.42,76,919.11,76,919.11c221.13,89.44,182.2,144.1,182.2,144.1,6,3.48,14.9,20,21.1,32.77.88,2.16,2.28,5.16,4.36,9.22h0c.84,1.84,1.51,3.35,2,4.4,11.38,28.48,5.35,77.68,5.35,77.68l6.9,1.85C313.16,1139.55,286.34,1098.82,286.34,1098.82Z"/>
          </g>
          <g>
            <path class="cls-2" d="M368.59,990.39s-81.87-45.85-43.66-108.07c0,0,30.56-38.21,63.31-48,0,0-17.46,92.8,0,95s12-104.8,12-104.8S486.5,783,520.34,786.25c0,0-53.49,90.61-36,88.42s77.51-93.88,77.51-93.88,88.43-16.38,102.62,36-8.73,78.6-21.83,81.87-97.16,2.19-95,13.1,59,28.39,90.61,18.56c0,0-34.93,86.24-80.78,81.88S497.41,979.48,469,977.29s-49.13,5.46-34.93,13.1,62.22,2.51,85.15,22,41.48,31.5-1.1,40.23-119,3.28-134.27-29.48Z"/>
            <path class="cls-8" d="M624.05,833.19s-229.26,74.24-255.46,157.2c0,0,1.1,37.12-21.83,79.7,0,0-35.36,53.68-15.2,119l9.1-2.45s-8-64.84,7-102.39c.62-1.38,1.5-3.37,2.61-5.79h0c2.74-5.36,4.59-9.31,5.75-12.16,8.17-16.76,19.95-38.61,27.81-43.2C383.88,1023.14,332.57,951.09,624.05,833.19Z"/>
          </g>
          <path class="cls-6" d="M365.84,1330.85a160.39,160.39,0,0,0,160.38-160.38H205.45A160.39,160.39,0,0,0,365.84,1330.85Z"/>
          <path class="cls-9" d="M405.3,1329.62A160.47,160.47,0,0,1,225,1170.47h39.84A160.41,160.41,0,0,0,405.3,1329.62Z"/>
          <path class="cls-6" d="M508.65,1319.82H223a19.79,19.79,0,0,0-19.78,19.79H528.43A19.79,19.79,0,0,0,508.65,1319.82Z"/>
          <path class="cls-5" d="M527.41,1170.47H202.64a2.46,2.46,0,1,0,0,4.92H527.41a2.46,2.46,0,0,0,0-4.92Z"/>
        </g>
        <g>
          <path class="cls-10" d="M1765,325.91c-4.65-.71-18.66,12.24-18.66,12.24h0c-29.91,3.46-73.64,11.4-89.38,14.43-11.17,2.15-41.18-8.08-70.5-19.83-34.86-14-68.75-30.1-68.75-30.1-19.35-1-41.32,34.31-2.08,56.75,6,3.43,28.49,9.28,54.41,14.61h0c35.75,7.37,78,13.76,92.36,11.52,16.7-2.62,64-19.91,92.09-33.15h0l.07,0,.31-.14c1.69-.79,8.57-3.86,13.17-3.59,5.27.32,17-9.32,17.36-11.9S1769.66,326.61,1765,325.91Z"/>
          <path class="cls-11" d="M1728.49,770.59,1712,773.94s-75.37-84.68-87-120.32c-6.22-19-46-27.27-87.6-38-36.19-9.36-73.74-20.63-91.67-42.63-38.55-47.26,24.2-105.34,24.2-105.34s66.73,39.66,124.29,80.62c40.23,28.64,76,57.91,81.38,74.73C1688.71,663.88,1716.46,741.64,1728.49,770.59Z"/>
          <path class="cls-12" d="M1706.44,798.53h9.27c3.1-.49,5.39-1.39,8.57-1.8,4.84-.64,7.06,1.34,7.5,1.8l.09.09h39.35c1-1.41,0-4.69-.89-7.1a5.56,5.56,0,0,0-3.68-3.36c-4.17-1.21-12.4-2.29-19.94-9.11-4.23-3.83-20.46-14.08-20.46-14.08l-.09,0c-.36,0-2.05.52-9.44,6.76-3.81,3.21-10.32-4.55-10.32-4.55a9.23,9.23,0,0,0-2.13,2.9,9.73,9.73,0,0,0-.84,6c.58,3.54-1.31,10.13-2.82,14.59-.92,2.7-1.69,4.62-1.69,4.62S1698.47,797.53,1706.44,798.53Z"/>
          <path class="cls-13" d="M1594.24,548.25l-56.82,67.35c-36.19-9.36-73.74-20.63-91.67-42.63-38.55-47.26,24.2-105.34,24.2-105.34S1536.68,507.29,1594.24,548.25Z"/>
          <path class="cls-14" d="M1542.61,513.08s-4.58,14.44-12,36.17c-9.43,27.48-23.47,66.6-38.7,102.88-3.35,8-6.76,15.82-10.19,23.36-12.66,27.92-25.63,51.85-37,64-20.52,21.86-70.39,162.43-70.39,162.43l-12.43-3.44s-17.33-120,44-188.33a4.31,4.31,0,0,0,1.24-2.55,0,0,0,0,0,0,0c.82-10.11,3.74-55.38,10.1-101.26,1.56-11.26,3.33-22.54,5.31-33.36l.39-2.06c9.33-50,18.28-72.23,29.82-83.42l84.86,24.16Z"/>
          <path class="cls-12" d="M1360.42,919.2h9.27c3.1-.49,5.39-1.38,8.57-1.8,4.84-.63,7.06,1.35,7.5,1.8l.09.1h39.35c1-1.42,0-4.69-.89-7.1a5.58,5.58,0,0,0-3.68-3.37c-4.18-1.21-12.4-2.28-19.94-9.1-4.24-3.83-20.47-14.09-20.47-14.09l-.08,0c-.36,0-2.05.53-9.44,6.76-3.81,3.22-10.32-4.54-10.32-4.54a9.26,9.26,0,0,0-2.13,2.89,9.82,9.82,0,0,0-.85,6c.59,3.55-1.3,10.14-2.81,14.6-.92,2.7-1.7,4.61-1.7,4.61S1352.45,918.21,1360.42,919.2Z"/>
          <path class="cls-15" d="M1378.62,349.83s-14.19,34.74-30.57,68.55c-13.77,28.43-29.07,56.2-38.77,62.12-13.68,8.36-51.36,31.93-75.81,49.51,0,0-19.07-.14-22,3.51s-9.8,20.06-7.8,21.72,17.16.89,20.85-2.88c3.21-3.3,10.36-5.66,12.14-6.22l.33-.1.08,0h0c29.7-9.14,76.3-28.18,90.4-37.49,12.15-8,39.07-41.18,60.54-70.69h0c15.57-21.39,28.27-40.87,30.39-47.43C1432.28,347.39,1392.27,336.08,1378.62,349.83Z"/>
          <path class="cls-16" d="M1452.88,213.62a73.24,73.24,0,0,0-5.08-6.57,16,16,0,0,0,6.26-.94c5-2.06,7.26-17.89,6.51-22.58s-7.67-18.26-16.21-19.62S1427,172,1427,172c1.58-6.84,16-10.79,16-10.79-29.75,5.49-28.23,25.33-28,27.16-27.23-9.7-43.22,41.59-43.22,41.59l70.55,41.57s.18-11.32,6.91-10.59C1459.73,262.11,1468.47,236.34,1452.88,213.62Z"/>
          <path class="cls-15" d="M1457.38,321.24c-16.19,7.63-37.67-3.36-37.56-3.48,1.39-1.38.9-5.54-.37-11-1.27-5.67-4.28-13.42-9.83-22.67-1.15-2-2.31-3.93-3.7-6l1.85-.69,31.45-12.61s5.09,9.14,10.41,17.46c4.51,6.94,9.25,13.18,11.33,13C1461.08,295.11,1481.89,309.44,1457.38,321.24Z"/>
          <path class="cls-10" d="M1439.22,267.93c-.81,11.22-4.62,31.45-19.77,38.86-1.27-5.67-4.28-13.42-9.83-22.67Z"/>
          <path class="cls-15" d="M1407.78,296.89s41-16.14,30.5-41.48-12.19-44.5-38.77-35.27-27.65,21-26.22,30.29S1396.86,300.43,1407.78,296.89Z"/>
          <path class="cls-16" d="M1423.06,249.63c18.9-2.67,24.42-10.31,24.42-10.31a52.38,52.38,0,0,1-27.64-22s-21.25-7.17-37,4.81a10.55,10.55,0,0,0-2,4.44c-3.61-1.18-9-.87-12.17,9.33-4.7,15.32,12,32,12,32,4.06-1.14-.52-14.8-1.16-22.09-.47-5.36,2.43-12.23,4-15.48,2,2.59,22,27.66,46.3,28.66a102.57,102.57,0,0,1-24.57-13.19C1411.09,248.66,1417.28,250.44,1423.06,249.63Z"/>
          <path class="cls-17" d="M1535.33,373.45c-.35-1.22-.72-2.49-1.11-3.79a95.84,95.84,0,0,0,10.33-31c2.78-18.74-2-30.3-2-30.3s-28.4-15.06-40.94-17a.47.47,0,0,0-.16,0l-.5-.05c-12.66-1.75-40.06,3.85-40.06,3.85s5.28,14.07-9.63,23.46-30.85-2.41-30.85-2.41l-1.51,1h0s-39.24,25.89-42.76,31.81-18.62,35.22-18.62,35.22,4.79,24.59,57.8,26.65c4.36,10.57,7.7,20.88,8.78,29.48,4.21,33.39-.68,59.72,4.23,79.21s93.36,8.37,109.38,4.63,12.41-20.86,13.65-37.48C1552.94,465.92,1540.55,391.87,1535.33,373.45Z"/>
          <path class="cls-18" d="M1544.55,338.7a96,96,0,0,1-10.4,31.1c-1.39-6.13-7.05-28.56-16.19-38.74C1518,331.06,1533.34,332.45,1544.55,338.7Z"/>
        </g>
        <g>
          <path class="cls-10" d="M1184.4,557.51s16.48-20,20-22.33,19.11-6.5,20-5.67.93,2-1,3.74-9.28,6-8.24,6.49,23.26-10.58,26.47-6.86-1.82,19.07-10.38,26.43-34.1,10.5-35.7,11.52C1182,579.55,1184.4,557.51,1184.4,557.51Z"/>
          <path class="cls-15" d="M894.27,511.39S918,539.48,948.1,527.73c0,0,6.48-15.68,6.57-27.25,0-1.42,0-2.8.05-4.11.16-13,.6-20.33.6-20.33h0c-1.37-.58-46.09-18.93-46-17.41C910,493.85,894.27,511.39,894.27,511.39Z"/>
          <path class="cls-10" d="M913.73,467c4.31,8,19.11,23.63,41,29.34.16-13,.6-20.33.6-20.33h0C954.05,475.7,912.45,464.67,913.73,467Z"/>
          <path class="cls-15" d="M964.69,474.69s-50.29,11.82-57.17-19.61-18-51.07,13.81-59.95,40.7,1.75,45.55,11.68S977.59,470.8,964.69,474.69Z"/>
          <path class="cls-16" d="M909.24,463.65c-.69.43-11.51,3.76-32-37.06-3.22-6.41-5.41-20.27,2.09-32.52s34.09-21.88,56.18-26.07,27.39,8.23,32.59,20.73c5.46,13.11,21.23,23.91,21.23,23.91-19,10.64-42-4.58-49.94-2.08s-10.75,15-11.35,19.05-1.51,7.35-11.51,3.76-4.51,14.17-2.92,17.56C913.61,450.93,915,460,909.24,463.65Z"/>
          <g>
            <path class="cls-16" d="M779.7,1248.44H749.25c-6.38,0-13.48-6.48-15.25-18.34s-14.9-18.33-17.74-28S728,1178.69,728,1178.69l2.43-3.17,2.53-3.3,24.12,5.75s.6,5.82,1,13.23c.26,5.36.4,11.55.1,17-.71,12.95,3.57,26.88,14.92,29.4S779.7,1248.44,779.7,1248.44Z"/>
            <path class="cls-16" d="M991.68,1248.73H911a7,7,0,0,1-1.71-.51c-5.39-2.78-3.7-24-3.06-30.58.13-1.22.22-1.93.22-1.93s28.38-23.37,32.28-5.48q.19.84.42,1.65h0c4.93,16.74,26.95,24.35,39.68,26.47C988.51,1240,991,1245.82,991.68,1248.73Z"/>
            <path class="cls-3" d="M975.41,782S971.1,835.76,966,900.4c-6.88,87.82-15.17,195.68-16,216.12-1.42,35.48-7.1,92.24-7.1,92.24s-13.48,13.48-40.45,7.8c0,0-24-81-30.89-166.75-.11-1.41-.22-2.82-.32-4.24-6.39-87.27-16.32-271-16.32-271Z"/>
            <path class="cls-19" d="M975.41,782S971.1,835.76,966,900.4l-94.42,149.41c-.11-1.41-.22-2.82-.32-4.24-6.39-87.27-16.32-271-16.32-271Z"/>
            <path class="cls-4" d="M955.72,788.37S878,983.13,826.94,1074.66s-67,117.07-67,117.07S730.63,1180,728,1172c0,0,19.53-176.7,53.74-219.77,19.33-24.34,42-97.39,43.11-122.93s6.91-76.09,6.91-76.09Z"/>
          </g>
          <g>
            <path class="cls-10" d="M777.84,755.93s-2,24.32-3.49,28.06-11.29,15.31-12.43,15.15-1.82-1.08-1.24-3.44,4-9.64,2.89-9.45-12.32,20.7-16.8,19.54-8.85-15.73-6.19-26,20.75-26.47,21.44-28.13C767.88,737.55,777.84,755.93,777.84,755.93Z"/>
            <path class="cls-20" d="M769.5,762.1c8.6,2.76,10,2.14,10,2.14s41.85-76.21,46.09-83.18,88.87-85.46,88.87-85.46l-21.75-81.09S796.44,639.15,786,657c-17.17,29.55-27.24,98.19-27.24,98.19A25.24,25.24,0,0,0,769.5,762.1Z"/>
          </g>
          <path class="cls-21" d="M991.81,627.44c-.3,16.66-1.27,35.38-2.58,54.4l-.24,3.38c-.83,11.78-1.74,23.59-2.77,35.1q-.63,6.93-1.33,13.66l-.07.61c0,1.68-.24,3.49-.42,5.16-4.25,43.12-8.7,77.19-9.52,77.72a4.84,4.84,0,0,1-3.31.84c-11.31-1.42-45.06,1.15-72.68-4.86-23.31-4.92-43.39-14.24-64.66-26.81-2.82-1.67-9.26-6.09-8.73-9.4.51-3.63,1.46-8.87,2.67-15.47,4.19-22.94,11.43-62.4,13.89-108.58.48-8.6,1.18-17.1,2.09-25.45A385.79,385.79,0,0,1,855.42,567c9.47-34.1,23.39-60.22,40.85-70.44,2.28-1.28,14.56,6.53,25.83,13.77a49.79,49.79,0,0,0,32,7.59l9.38,10.38C974.89,541.46,987,559,990.29,584c.25,1.85.46,3.81.64,5.9A367.09,367.09,0,0,1,991.81,627.44Z"/>
          <path class="cls-20" d="M991.81,627.44c-.3,16.66-1.27,35.38-2.58,54.4l-.24,3.38c-64.6-40.44-74.55-114.43-74.55-114.43,31.78,1.39,57,8.7,76.49,19.15A367.09,367.09,0,0,1,991.81,627.44Z"/>
          <path class="cls-21" d="M1194.21,559.5c-3.33-9-8.51-8.42-8.51-8.42s-96,23.94-104.68,25-103.43-37-103.43-37-37.32-16.74-54.8-1.45c-15.19,13.29-15.88,30.12-12.33,44.26a42.28,42.28,0,0,0,35.73,31.49c38.68,4.93,115.86,14.2,132,11.95,36-5,117.58-52.1,117.58-52.1A30.35,30.35,0,0,0,1194.21,559.5Z"/>
        </g>
        <g id="man">
          <g>
            <path class="cls-16" d="M2141.34,735.56s13.34,12.37,10.74,21.16-14.65,14.64-16.28,25.38-8.13,16.6-14,16.6h-27.93s-4.31-7.56,6.1-9.83,14.34-14.9,13.69-26.62,1-27.34,1-27.34l22.13-5.21Z"/>
            <path class="cls-16" d="M1975,797.24c-1.35.68-6.11,1.15-12.64,1.46h-63.16c.21-1.88,1.68-8.57,12-10.24,11.67-1.9,31.88-8.68,36.38-23.6a14.47,14.47,0,0,0,.4-1.47c3.57-15.94,29.61,4.88,29.61,4.88s.08.64.19,1.73C1978.42,775.86,1980,794.78,1975,797.24Z"/>
            <path class="cls-22" d="M1914.32,370.67s4,49.34,8.6,108.65c6.32,80.56,13.92,179.52,14.67,198.27,1.3,32.56,6.51,84.63,6.51,84.63s12.36,12.37,37.11,7.16c0,0,22-74.34,28.34-153l.3-3.89c5.85-80.07,15-248.67,15-248.67Z"/>
            <path class="cls-23" d="M1914.32,370.67s4,49.34,8.6,108.65l86.63,137.07.3-3.89c5.85-80.07,15-248.67,15-248.67Z"/>
            <path class="cls-22" d="M1932.38,376.53s71.28,178.69,118.15,262.66S2112,746.6,2112,746.6s26.86-10.74,29.3-18.07c0,0-17.92-162.11-49.31-201.63-17.74-22.33-38.57-89.35-39.55-112.78s-6.35-69.82-6.35-69.82Z"/>
          </g>
          <g>
            <path class="cls-15" d="M1712.52,279.61s-19.33-4.42-22.59-4.2-14.63,5-14.78,5.91.38,1.68,2.35,1.81,8.44-.7,8,.08-19.06,4.45-19.26,8.21,10,10.72,18.64,11.19,25.6-9.56,27.06-9.69C1724.31,291.84,1712.52,279.61,1712.52,279.61Z"/>
            <path class="cls-24" d="M1704.25,284.52c-2.78-8.83-2.13-10.24-2.13-10.24s78.38-42.37,85.55-46.67,88.17-90.49,88.17-90.49l83,22.83S1830.42,257.75,1812,268.28c-30.4,17.4-100.81,27.25-100.81,27.25A25.73,25.73,0,0,1,1704.25,284.52Z"/>
          </g>
          <path class="cls-15" d="M1901,95.22s-29.08,51.17-57.51,57.85c0,0,1.18-17.19,8.1-28.95-2.83-3.34-5.32-6.41-7.47-9.16a171.21,171.21,0,0,1-10.56-14.78l9.65-25.94,6.54-17.6A85.14,85.14,0,0,0,1860,71.38C1878.59,92.8,1901,95.22,1901,95.22Z"/>
          <path class="cls-10" d="M1860,71.38S1863.43,97,1844.1,115a171.21,171.21,0,0,1-10.56-14.78l9.65-25.94C1853.53,71.09,1860,71.38,1860,71.38Z"/>
          <path class="cls-15" d="M1825.87,104s43.46-16.94,32.49-43.84-12.74-47.2-40.95-37.52-29.38,22.12-27.9,32S1814.29,107.67,1825.87,104Z"/>
          <path class="cls-25" d="M2050.35,357.81c-17.53,25.2-148.59,58.88-147,41.43a188.29,188.29,0,0,0,0-34.41c-.32-3.74-.79-7.69-1.39-11.88-3.33-22.93-11.24-52.4-28.88-86.52q-2-3.82-4.13-7.74a266.69,266.69,0,0,1-18.17-40.82c-9.08-26.25-12.74-51.35-8.16-67.77,0-.08,0-.15.07-.23,27.4-12.67,38-61.79,38-61.79s93.46,16.78,145.82,141.36C2026.47,229.44,2065.6,335.87,2050.35,357.81Z"/>
          <path class="cls-24" d="M1903.29,364.83c-.32-3.74-.79-7.69-1.39-11.88-3.33-22.93-11.24-52.4-28.88-86.52,3-18.35,7.21-33.62,11.8-40.5,18.64-27.93,29.5-32.3,29.5-32.3S1942.27,311.52,1903.29,364.83Z"/>
          <g>
            <path class="cls-15" d="M1756,336.78s-25.86,1.36-29.86,2.8-16.6,11.5-16.46,12.71,1.08,2,3.6,1.42,10.35-3.89,10.11-2.76-22.34,12.4-21.25,17.18,16.4,9.9,27.41,7.4,28.73-21.16,30.51-21.84C1775.13,347.93,1756,336.78,1756,336.78Z"/>
            <path class="cls-14" d="M1751.08,346.59c-5.18-8.37-1.44-12.19-1.44-12.19s79.87-62.53,86.13-68.85S1871,158.63,1871,158.63s10-40.71,33.36-45.2c20.31-3.91,34.35,6.14,43.54,17.93a43.31,43.31,0,0,1,2.93,48.71c-20.39,34.36-61.53,102.58-73.54,114.23-26.74,25.94-116.2,62.18-116.2,62.18A31,31,0,0,1,1751.08,346.59Z"/>
          </g>
          <path class="cls-16" d="M1864.6,10.15c.3-.6,1.19-1.24,3.34-1.9a9,9,0,0,0-4.37-.16c-1.22-3-4.18-8-9.75-8.09a6.86,6.86,0,0,1,4.37,4c-7.62-4.83-21.75-6.23-57,5.52C1754.68,25,1777.91,52,1785,54.17s20-11.72,31.68-13.62,18,14.36,22.43,15.7,1.91-2.35,6.57-6,7.33,5,7.23,11.13,9,11.92,9,11.92l5.33-9.77c5.32-9.77,3.87-45.24-1.22-51.62Z"/>
        </g>
        <rect class="cls-16" y="1339.61" width="2631.55" height="9.39" rx="3.46"/>
        <polygon class="cls-26" points="1129.85 1247.41 1129.85 1300.02 1005.32 1247.41 1129.85 1247.41"/>
        <rect class="cls-27" x="1783.71" y="798.7" width="411.82" height="540.91"/>
        <rect class="cls-12" x="1656.72" y="798.7" width="411.83" height="540.91"/>
        <polygon class="cls-28" points="2195.53 798.7 2195.53 879.59 2068.55 798.7 2195.53 798.7"/>
      </g>
      <path class="cls-4" d="M2379.11,432.27c-1.83,0-3.69,0-5.52-.07l.07-2.8c3.71.1,7.46.1,11.14,0l.08,2.8C2383,432.24,2381,432.27,2379.11,432.27Zm-16.79-.68c-3.74-.3-7.52-.71-11.23-1.22l.38-2.77c3.66.5,7.38.9,11.07,1.2Zm33.83,0-.23-2.79c3.69-.3,7.42-.71,11.07-1.21l.39,2.77C2403.67,430.85,2399.89,431.26,2396.15,431.57Zm-56.2-3c-3.68-.71-7.39-1.53-11-2.45l.68-2.71c3.58.9,7.24,1.71,10.87,2.42Zm78.56,0-.53-2.75c3.63-.71,7.28-1.52,10.87-2.43l.68,2.71C2425.9,426.94,2422.19,427.77,2418.51,428.49ZM2318.06,423c-3.59-1.12-7.19-2.35-10.71-3.66l1-2.62c3.47,1.29,7,2.51,10.56,3.61ZM2440.4,423l-.84-2.67c3.53-1.1,7.08-2.32,10.54-3.62l1,2.62C2447.57,420.6,2444,421.83,2440.4,423Zm-143.53-7.85c-3.43-1.5-6.87-3.13-10.22-4.82l1.26-2.5c3.3,1.67,6.7,3.27,10.09,4.76Zm164.65-.07-1.13-2.56c3.38-1.49,6.76-3.09,10.05-4.76l1.27,2.5C2468.37,411.9,2464.94,413.52,2461.52,415ZM2276.7,404.89c-3.24-1.88-6.48-3.87-9.62-5.92l1.53-2.34c3.1,2,6.29,4,9.49,5.84Zm204.92-.06-1.4-2.42c3.19-1.85,6.38-3.81,9.47-5.84l1.53,2.35C2488.09,401,2484.86,403,2481.62,404.83ZM2257.8,392.52c-3-2.22-6-4.55-8.92-6.94l1.78-2.16c2.85,2.35,5.81,4.66,8.79,6.85Zm242.69,0-1.66-2.26c3-2.18,5.93-4.49,8.78-6.84l1.78,2.16C2506.5,387.92,2503.51,390.26,2500.49,392.48Zm-260.12-14.32c-2.76-2.53-5.48-5.18-8.1-7.87l2-2c2.58,2.65,5.27,5.26,8,7.77Zm277.53,0-1.89-2.05c2.72-2.51,5.41-5.12,8-7.77l2,1.95C2523.39,372.93,2520.66,375.58,2517.9,378.12ZM2224.62,362c-2.47-2.82-4.89-5.75-7.19-8.7l2.21-1.72c2.27,2.91,4.65,5.8,7.08,8.58Zm309-.05-2.11-1.83c2.43-2.79,4.82-5.68,7.09-8.6l2.21,1.72C2538.53,356.19,2536.11,359.12,2533.65,361.94ZM2210.74,344.2c-2.14-3.07-4.22-6.25-6.19-9.43l2.38-1.47c1.94,3.14,4,6.27,6.1,9.3Zm336.8-.07-2.3-1.59c2.11-3.05,4.17-6.18,6.11-9.33l2.38,1.47C2551.76,337.87,2549.68,341.05,2547.54,344.13ZM2198.9,325c-1.79-3.29-3.51-6.68-5.11-10.06l2.53-1.19c1.58,3.33,3.27,6.67,5,9.91Zm360.49-.12-2.46-1.33c1.76-3.26,3.46-6.6,5-9.95l2.53,1.2C2562.9,318.2,2561.18,321.59,2559.39,324.89Zm-370.14-20.25c-1.42-3.47-2.75-7-4-10.57l2.64-.91c1.21,3.49,2.52,7,3.92,10.42Zm379.8-.19-2.59-1.05c1.4-3.44,2.71-6.95,3.91-10.45l2.65.91C2571.8,297.4,2570.47,301,2569.05,304.45ZM2181.9,283.29c-1-3.6-2-7.29-2.77-10.94l2.73-.62c.8,3.61,1.72,7.24,2.73,10.8Zm394.48-.21-2.69-.76c1-3.56,1.92-7.19,2.73-10.8l2.73.61C2578.33,275.79,2577.4,279.47,2576.38,283.08ZM2177,261.26c-.61-3.69-1.13-7.45-1.55-11.18l2.78-.31c.41,3.68.92,7.39,1.53,11Zm404.34-.21-2.76-.46c.6-3.65,1.11-7.36,1.51-11l2.79.3C2582.43,253.59,2581.91,257.35,2581.3,261.05Zm-406.82-22.22c-.21-3.74-.31-7.53-.32-11.29h2.8c0,3.7.11,7.45.32,11.13Zm409.28-.22-2.8-.16c.2-3.68.3-7.42.3-11.13v-.43h2.8v.43C2584.06,231.08,2584,234.87,2583.76,238.61Zm-406.51-22.2-2.79-.15c.2-3.75.5-7.54.91-11.26l2.78.3C2177.75,209,2177.45,212.71,2177.25,216.41Zm403.69-.65c-.21-3.7-.52-7.43-.93-11.1l2.78-.31c.41,3.72.73,7.5.94,11.25Zm-401.29-21.49-2.76-.45c.61-3.7,1.33-7.43,2.14-11.09l2.73.61C2181,186.94,2180.25,190.62,2179.65,194.27Zm398.82-.64c-.61-3.65-1.34-7.32-2.15-10.93l2.73-.61c.82,3.65,1.56,7.38,2.18,11.08Zm-394-21.1-2.69-.75c1-3.61,2.14-7.24,3.35-10.78l2.65.9C2186.59,165.4,2185.47,169,2184.47,172.53Zm389.1-.62c-1-3.55-2.13-7.13-3.34-10.62l2.65-.92c1.22,3.55,2.36,7.17,3.39,10.77Zm-381.89-20.46-2.59-1c1.41-3.48,2.94-7,4.54-10.37l2.53,1.2C2194.58,144.58,2193.07,148,2191.68,151.45Zm374.62-.58c-1.39-3.42-2.9-6.84-4.49-10.17l2.53-1.2c1.61,3.38,3.14,6.84,4.55,10.31Zm-365.11-19.59-2.46-1.34c1.79-3.29,3.69-6.59,5.65-9.79l2.39,1.47C2204.83,124.77,2203,128,2201.19,131.28Zm355.58-.49c-1.77-3.24-3.65-6.48-5.59-9.62l2.38-1.48c2,3.19,3.88,6.47,5.66,9.76Zm-343.91-18.5-2.3-1.6c2.14-3.08,4.39-6.14,6.69-9.1l2.21,1.72C2217.19,106.23,2215,109.25,2212.86,112.29Zm332.21-.43c-2.11-3-4.34-6-6.61-9l2.2-1.72c2.31,3,4.56,6,6.7,9.07ZM2226.54,94.7l-2.11-1.83c2.46-2.83,5-5.63,7.64-8.32l2,2C2231.5,89.15,2229,91.91,2226.54,94.7Zm304.82-.37c-2.43-2.78-5-5.53-7.56-8.18l2-2c2.62,2.68,5.2,5.47,7.67,8.29Zm-289.3-15.6-1.9-2.06c2.75-2.54,5.61-5,8.5-7.43l1.78,2.16C2247.59,73.75,2244.77,76.22,2242.06,78.73Zm273.75-.34c-2.73-2.5-5.56-5-8.41-7.3l1.77-2.17c2.9,2.39,5.77,4.88,8.53,7.41ZM2259.22,64.55l-1.66-2.25c3-2.23,6.13-4.4,9.26-6.45l1.53,2.34C2265.27,60.21,2262.19,62.35,2259.22,64.55Zm239.38-.3c-3-2.19-6.07-4.33-9.17-6.35l1.53-2.34c3.15,2,6.27,4.21,9.29,6.43ZM2277.82,52.34l-1.41-2.42c3.24-1.88,6.58-3.69,9.91-5.39l1.27,2.5C2284.3,48.7,2281,50.49,2277.82,52.34Zm202.11-.27c-3.2-1.85-6.51-3.63-9.81-5.3l1.26-2.5c3.35,1.69,6.7,3.5,9.95,5.38Zm-182.29-9.81-1.13-2.56c3.42-1.51,6.93-2.94,10.43-4.26l1,2.62C2304.47,39.36,2301,40.77,2297.64,42.26ZM2460,42c-3.39-1.49-6.87-2.89-10.34-4.19l1-2.62c3.52,1.31,7,2.74,10.48,4.24Zm-141.57-7.59-.84-2.67c3.57-1.12,7.23-2.16,10.86-3.08l.69,2.71C2325.59,32.3,2322,33.32,2318.46,34.43Zm120.67-.2c-3.53-1.1-7.14-2.11-10.73-3l.68-2.71c3.64.91,7.3,1.94,10.88,3ZM2340,29l-.53-2.75c3.67-.72,7.42-1.35,11.13-1.86l.39,2.77C2347.36,27.62,2343.66,28.24,2340,29Zm77.5-.13c-3.63-.7-7.33-1.31-11-1.8l.38-2.78c3.71.51,7.46,1.12,11.14,1.83Zm-55.44-2.94-.24-2.79c3.73-.31,7.53-.52,11.28-.63l.08,2.8C2369.51,25.36,2365.77,25.57,2362.09,25.88Zm33.38-.06c-3.68-.29-7.42-.49-11.12-.58l.07-2.8c3.75.1,7.54.3,11.27.6Z"/>
      <path class="cls-1" d="M2549.73,228c0,.73,0,1.46,0,2.19q0,3.28-.21,6.54a169.75,169.75,0,0,1-109.17,149.91l-1.94.73q-2.93,1.06-5.89,2l-2,.64q-6,1.86-12.14,3.28c-1.37.31-2.74.61-4.12.9q-5.18,1-10.47,1.8l-2.12.28c-1.41.18-2.83.34-4.26.49l-2.14.2c-1.43.13-2.87.24-4.31.33q-5.4.35-10.89.34c-3.66,0-7.3-.11-10.9-.34-1.44-.09-2.88-.2-4.31-.33l-2.14-.2c-1.43-.15-2.85-.31-4.26-.49l-2.12-.28q-5.3-.75-10.47-1.8c-1.38-.29-2.75-.59-4.12-.9q-6.15-1.43-12.14-3.28l-2-.64c-2-.64-4-1.32-5.9-2l-1.94-.73a169.75,169.75,0,0,1-109.17-149.91c-.09-1.8-.15-3.62-.19-5.43,0-.37,0-.74,0-1.11s0-.53,0-.8c0-.46,0-.93,0-1.39,0-2,0-4,.11-6,0-.63,0-1.26.07-1.89,0-.27,0-.55,0-.82.08-1.45.17-2.89.28-4.32,0-.72.11-1.44.17-2.16.13-1.43.28-2.85.44-4.27s.34-2.84.54-4.25c.29-2.11.63-4.21,1-6.3a168.43,168.43,0,0,1,18.37-51.83c.3-.53.59-1.06.89-1.58a167.64,167.64,0,0,1,11.48-17.64l.71-1a169.84,169.84,0,0,1,12.71-15l.09-.1a171,171,0,0,1,19.63-17.62q4.84-3.72,10-7.09t10.49-6.38c1.19-.66,2.39-1.32,3.6-2s2.43-1.27,3.66-1.88l2.45-1.19q2.2-1.05,4.44-2l1.15-.5c1.07-.47,2.15-.92,3.23-1.36,1.28-.53,2.57-1,3.86-1.52l1.94-.73q1.23-.45,2.46-.87c1.14-.4,2.28-.79,3.44-1.16l2-.64c1.33-.41,2.67-.81,4-1.19q5-1.42,10.19-2.55c1.37-.3,2.75-.58,4.14-.85s2.78-.51,4.18-.74q3.13-.52,6.33-.93c1.41-.18,2.83-.34,4.26-.49l2.14-.2c1.43-.13,2.87-.24,4.31-.33,3.6-.23,7.24-.35,10.9-.35s7.29.12,10.89.35c1.44.09,2.88.2,4.31.33l2.14.2c1.43.15,2.85.31,4.26.49q3.2.4,6.33.93c1.4.23,2.8.48,4.18.74s2.77.55,4.14.85q5.16,1.13,10.19,2.55c1.34.38,2.68.78,4,1.19l2,.64c1.15.37,2.29.76,3.43,1.16q1.24.42,2.46.87l1.94.73c1.3.49,2.58,1,3.86,1.52,1.08.44,2.16.89,3.23,1.36l1.15.5q2.24,1,4.44,2l2.45,1.19c1.23.61,2.45,1.24,3.66,1.88s2.41,1.29,3.6,2q5.37,3,10.5,6.38t10,7.09a170.12,170.12,0,0,1,19.63,17.62l.09.1a169.84,169.84,0,0,1,12.71,15c.24.31.47.63.71,1a169.33,169.33,0,0,1,11.49,17.64l.88,1.58A168.43,168.43,0,0,1,2547.08,198c.37,2.09.71,4.19,1,6.3.2,1.41.38,2.83.54,4.25s.31,2.84.44,4.27l.18,2.16c.1,1.43.2,2.87.27,4.32Q2549.73,223.61,2549.73,228Z"/>
      <circle class="cls-29" cx="2380.07" cy="228" r="141.15"/>
      <circle class="cls-1" cx="2380.07" cy="228" r="111.78"/>
      <circle class="cls-29" cx="2380.07" cy="228" r="84.76"/>
      <circle class="cls-1" cx="2380.07" cy="228.47" r="59.14" transform="translate(535.55 1749.88) rotate(-45)"/>
      <circle class="cls-29" cx="2380.07" cy="226.61" r="28.39"/>
      <path class="cls-4" d="M2564.43,11l.05,32.76,32.4-.2L2547.07,93.4l-25.25-.62L2385.5,229.1a4.45,4.45,0,0,1-6.27,0l-.36-.36a4.45,4.45,0,0,1,0-6.27L2515.25,86.08l-.8-25.06Z"/>
      <path class="cls-12" d="M2564.48,43.79l32.4-.2L2547.07,93.4l-25.25-.62L2385.5,229.1a4.45,4.45,0,0,1-6.27,0l-.18-.18L2564.48,43.49Z"/>
    </g>
  </g>
</svg>
