<svg xmlns="http://www.w3.org/2000/svg" viewBox="0 0 3297.68 2372.53">
  <defs>
    <style>
      .cls-1 {
        fill: #def4f9;
      }

      .cls-2 {
        fill: #404040;
      }

      .cls-3 {
        fill: #3a5271;
      }

      .cls-4 {
        fill: #2c3d54;
      }

      .cls-5 {
        fill: #f09959;
      }

      .cls-6 {
        fill: #e6d8d1;
      }

      .cls-7 {
        fill: #cfc3bc;
      }

      .cls-8 {
        fill: #f3e4dc;
      }

      .cls-9 {
        fill: #cb4949;
      }

      .cls-10 {
        fill: #cd7250;
      }

      .cls-11 {
        fill: #e38540;
      }

      .cls-12 {
        fill: #35abdd;
      }

      .cls-13 {
        fill: #1470b3;
      }

      .cls-14 {
        fill: #aeddf1;
      }

      .cls-15 {
        fill: #75a1de;
      }

      .cls-16 {
        fill: #fff;
      }

      .cls-17 {
        fill: #385988;
      }

      .cls-18 {
        fill: #4772b0;
      }

      .cls-19 {
        fill: #d3d6e6;
      }

      .cls-20 {
        fill: #a8aab7;
      }

      .cls-21 {
        fill: #42617b;
      }

      .cls-22 {
        fill: #12789b;
      }

      .cls-23 {
        fill: #f37168;
      }

      .cls-24 {
        fill: #d54a41;
      }

      .cls-25 {
        fill: #6791c9;
      }

      .cls-26 {
        fill: #ffb27d;
      }

      .cls-27 {
        fill: #e2915a;
      }

      .cls-28 {
        fill: #289dc6;
      }

      .cls-29 {
        fill: #72bce5;
      }
    </style>
  </defs>
  <g id="Layer_2" data-name="Layer 2">
    <g id="Layer_3" data-name="Layer 3">
      <path class="cls-1" d="M2975.6,966.84a249.37,249.37,0,0,0,38-132.58c0-138.41-112.21-250.62-250.64-250.62A249.7,249.7,0,0,0,2594.19,649C2531.84,547.5,2419.82,479.82,2292,479.82a352.79,352.79,0,0,0-192.65,56.9C2066.33,234.88,1810.59,0,1500,0,1283.38,0,1093.5,114.2,987.16,285.66a352.76,352.76,0,0,0-157.92-37.07c-195.76,0-354.45,158.68-354.45,354.44a352.88,352.88,0,0,0,40.7,165c-13.42-1.14-27-1.75-40.7-1.75C212.58,766.27,0,978.84,0,1241.06s212.58,474.8,474.79,474.8H2891.5c209.42,0,379.19-169.78,379.19-379.2C3270.69,1156.15,3144.55,1005.1,2975.6,966.84Z"/>
      <g>
        <g>
          <path class="cls-2" d="M3026.66,1241.27s-38,18.58-28.59,69.13,13.55,57.35,3,77.1-22.91,104-13.45,120,117-70.18,131.94-142.46-9.45-104.42-18.07-116.4S3060.2,1224.25,3026.66,1241.27Z"/>
          <path class="cls-3" d="M3016.14,1423.74s-19.33,3.93-30.19,19.91c-7.55,11.12-8.17,35.82-9.25,40.47s-15.51,57.29-15.51,57.29l40.27,27Z"/>
          <path class="cls-4" d="M2867.34,2323.86s-26.28,35.38-22.67,41,31.24,6.41,48.06,0,17.22-47.87,24.84-65.69c3.18-7.46-3.64-29.48-13.22-31.07s-20,3.09-20,3.09S2894.28,2296.27,2867.34,2323.86Z"/>
          <path class="cls-5" d="M2884.16,2270.89s-5.53,15.07-7.55,29.46c-1.68,11.93-18.73,37.27-17.93,40.47s22.43,6.11,31.25-2.15,14.48-32.3,16.42-46.66c1.81-13.39,4.09-20,4.09-20S2892.57,2262.08,2884.16,2270.89Z"/>
          <path class="cls-4" d="M3096.11,2324.45s-25.34,34.79-21.73,40.4,31.24,6.41,48.07,0,17.22-47.87,24.83-65.69c3.19-7.46-3.63-29.48-13.22-31.07s-20.83,3.43-20.83,3.43S3123.05,2296.86,3096.11,2324.45Z"/>
          <path class="cls-5" d="M3113.23,2271.52s-2,16.43-5.2,28-20.43,38.06-19.63,41.26,22.43,6.11,31.24-2.15,15.62-32.19,16.43-46.66-2-23.92-2-23.92S3121.64,2262.71,3113.23,2271.52Z"/>
          <path class="cls-5" d="M2986.63,1695.48s-22.55,104.91-27.73,131.34-19.68,154.35-21.24,176.1-23.54,103.73-22.5,111.5-32.59,163.84-32.59,163.84,11.49,9.25,23.59.84c6.23-4.33,73.78-146.12,73.78-185,0-53.7,39.7-123.79,44.83-135.8,47.6-111.61,38.23-145.73,44.44-153s6.76,4.48,10.38,20.53,11.39,154.88,16,172.49,1,77.18,3.63,107.22,14,165.93,14,165.93,8.81,13.8,21.17.36c2.65-2.89,21.33-151.38,21.85-187.12s1.06-85,2.07-100.48c9.59-148.1,33.18-169.26-4-274.08C3084.8,1514,2986.63,1695.48,2986.63,1695.48Z"/>
          <path class="cls-4" d="M3138.09,1666.16s64.25,89.92,36.59,281.21c0,0-152.4,20.73-234-24,0,0,33.77-197.22,46-227.91S3138.09,1666.16,3138.09,1666.16Z"/>
          <polygon class="cls-4" points="2918.27 2296.05 2918.27 2333.09 2913.46 2333.09 2913.46 2304.46 2918.27 2296.05"/>
          <polygon class="cls-4" points="3147.99 2296.05 3145.58 2367.83 3140.78 2367.83 3143.18 2304.46 3147.99 2296.05"/>
          <polygon class="cls-4" points="2914.04 2296.05 2911.64 2367.83 2906.83 2367.83 2909.24 2304.46 2914.04 2296.05"/>
          <path class="cls-6" d="M3051.86,1410.63s-23.67,11.17-31.89,12.82-40.11,43.07-45.7,58.19,0,37.81,11.51,64.44.66,35.5,5.92,62.13,9.86,83,8.87,97.82,133,17.58,163.56-9.38c0,0-30.74-46-34.68-52.6s-.66-42.41,3-51.62,27.69-87.49,27.69-87.49,19.69-60.12,1.9-73.93c-15.45-12-57.57-16.28-65.13-18.91S3067.31,1408.32,3051.86,1410.63Z"/>
          <path class="cls-7" d="M3044.3,1463.39l-14.39-16.84,12.5-44.35S3046.6,1426.9,3044.3,1463.39Z"/>
          <path class="cls-5" d="M3040.56,1383.31s.65,5.93,1.41,14.13c.34,3.64.7,7.73,1,11.94,1,11.95,1.74,24.9,1.29,31.49,0,0,24.6,24.65,52.57-28.77,0,0-11.77-22-2.91-52S3040.56,1383.31,3040.56,1383.31Z"/>
          <polygon class="cls-5" points="3044.3 1440.87 3044.3 1463.39 3072.61 1442.24 3044.3 1440.87"/>
          <polygon class="cls-7" points="3044.3 1463.39 3056.05 1448.84 3095.64 1409.39 3108.45 1421.72 3044.3 1463.39"/>
          <path class="cls-3" d="M3101.14,1413.16s-33.23,50.42-34.81,72.61,12.35,188.2,23.5,241.57,91.8-6,91.8-6-54.19-87.7-33.39-157.92,28.36-98.29,28.36-98.29-7.16-39.11-32.52-44.61C3121.85,1415.66,3101.14,1413.16,3101.14,1413.16Z"/>
          <path class="cls-3" d="M2972.08,1488.38s-6,21.2,17.35,68.07c0,0-.36,60-1,78.72s-13.91,86.13-13.91,86.13l31.9,17a6.52,6.52,0,0,0,9.76-6.4c-6.54-53.94-27.81-258.5,18.14-313.48l-18.44,5.43S2983.1,1450.65,2972.08,1488.38Z"/>
          <polygon class="cls-8" points="3029.91 1446.55 3011.79 1451.56 3042.41 1402.2 3029.91 1446.55"/>
          <polygon class="cls-8" points="3056.05 1448.84 3072.61 1470.54 3106.6 1413.88 3095.64 1409.39 3056.05 1448.84"/>
          <rect class="cls-9" x="2986.85" y="1570.03" width="70.88" height="5.99" transform="translate(12 3168.89) rotate(-55.43)"/>
          <path class="cls-5" d="M3050.84,1594.55s-4.19.36-7.08-1.54c-5-3.27-7.3-12-15.66-10.8s-10.51,27.8-8.08,32.65,14.27,6.57,31.28,2S3050.84,1594.55,3050.84,1594.55Z"/>
          <path class="cls-5" d="M3031,1582.2a263.23,263.23,0,0,0-26.48-5.41c-12.41-1.84-27.08-1.74-28.36.48-1.43,2.46,12.2,3.61,24.41,6.22,11.24,2.4,8.69,3.73,8.69,3.73s.7-.42-12-.76c-13.63-.38-27.57.57-28.77,3.37-.58,1.36-.06,2.22,4.9,3.14-2.94,0-3.3.84-3.34,2-.18,6.14,19.9,9.7,27.87,11.11-6.13-1-10.71-1.19-8.27,2.75,2.79,4.52,31.35,8.31,41.49,10.61C3042.22,1622,3031,1582.2,3031,1582.2Z"/>
          <path class="cls-3" d="M3144.36,1423.52c8.13-3.23,33.09,3.8,38.86,28.53s9.25,52.37,14,65.58,18.47,72.21,10.55,77.71-23.22,11-45.12,12.48c-22.61,1.49-110,11.21-110,11.21l-7.55-30.78s33.18-3.92,50.26-7.66c15.2-3.35,36.06-11.29,60.93-15.69,0,0-7.75-36.61-12.28-46.79S3107.79,1438.07,3144.36,1423.52Z"/>
          <polygon class="cls-5" points="2978.7 1581.63 2974.58 1591.66 2983.4 1585.34 2978.7 1581.63"/>
          <polygon class="cls-10" points="3027.1 1633.97 2938.6 1616.42 2872.96 1475.97 2967.42 1485.9 3027.1 1633.97"/>
          <path class="cls-5" d="M2927.57,1592.59a71.81,71.81,0,0,1-9.18-10.81c-4.32-6.31-18.46-30.39-17.17-31.9s22.29-2,26.1,1.41-3.75,4.76-3.75,4.76,11.48,1.19,10.66,4.43-7.73,2.34-7.73,2.34,9.24,1.77,7.84,4.61-5.85,2.82-5.85,2.82,8.19,1,7.18,4.14-14,6-12.24,8.62S2927.57,1592.59,2927.57,1592.59Z"/>
          <path class="cls-5" d="M3032.17,1246.87S2977,1264.2,3007,1359.39s105.26-11,97.38-69S3032.17,1246.87,3032.17,1246.87Z"/>
          <path class="cls-2" d="M3001.32,1302.41s27.41,26.89,73.27,30.25c0,0,17.63,20.67,19,28.78,0,0,40.92-69.75-9.38-111.56S2982.83,1285.18,3001.32,1302.41Z"/>
          <path class="cls-5" d="M3074,1334.56c.35-6.93,4.62-22.69,14.92-18.28s-.64,36.52-7.46,34.54C3081.5,1350.82,3073.2,1351,3074,1334.56Z"/>
          <path class="cls-11" d="M3042,1397.44c.34,3.64.7,7.73,1,11.94h0c31.89-15.75,36.77-38.44,36.91-39.15C3057.21,1399.59,3042,1397.44,3042,1397.44Z"/>
          <rect class="cls-12" x="2027.93" y="562.05" width="7.49" height="895.98"/>
          <rect class="cls-12" x="1965.92" y="1206.74" width="618.56" height="7.49"/>
          <path class="cls-13" d="M390.1,1807.87v-855C390.1,894,436,846.05,492.34,846.05H1706.73C1763.1,846.05,1809,894,1809,952.84v855c0,58.89-45.86,106.81-102.23,106.81H492.34C436,1914.68,390.1,1866.76,390.1,1807.87ZM492.34,855c-51.42,0-93.25,43.87-93.25,97.8v855c0,53.93,41.83,97.82,93.25,97.82H1706.73c51.41,0,93.24-43.89,93.24-97.82v-855c0-53.93-41.83-97.8-93.24-97.8Z"/>
          <path class="cls-12" d="M200.72,660.58V771.91L250.91,782a260.56,260.56,0,0,0,27.88,67.2l-28.38,42.67,39.36,39.36,39.37,39.37,42.67-28.38A260.47,260.47,0,0,0,439,970.1l10.11,50.2H560.44l10.1-50.2a260.39,260.39,0,0,0,67.2-27.87l42.67,28.38,39.36-39.37,39.37-39.36-28.37-42.67A260.89,260.89,0,0,0,758.64,782l50.19-10.1V660.58l-50.19-10.11a260.82,260.82,0,0,0-27.87-67.19l28.37-42.68-39.37-39.36-39.36-39.36-42.67,28.37a260.39,260.39,0,0,0-67.2-27.87l-10.1-50.2H449.11L439,462.38a260.47,260.47,0,0,0-67.19,27.87l-42.67-28.37-39.37,39.36L250.41,540.6l28.38,42.68a260.5,260.5,0,0,0-27.88,67.19Zm109,55.66c0-107.73,87.33-195.06,195.07-195.06s195.06,87.33,195.06,195.06S612.51,911.3,504.78,911.3,309.71,824,309.71,716.24Z"/>
          <path class="cls-13" d="M1173.51,329.56v84.05l37.9,7.63a196.75,196.75,0,0,0,21,50.72L1211,504.18l29.72,29.71,29.71,29.72,32.21-21.42a196.82,196.82,0,0,0,50.73,21l7.63,37.89h84l7.62-37.89a196.82,196.82,0,0,0,50.73-21l32.21,21.42,29.71-29.72,29.72-29.71L1573.65,472a196.4,196.4,0,0,0,21-50.72l37.9-7.63V329.56l-37.9-7.62a196.47,196.47,0,0,0-21-50.73L1595.07,239l-29.72-29.72-29.71-29.71L1503.43,201a196.45,196.45,0,0,0-50.73-21l-7.62-37.9h-84L1353.4,180a196.45,196.45,0,0,0-50.73,21l-32.21-21.41-29.71,29.71L1211,239l21.42,32.21a196.82,196.82,0,0,0-21,50.73Zm82.29,42a147.26,147.26,0,1,1,147.25,147.25A147.25,147.25,0,0,1,1255.8,371.59Z"/>
          <path class="cls-14" d="M863,477.26V531l24.22,4.87a125.68,125.68,0,0,0,13.45,32.42L887,588.86l19,19,19,19,20.59-13.69A125.83,125.83,0,0,0,978,626.61l4.88,24.21h53.72l4.87-24.21a125.68,125.68,0,0,0,32.42-13.45l20.59,13.69,19-19,19-19-13.69-20.59a125.31,125.31,0,0,0,13.44-32.42l24.22-4.87V477.26l-24.22-4.88A125.6,125.6,0,0,0,1118.76,440l13.69-20.59-19-19-19-19-20.59,13.69a125.68,125.68,0,0,0-32.42-13.45l-4.87-24.22H982.86L978,381.63a125.83,125.83,0,0,0-32.42,13.45L925,381.39l-19,19-19,19L900.68,440a126,126,0,0,0-13.45,32.42Zm52.59,26.86a94.12,94.12,0,1,1,94.12,94.12A94.12,94.12,0,0,1,915.6,504.12Z"/>
          <path class="cls-12" d="M504.78,842.67v855A102.32,102.32,0,0,0,607.09,1800H1878.36a102.31,102.31,0,0,0,102.31-102.31v-855a102.3,102.3,0,0,0-102.31-102.31H607.09A102.3,102.3,0,0,0,504.78,842.67Z"/>
          <g>
            <path class="cls-14" d="M1479.29,1395c122,43.61,253.42,4.25,332.64-88.89a301.25,301.25,0,0,0,46.94-75.37c2.67-6.16,5.16-12.47,7.45-18.87a303,303,0,0,0-276-404.66c-127.67-3.84-248.79,74-294.11,200.75C1239.88,1165.39,1321.86,1338.67,1479.29,1395Zm-111.77-361.53c34-95,124.82-153.4,220.52-150.51A227,227,0,0,1,1795,1186.33c-1.72,4.8-3.59,9.53-5.6,14.15a225.65,225.65,0,0,1-35.17,56.51c-59.41,69.82-158,99.34-249.4,66.64C1386.77,1281.4,1325.31,1151.49,1367.52,1033.45Z"/>
            <path class="cls-13" d="M1797.93,1042.24l72.33-22.59a303.2,303.2,0,0,0-280-212.46L1588,882.94a227.32,227.32,0,0,1,209.89,159.3Z"/>
            <path class="cls-15" d="M1789.38,1200.48l69.49,30.24c2.67-6.16,5.16-12.47,7.45-18.87a301.41,301.41,0,0,0,3.94-192.2l-72.33,22.59a226,226,0,0,1-3,144.09C1793.26,1191.13,1791.39,1195.86,1789.38,1200.48Z"/>
            <path class="cls-14" d="M1811.93,1306.09a301.25,301.25,0,0,0,46.94-75.37l-69.49-30.24a225.65,225.65,0,0,1-35.17,56.51Z"/>
          </g>
          <g>
            <path class="cls-16" d="M1866.17,1537.14A153.29,153.29,0,0,0,1671.29,1460c-3.16,1.25-6.32,2.62-9.43,4.1a153.42,153.42,0,1,0,204.31,73.06Zm-89.5,169.61a115,115,0,0,1-98.4-208c2.34-1.1,4.71-2.12,7.08-3.06a115,115,0,0,1,91.32,211Z"/>
            <path class="cls-13" d="M1625.59,1549.36l-34-17.83A153.6,153.6,0,0,0,1615.76,1708l28-26.33a115.2,115.2,0,0,1-18.12-132.3Z"/>
            <path class="cls-15" d="M1685.35,1495.72,1671.29,1460c-3.16,1.25-6.32,2.62-9.43,4.1a152.73,152.73,0,0,0-70.29,67.45l34,17.83a114.53,114.53,0,0,1,52.68-50.58C1680.61,1497.68,1683,1496.66,1685.35,1495.72Z"/>
            <path class="cls-14" d="M1715.11,1449.79a153.11,153.11,0,0,0-43.82,10.19l14.06,35.74a114.61,114.61,0,0,1,32.86-7.65Z"/>
          </g>
          <path class="cls-14" d="M504.78,842.67v855A102.32,102.32,0,0,0,607.09,1800h562.83V740.36H607.09A102.3,102.3,0,0,0,504.78,842.67Z"/>
          <rect class="cls-16" x="590.25" y="850.31" width="494.2" height="53.85" rx="10.13" transform="translate(1674.69 1754.47) rotate(-180)"/>
          <rect class="cls-1" x="590.25" y="965.81" width="494.2" height="53.85" rx="10.13"/>
          <rect class="cls-1" x="590.25" y="1098.26" width="494.2" height="608.86" rx="34.06"/>
          <rect class="cls-12" x="1131.58" y="691.41" width="1127.87" height="7.49"/>
          <path class="cls-5" d="M2308.51,1318.35s-56.47,10.09-57,57.91,43.25,117.08,71.69,112,60.77-30.38,59.68-59.47-9.16-67.31-22.28-88.28S2324.29,1317.31,2308.51,1318.35Z"/>
          <path class="cls-2" d="M2380.94,1406.61s-.1,9.76-19.53,17.48-55.1-3.08-64-1.29-11.62-2.53-11.62-2.53l-.62,9.54-7.6,5.16s-5.32-25.41-21.28-27.62-29.25-75.14,39.55-88.94c0,0,50.94-13.84,64.07,12S2383.41,1388.41,2380.94,1406.61Z"/>
          <rect class="cls-14" x="1894.11" y="1663.54" width="574.54" height="574.54" rx="50.12" transform="translate(4362.76 3901.62) rotate(-180)"/>
          <rect class="cls-16" x="1938.62" y="740.36" width="574.55" height="436.37" rx="57.56"/>
          <path class="cls-16" d="M1948.23,1809.79h202.68a10.25,10.25,0,0,0,10.24-10.24v-41.32A10.25,10.25,0,0,0,2150.9,1748H1948.22a10.25,10.25,0,0,0-10.24,10.25v41.31A10.25,10.25,0,0,0,1948.23,1809.79Z"/>
          <rect class="cls-16" x="1937.98" y="1841.2" width="223.17" height="327.55" rx="23.59"/>
          <g>
            <path class="cls-16" d="M2409.29,1823.65a102.67,102.67,0,0,0-205.18-4.24c-.12,2.27-.17,4.57-.14,6.88a102.67,102.67,0,1,0,205.32-2.64Zm-78,74.24A77,77,0,0,1,2229.66,1826c0-1.74,0-3.45.1-5.16a76.27,76.27,0,0,1,4.49-22.08v0a77,77,0,1,1,97.06,99.21Z"/>
            <path class="cls-17" d="M2245.77,1872.1l-20.32,15.74a102.81,102.81,0,0,0,114.11,34.4l-8.24-24.35a77,77,0,0,1-85.55-25.79Z"/>
            <path class="cls-18" d="M2229.76,1820.8l-25.65-1.4q-.18,3.42-.14,6.89a102.24,102.24,0,0,0,21.48,61.55l20.32-15.74a76.67,76.67,0,0,1-16.11-46.14C2229.64,1824.22,2229.67,1822.5,2229.76,1820.8Z"/>
            <path class="cls-18" d="M2229.76,1820.8a76.27,76.27,0,0,1,4.49-22.08v0l-24.15-8.78a101.84,101.84,0,0,0-6,29.51Z"/>
            <path class="cls-12" d="M2368.39,1743a102.68,102.68,0,0,0-158.28,47l24.14,8.82v0a77,77,0,0,1,119.06-34.91Z"/>
          </g>
          <path class="cls-5" d="M2203.29,1693s-5.53-.72-8.76-4c-5.56-5.66-6.08-17.64-17.27-18.45s-21.52,33.13-19.73,40.11,16.66,12.57,40,11.45S2203.29,1693,2203.29,1693Z"/>
          <path class="cls-5" d="M2181,1671.38a349,349,0,0,0-32.86-14.53c-15.59-5.89-34.87-10.08-37-7.4-4.65,6,13.53,10.15,28.65,17,13.91,6.3,11.51,5.29,11.51,5.29s1-.34-15.32-4.37c-17.6-4.34-36-7.06-38.32-3.77-1.14,1.61-3.19,7.19,4.19,7-3.84-.75-3.23-1.34-3.62.2-2,7.92,23.1,18.21,33.05,22.29-7.66-3.08-13.58-4.57-11.52,1.24,2.35,6.66,38.36,19.67,50.88,25.52C2184.35,1726.2,2181,1671.38,2181,1671.38Z"/>
          <path class="cls-19" d="M2448.45,1459.17s35.28-2.55,60.19,0,59.31,22.93,80.13,28.81,71.08,39.66,69.73,44.28-20.83,59.59-56.82,104.22C2570.87,1674.69,2448.45,1459.17,2448.45,1459.17Z"/>
          <path class="cls-20" d="M2524.58,1481.32s38.05,28.16,51.29,54,17.76,56.56,17.76,56.56Z"/>
          <path class="cls-2" d="M2495.76,2320s-10.87,11.54-17.15,14.6-81.32,16-86.42,22.07.89,9.06,20.25,9.06,83.87-.34,94.74,0,56.76,9.51,61.48,0-1.69-32.72-10.08-43.36S2495.76,2320,2495.76,2320Z"/>
          <path class="cls-21" d="M2498.07,2306.53l-2.31,13.49s20,9.17,62.82,2.37v-13.92Z"/>
          <path class="cls-2" d="M2953.8,2282.67a74.09,74.09,0,0,1,12.57,22.41c2.65,8.09,9.63,25.39,4.19,34.55s-38.73,11.62-60.12,8.23-71.75,23.1-76.5,13.93-7.48-22.54,6.45-27.74,45.84-18.78,51.61-33.05S2953.8,2282.67,2953.8,2282.67Z"/>
          <path class="cls-21" d="M2886.07,2285.73,2892,2301s61.3-4.59,61.8-18.33l-19.35-28.18Z"/>
          <path class="cls-5" d="M2382.82,1433.15s34.17,29,43.89,26.65-33.5,61.38-33.5,61.38-41.16-40.52-50.43-41.74S2382.82,1433.15,2382.82,1433.15Z"/>
          <path class="cls-19" d="M2380.51,1547.74c11.63,7,13.58,9.28,12.22,42.56s-15.16,60.11-16.18,69.27-19.5,100.11-24.6,105.2-66-6.77-78.28-10.59c-18.44-5.7-96.44-32.13-96.44-32.13l17.16-35.78s98.47,22,101.65,14.27,10.88-72.34,13.59-86.37-2-36.09,14.75-69.39C2339.4,1515,2380.51,1547.74,2380.51,1547.74Z"/>
          <path class="cls-12" d="M2496,1798.1s-20.87,22.21-26.71,29.43c-40,49.41-94.4,140.13-101.19,156s33.64,127.91,50.25,167.07c8.71,20.53,66.33,162,64.52,165.14s60.95,5.27,89-9.22c0,0-40.35-119.57-48.86-143-12.84-35.41-57.36-133.47-58.71-143s72-87.92,96.41-102.86,84.21-67.91,91-74.71,45.27-24.89,41.65-59.3-29.2-61.58-29.2-61.58Z"/>
          <path class="cls-12" d="M2605.68,1883.24s3.82,10,9.19,24.13c11.51,30.25,30.12,79.07,33.22,86.78,4.52,11.33,27.17,60.23,38,69.74s189.69,224.1,190.16,225.91,67-32.6,71.07-45.74c0,0-96.88-126.31-111.82-144.86s-46.18-46.18-56.6-90.11-85.1-212.78-85.33-219.12c0,0-12-52.07-29.44-67.92s-80.82,2.72-90.78,35.77S2605.68,1883.24,2605.68,1883.24Z"/>
          <path class="cls-19" d="M2429.81,1459.49l-14.44-5.69s-36.45,8.38-57.5,37.58l1.81,8.73S2415.26,1488.05,2429.81,1459.49Z"/>
          <path class="cls-20" d="M2374.16,1672.08a58,58,0,0,0,6.8,8.31c1,.9,2.28,1.95,3.72,3.12h0l1.37-54.77-7.89,24.24C2377.16,1656.12,2374.16,1672.08,2374.16,1672.08Z"/>
          <path class="cls-22" d="M2605.68,1883.24s3.82,10,9.19,24.13c12.17-14,39.94-66.95,39.94-66.95-1.8,1.3-7.62,6.75-9,8S2605.68,1883.24,2605.68,1883.24Z"/>
          <path class="cls-5" d="M2294.67,1418.5c-1.29-4.15,1.82-20,11.93-11s10.09,29.26,4.37,30.91S2297.92,1429,2294.67,1418.5Z"/>
          <path class="cls-2" d="M2332.5,1329.48s49-34.85,49.28,84Z"/>
          <path class="cls-19" d="M2374.16,1672.08a58,58,0,0,0,6.8,8.31c1,.9,2.28,1.95,3.72,3.12h0c13.83,11.06,44.85,32.55,59.18,40.34,15.85,8.61,45.9,81.1,45.9,81.1s141.77-9.56,174.37-82.91c0,0-23.1-51.61-44.15-82.17s-67.23-140.58-91.68-156.2-45.5-25.81-93.72-24.45-74.93,39.62-74.93,39.62-36.67,39.39-40.29,60.21C2316.27,1577,2356.08,1646.88,2374.16,1672.08Z"/>
          <path class="cls-14" d="M1938.62,797.92l1,32h574.55l-1-32a57.56,57.56,0,0,0-57.56-57.56H1996.18A57.56,57.56,0,0,0,1938.62,797.92Z"/>
          <path class="cls-14" d="M2305.86,1112.88V882.43A27.12,27.12,0,0,1,2333,855.34h115.6a27.11,27.11,0,0,1,27.09,27.09v230.45a27.11,27.11,0,0,1-27.09,27.09H2333A27.12,27.12,0,0,1,2305.86,1112.88ZM2333,864.33a18.13,18.13,0,0,0-18.1,18.1v230.45A18.13,18.13,0,0,0,2333,1131h115.6a18.12,18.12,0,0,0,18.11-18.1V882.43a18.12,18.12,0,0,0-18.11-18.1Z"/>
          <rect class="cls-14" x="1981.78" y="859.83" width="293.42" height="23.97" rx="6.83" transform="translate(4256.98 1743.63) rotate(-180)"/>
          <path class="cls-14" d="M1988.61,908.52h279.75a6.83,6.83,0,0,1,6.83,6.83v10.3a6.83,6.83,0,0,1-6.83,6.83H1988.62a6.84,6.84,0,0,1-6.84-6.84v-10.3a6.83,6.83,0,0,1,6.83-6.83Z" transform="translate(4256.98 1841) rotate(-180)"/>
          <path class="cls-16" d="M1318.67,1483.64h188.59a10.57,10.57,0,0,1,10.57,10.57V1529a10.56,10.56,0,0,1-10.56,10.56h-188.6A10.56,10.56,0,0,1,1308.1,1529v-34.8A10.57,10.57,0,0,1,1318.67,1483.64Z" transform="translate(2825.92 3023.2) rotate(-180)"/>
          <path class="cls-14" d="M1318.66,1574.8h188.6a10.57,10.57,0,0,1,10.57,10.57v34.8a10.56,10.56,0,0,1-10.56,10.56H1318.66a10.56,10.56,0,0,1-10.56-10.56v-34.8a10.56,10.56,0,0,1,10.56-10.56Z" transform="translate(2825.92 3205.53) rotate(-180)"/>
          <path class="cls-13" d="M1318.66,1666h188.6a10.56,10.56,0,0,1,10.56,10.56v34.8a10.56,10.56,0,0,1-10.56,10.56h-188.6a10.57,10.57,0,0,1-10.57-10.57v-34.8a10.56,10.56,0,0,1,10.56-10.56Z" transform="translate(2825.92 3387.85) rotate(-180)"/>
          <path class="cls-16" d="M2421.22,788.92a25,25,0,1,0,25-25A25,25,0,0,0,2421.22,788.92Z"/>
          <path class="cls-23" d="M563.75,1609.5s-101.5,32.76-124.94,27c-12.38-3.06-31.75-20.62-49.74-39.56-3-3.14-5.92-6.31-8.79-9.46-19.84-21.84-36.06-42.64-36.06-42.64s-49.16-57.62-9.71-83.29a52.6,52.6,0,0,1,30.56,15.73c13.16,14.09,25.5,36.55,28.94,44.08s51.73,77.15,54.24,78.72,23.59-4,40.51-5.39c27.59-2.3,68.86-16.35,68.86-16.35Z"/>
          <path class="cls-13" d="M778.71,1755.44l-329.64,1.62a32.68,32.68,0,0,1-32.84-32.52l-1.08-220a32.69,32.69,0,0,1,32.51-32.85l329.65-1.62a32.68,32.68,0,0,1,32.84,32.52l1.08,219.95A32.69,32.69,0,0,1,778.71,1755.44Z"/>
          <path class="cls-16" d="M637.11,1733.33l-178.33.88A16.26,16.26,0,0,1,442.44,1718l-1-197.19a16.25,16.25,0,0,1,16.17-16.34l178.34-.87a16.25,16.25,0,0,1,16.34,16.18l1,197.17A16.28,16.28,0,0,1,637.11,1733.33Z"/>
          <path class="cls-16" d="M770.38,1733.27l-100,.49a4.57,4.57,0,0,1-4.6-4.55l-.12-25.91a4.57,4.57,0,0,1,4.55-4.59l100-.5a4.58,4.58,0,0,1,4.59,4.55l.13,25.92A4.57,4.57,0,0,1,770.38,1733.27Z"/>
          <path class="cls-16" d="M772.4,1687.63l-104.18.51a2.49,2.49,0,0,1-2.5-2.47l0-5.4a2.49,2.49,0,0,1,2.48-2.51l104.16-.51a2.49,2.49,0,0,1,2.5,2.48l0,5.4A2.48,2.48,0,0,1,772.4,1687.63Z"/>
          <path class="cls-24" d="M368.68,1573.94c-3-3.13-5.91-6.3-8.79-9.46,0,0,5.85-73.11,6.58-85.68C366.47,1478.8,385.27,1530.09,368.68,1573.94Z"/>
          <g>
            <path class="cls-16" d="M710.36,1592.33a48.16,48.16,0,0,0,60.46-26.17c.43-1,.82-2,1.19-3a48.22,48.22,0,1,0-61.65,29.17Zm-17.8-57.59a36.16,36.16,0,1,1,68.09,24.35c-.28.76-.58,1.52-.89,2.25a36.16,36.16,0,0,1-67.2-26.6Z"/>
            <path class="cls-25" d="M761.12,1536.14l11.52-3.6a48.27,48.27,0,0,0-44.59-33.83l-.37,12.06a36.18,36.18,0,0,1,33.44,25.37Z"/>
            <path class="cls-12" d="M759.76,1561.34l11.06,4.82c.43-1,.82-2,1.19-3a48.07,48.07,0,0,0,.63-30.62l-11.52,3.6a36.13,36.13,0,0,1-.47,22.95C760.37,1559.85,760.07,1560.61,759.76,1561.34Z"/>
          </g>
          <path class="cls-16" d="M747.48,1640.64a19.82,19.82,0,0,0,21.76-5.82,19.4,19.4,0,0,0,3.07-4.93c.18-.4.34-.82.49-1.24a19.8,19.8,0,0,0-12-25.32,20,20,0,0,0-6.08-1.15,19.81,19.81,0,0,0-7.26,38.46ZM740.17,1617a14.84,14.84,0,0,1,28.15.58,14.71,14.71,0,0,1-.18,9.42c-.12.32-.24.63-.37.93a15.15,15.15,0,0,1-2.3,3.7,14.85,14.85,0,0,1-25.3-14.63Z"/>
          <rect class="cls-14" x="2233.36" y="1006.75" width="35" height="128.73" transform="translate(4501.72 2142.23) rotate(-180)"/>
          <rect class="cls-14" x="2183.56" y="993.76" width="35" height="141.71" transform="translate(4402.12 2129.24) rotate(-180)"/>
          <rect class="cls-14" x="2133.1" y="1020.73" width="34.99" height="114.75" transform="translate(4301.18 2156.21) rotate(-180)"/>
          <rect class="cls-14" x="2082.63" y="967.55" width="35" height="167.93" transform="translate(4200.25 2103.03) rotate(-180)"/>
          <rect class="cls-14" x="2029.67" y="984.27" width="34.99" height="151.2" transform="translate(4094.33 2119.75) rotate(-180)"/>
          <g>
            <path class="cls-26" d="M273.56,2355.65c.4,4.18,2.72,6.87,6.4,8.48,0,0,0,0,.05,0,6.81,3,18.22,2.31,30.56.65,1.57-.21,3-.38,4.27-.5l1-.08.77-.06c12.28-.81,11.32,3,34.78,2.86,26.76-.14,35.8-9.15,37-13,1-3.26-10.68-5.79-23.78-8.7-.63-.14-1.26-.29-1.91-.42l-5.24-1.19c-15.61-3.66-31.07-8.29-36.18-23.29-5.42-15.91-4.14-63.11-4.14-63.11H269.79s12.43,52.15,11.13,67.18c-.71,8-4.55,10.3-6,17.26-.1.48-.2,1-.29,1.46C273.88,2347.29,273.17,2351.45,273.56,2355.65Z"/>
            <path class="cls-15" d="M218.44,1845.45c4,22.45,9.7,45.65,14.66,69.77,8,38.79,14,80,7.81,124.37a157.28,157.28,0,0,0-1.31,18.79c-1.19,78.43,33.85,220.56,33.85,220.56s9.52,4.1,25.47,3.31c8.21-.4,20.82-5.7,20.82-5.7s3.31-88.12,3.51-206.63c.15-85.9,17-199,20.42-265.46,2.06-40.23-2.41-93.81-2.41-93.81s-69.86-56.17-94.95-27.43C221.53,1711.62,203.48,1761.49,218.44,1845.45Z"/>
            <path class="cls-25" d="M240.91,2039.59a157.28,157.28,0,0,0-1.31,18.79c52.32-75.79,63.89-241.07,63.89-241.07L246,1845.2s-6.3,31-12.93,70C241.05,1954,247.06,1995.22,240.91,2039.59Z"/>
            <path class="cls-26" d="M122.44,2355.65c.38,4.18,2.71,6.87,6.39,8.48,0,0,0,0,0,0,6.81,3,18.22,2.31,30.55.65,1.58-.21,3-.38,4.28-.5l1-.08.77-.06c12.28-.81,11.32,3,34.78,2.86,26.75-.14,35.8-9.15,37-13,1-3.26-10.68-5.79-23.78-8.7-.63-.14-1.26-.29-1.91-.42l-5.24-1.19c-15.61-3.66-31.07-8.29-36.18-23.29-5.42-15.91,2.32-62.38,2.32-62.38l-43.89-3.67s2.73,53,1.42,68c-.7,8-4.78,12.43-6.26,19.39-.1.48-.2,1-.29,1.46C122.75,2347.29,122,2351.45,122.44,2355.65Z"/>
            <path class="cls-15" d="M128.62,2283s11.29,5.34,19.41,7,25-1.55,25-1.55c3-34.12,10.11-87.48,23.86-147.7,15.65-68.56,38.93-149.57,71.4-226.29,6.93-16.38,35.53-93.94,40.38-113.51,14.68-59.14-.06-52.77-.06-52.77l-128.25-15s-15.8,8.13-23.08,91.63c-2.18,25-2.45,133-5.73,153.45-3.11,19.39-6.75,35.51-11,46C116.71,2082.58,128.62,2283,128.62,2283Z"/>
            <path class="cls-24" d="M122.44,2355.65c.38,4.18,2.71,6.87,6.39,8.48,0,0,0,0,0,0,7.19,2.57,18.43,2,30.53.57,1.58-.18,3-.32,4.3-.42l1-.08.77-.06c12.28-.81,11.32,2.86,34.78,2.86,48.2,0,46.48-9.15,47.71-13,1-3.26-21.36-5.79-34.46-8.7a78.92,78.92,0,0,1-40.41,7.17c-18-1.73-36.41-8.95-49.33-10.74-.1.48-.2,1-.29,1.46C122.75,2347.29,122,2351.45,122.44,2355.65Z"/>
            <path class="cls-24" d="M273.56,2355.65c.4,4.18,2.72,6.87,6.4,8.48,0,0,0,0,.05,0,7.2,2.57,18.43,2,30.53.57,1.58-.18,3-.32,4.3-.42l1-.08.77-.06c12.28-.81,11.32,2.46,34.78,2.86,47.71.81,46.48-9.15,47.71-13,1-3.26-21.36-5.79-34.46-8.7a78.92,78.92,0,0,1-40.41,7.17c-18-1.73-36.41-8.95-49.33-10.74-.1.48-.2,1-.29,1.46C273.88,2347.29,273.17,2351.45,273.56,2355.65Z"/>
            <path class="cls-2" d="M324.87,1349c4.34-35.38-6.71-92-77.33-83s-92.87,78.44-78.63,109.3-20.5,38.3-31.4,71.48c-9.37,28.51-12.64,63.9-27.8,79.79-48.89,51.21,46.93,130,104.69,113.36,105.22-30.25,118.77-34.77,115-117.43-1.91-42.36-34.87-58.77-13.94-71C366,1421.92,315.07,1429.05,324.87,1349Z"/>
            <path class="cls-26" d="M221.08,1441.6l19.45,50.27,42,2.05,20.94-31.28c-13.21-10.05-18.8-25.13-20.85-38.63a110.2,110.2,0,0,1-.74-25.88c.28-2.7.56-4.28.56-4.28l-52.32-15.92-.19-.09c-.65,13.87-1.39,24.76-2.23,33.23C224.71,1441,221.08,1441.6,221.08,1441.6Z"/>
            <path class="cls-26" d="M303.65,1439.84c-2.71,0-48.56-9.34-126,10.48,0,0,42.42,194.32,28,230.94a387.26,387.26,0,0,0-19.89,69.13l156.31,1.94s-2.18-125.71,5-170.2S303.65,1439.84,303.65,1439.84Z"/>
            <path class="cls-23" d="M160.52,1460.1c17.24-16,54.42-17.51,54.42-17.51h0c7.73,12.09,34.16,42.15,67,36.73,17.7-2.92,21.29-34.75,21.69-39l-.11-.48.15,0v0l.37.07c5.17.77,46.3,7.46,58.51,28.47,18,31-9.43,129.52-9.53,129.35-2.21,29.59-4.42,61.79-2.13,87,1.74,19.19,3,60.76-.28,71.51-6.87,22.38-57.33,28.3-104.42,26-22.2-1.1-37.89-2.37-49.3-5-16.56-3.8-24.13-10.46-29.58-23.61-5.2-12.52,18.83-71.3,21.12-97,2.08-23.32-1.49-42.3-7.37-60.95C149.53,1532.54,141,1478.24,160.52,1460.1Z"/>
            <path class="cls-24" d="M167.29,1753.61c5.45,13.15,13,19.81,29.58,23.61,22.14-4.26,41.61-43.79,44.25-65,8.48-68.2-77.74-202.51-90.19-201.43-9.26.8,18,68.76,30.11,84.89,6,18.83,9.47,37.39,7.37,60.95C186.12,1682.31,162.09,1741.09,167.29,1753.61Z"/>
            <path class="cls-27" d="M230.11,1377.93c7.91,12.94,27,39.56,52.5,46.08a110.2,110.2,0,0,1-.74-25.88c.28-2.7.56-4.28.56-4.28Z"/>
            <path class="cls-26" d="M296.16,1397.4S233.26,1410,226,1370.74s-20.27-64.12,19.58-73.84,50.45,3.82,56.06,16.34S312.34,1393.11,296.16,1397.4Z"/>
            <path class="cls-2" d="M265.42,1287.09s1.11,13.32-19.58,35.94-16.65,68.34-16.65,68.34-34-70.94-15.37-91.87S265.42,1287.09,265.42,1287.09Z"/>
            <path class="cls-2" d="M240.13,1269.75s31.27-10.47,62.3,20.11c13.37,13.17,11.35,39.07,4.19,54.09,0,0-11-32.19-31-39.22S240.13,1269.75,240.13,1269.75Z"/>
            <path class="cls-16" d="M276.57,1378.07s1.68,4.67,13.52,2.55c0,0,9.94-1.78,9-7C299.12,1373.61,289,1371,276.57,1378.07Z"/>
          </g>
          <g>
            <path class="cls-5" d="M400,1626.68s4.3,1,7.61-.54c5.69-2.66,9.4-11.41,17.93-8.9s6.79,30.55,3.52,35.23-15.85,4.71-32.89-2.61S400,1626.68,400,1626.68Z"/>
            <path class="cls-5" d="M422.5,1616.79a278.81,278.81,0,0,1,28.42-1.66c13.2-.05,28.47,2.26,29.47,4.75,1.12,2.78-13.26,1.94-26.37,2.82-12.07.83-9.61,2.59-9.61,2.59s-.67-.54,12.59,1c14.25,1.66,28.64,4.74,29.47,7.84.4,1.51-.28,2.32-5.58,2.53,3.06.49,3.31,1.38,3.18,2.62-.74,6.42-22.2,7.1-30.71,7.38,6.54-.17,11.34.37,8.2,4.11-3.58,4.28-33.92,4-44.83,4.83C404.83,1656.55,422.5,1616.79,422.5,1616.79Z"/>
          </g>
          <path class="cls-24" d="M229,1641.8s13.64,24.9,39.32,29.9,81.71-2.81,81.71-2.81l-2.21-27.09s-135.28-39.65-134.93-26.67S229,1641.8,229,1641.8Z"/>
          <path class="cls-24" d="M220.41,1506.57s55.65,108.45,67.46,108.56,63.25,9.9,63.25,9.9l-6.91,39S247.62,1678.75,220.41,1506.57Z"/>
          <path class="cls-23" d="M169.51,1455.06s23.31,4.3,34.83,22.27,23.31,43.55,25.56,52.42,46,90.34,48.39,92.54,26.51.37,45.22,2.2c30.51,3,78.28-4.11,78.28-4.11l.47,35.19s-117.12,15.48-141.49,4.52C231,1646.71,158.84,1546,158.84,1546S121.42,1475.19,169.51,1455.06Z"/>
        </g>
        <path class="cls-2" d="M3297.68,2367.14v1.38a3.9,3.9,0,0,1-3.74,4H9.25a3.89,3.89,0,0,1-3.73-4v-1.38a3.9,3.9,0,0,1,3.73-4H3293.94A3.91,3.91,0,0,1,3297.68,2367.14Z"/>
        <path class="cls-16" d="M1788.23,393.33H1887a18,18,0,0,0,18-18h0a18,18,0,0,0-18-18h-98.78a18,18,0,0,0-18,18h0A18,18,0,0,0,1788.23,393.33Z"/>
        <path class="cls-16" d="M1788.23,460.58H1887a18,18,0,0,0,18-18h0a18,18,0,0,0-18-18h-98.78a18,18,0,0,0-18,18h0A18,18,0,0,0,1788.23,460.58Z"/>
        <path class="cls-16" d="M1788.23,527.83H1887a18,18,0,0,0,18-18h0a18,18,0,0,0-18-18h-98.78a18,18,0,0,0-18,18h0A18,18,0,0,0,1788.23,527.83Z"/>
        <g>
          <path class="cls-12" d="M2235.46,561.06v83.72a10.2,10.2,0,0,1-.62,3.51,10.36,10.36,0,0,1-9.74,6.85H2079.7a10.36,10.36,0,0,1-10.34-10.36V561.09a10.35,10.35,0,0,1,10.34-10.36h145.4A10.36,10.36,0,0,1,2235.46,561.06Z"/>
          <g>
            <path class="cls-28" d="M2234.84,648.29a10.36,10.36,0,0,1-9.74,6.85H2079.7a10.35,10.35,0,0,1-9.75-6.91l86.29-42.77Z"/>
            <path class="cls-29" d="M2235.46,561.06l-81.54,57.49-84.56-53.18v-4.28a10.35,10.35,0,0,1,10.34-10.36h145.4A10.36,10.36,0,0,1,2235.46,561.06Z"/>
          </g>
        </g>
        <g>
          <rect class="cls-14" x="2697.48" y="1050.14" width="324.83" height="133.85" rx="13.85" transform="translate(5719.79 2234.14) rotate(180)"/>
          <path class="cls-14" d="M2983.08,1163.8v73.85l-85.1-85.1S2981.35,1163.8,2983.08,1163.8Z"/>
          <rect class="cls-16" x="2714.28" y="1063.41" width="291.23" height="107.31" rx="11.74" transform="translate(5719.79 2234.14) rotate(180)"/>
          <path class="cls-14" d="M2871.15,1090H2739.6a5.77,5.77,0,0,1,0-11.54h131.55a5.77,5.77,0,0,1,0,11.54Z"/>
          <rect class="cls-14" x="2733.83" y="1105.53" width="250.4" height="6.48" rx="3.21"/>
          <rect class="cls-14" x="2733.83" y="1118.09" width="250.4" height="6.48" rx="3.21"/>
        </g>
      </g>
    </g>
  </g>
</svg>
