<svg xmlns="http://www.w3.org/2000/svg" viewBox="0 0 3299.52 2372.53">
  <defs>
    <style>
      .cls-1 {
        fill: #def4f9;
      }

      .cls-2 {
        fill: #9cd499;
      }

      .cls-3 {
        fill: #b6b6b6;
      }

      .cls-4 {
        opacity: 0.43;
      }

      .cls-5 {
        fill: #f39892;
      }

      .cls-6 {
        fill: #ffdb73;
      }

      .cls-7 {
        fill: #aeddf1;
      }

      .cls-8 {
        fill: #1470b3;
      }

      .cls-9 {
        fill: #35abdd;
      }

      .cls-10 {
        fill: #12789b;
      }

      .cls-11 {
        fill: #d54a41;
      }

      .cls-12 {
        fill: #ffb27d;
      }

      .cls-13 {
        fill: #6791c9;
      }

      .cls-14 {
        fill: #404040;
      }

      .cls-15 {
        fill: #75a1de;
      }

      .cls-16 {
        fill: #f37168;
      }

      .cls-17 {
        fill: #e2915a;
      }

      .cls-18 {
        fill: #fff;
      }

      .cls-19 {
        fill: #1069a0;
      }

      .cls-20 {
        fill: #c75454;
      }

      .cls-21 {
        fill: #393d3f;
      }

      .cls-22 {
        fill: #74b570;
      }

      .cls-23 {
        fill: #394762;
      }

      .cls-24 {
        fill: #486b89;
      }

      .cls-25 {
        fill: #eedfd7;
      }

      .cls-26 {
        fill: #586e9a;
      }

      .cls-27 {
        fill: #e6d8d1;
      }

      .cls-28 {
        fill: #c3b8b1;
      }

      .cls-29 {
        fill: #273041;
      }

      .cls-30 {
        fill: #807f7d;
      }

      .cls-31 {
        fill: #2e3048;
      }

      .cls-32 {
        fill: #c7c5ce;
      }

      .cls-33 {
        fill: #232536;
      }

      .cls-34 {
        fill: #363957;
      }

      .cls-35 {
        fill: #b68b72;
      }

      .cls-36 {
        fill: #9d9ca3;
      }

      .cls-37 {
        fill: #e7e4f0;
      }

      .cls-38 {
        fill: #3e4265;
      }

      .cls-39 {
        fill: #ebddd6;
      }

      .cls-40 {
        fill: #cfc3bc;
      }

      .cls-41 {
        fill: #e9a55b;
      }

      .cls-42 {
        fill: #e8a35b;
      }

      .cls-43 {
        fill: #838383;
      }

      .cls-44 {
        fill: #dcd0c8;
      }

      .cls-45 {
        fill: #222333;
      }

      .cls-46 {
        fill: #292a3f;
      }

      .cls-47 {
        fill: #2d2f46;
      }

      .cls-48 {
        fill: #525686;
      }

      .cls-49 {
        fill: #cfc3bd;
      }

      .cls-50 {
        fill: #477ee1;
      }

      .cls-51 {
        fill: #cb4949;
      }

      .cls-52 {
        fill: #c4957a;
      }

      .cls-53 {
        fill: #191a24;
      }

      .cls-54 {
        fill: #8e633f;
      }

      .cls-55 {
        fill: #765334;
      }

      .cls-56 {
        fill: #b27a4b;
      }
    </style>
  </defs>
  <g id="Layer_2" data-name="Layer 2">
    <g id="Layer_3" data-name="Layer 3">
      <path class="cls-1" d="M2977.44,966.84a249.37,249.37,0,0,0,38-132.58c0-138.41-112.21-250.62-250.64-250.62A249.7,249.7,0,0,0,2596,649c-62.35-101.47-174.37-169.15-302.19-169.15a352.82,352.82,0,0,0-192.65,56.9C2068.17,234.88,1812.44,0,1501.81,0,1285.23,0,1095.34,114.2,989,285.66a352.83,352.83,0,0,0-157.93-37.07c-195.76,0-354.44,158.68-354.44,354.44a352.87,352.87,0,0,0,40.69,165c-13.41-1.14-27-1.75-40.69-1.75-262.22,0-474.8,212.57-474.8,474.79s212.58,474.8,474.8,474.8h2416.7c209.42,0,379.19-169.78,379.19-379.2C3272.53,1156.15,3146.39,1005.1,2977.44,966.84Z"/>
      <g>
        <g>
          <rect class="cls-2" x="1760.33" y="1312.55" width="6.78" height="711.02"/>
          <rect class="cls-2" x="1278.46" y="1312.55" width="6.78" height="711.02"/>
          <rect class="cls-2" x="2130.17" y="1224.93" width="115.42" height="18.53" transform="translate(4375.76 2468.4) rotate(180)"/>
          <rect class="cls-2" x="2081.87" y="1259.19" width="163.72" height="18.54" transform="translate(4327.46 2536.92) rotate(180)"/>
          <rect class="cls-2" x="1633.41" y="1224.93" width="135.51" height="18.53" transform="translate(3402.33 2468.4) rotate(180)"/>
          <rect class="cls-2" x="1682.27" y="1259.19" width="86.64" height="18.54" transform="translate(3451.19 2536.92) rotate(180)"/>
          <rect class="cls-2" x="1194.5" y="1224.93" width="83.97" height="18.53" transform="translate(2472.96 2468.4) rotate(180)"/>
          <rect class="cls-2" x="1180.6" y="1259.19" width="97.87" height="18.54" transform="translate(2459.06 2536.92) rotate(180)"/>
          <rect class="cls-2" x="674.29" y="1224.93" width="122.31" height="18.53" transform="translate(1470.88 2468.4) rotate(180)"/>
          <rect class="cls-2" x="698.73" y="1259.19" width="97.87" height="18.54" transform="translate(1495.32 2536.92) rotate(180)"/>
          <rect class="cls-3" x="1687.06" y="2065.7" width="76.67" height="24.71" transform="translate(3450.78 4156.1) rotate(180)"/>
          <rect class="cls-3" x="1201.8" y="2065.7" width="76.67" height="24.71" transform="translate(2480.26 4156.1) rotate(180)"/>
          <rect class="cls-3" x="719.93" y="2065.7" width="76.66" height="24.71" transform="translate(1516.53 4156.1) rotate(180)"/>
          <g class="cls-4">
            <path class="cls-5" d="M449.89,1810.17c150.3,0,281-65,417.16-132.7,168.15-83.62,342-170.08,573.69-146.41,147.93,15.12,240.79,75.37,322.71,128.52,74.18,48.13,144.3,90.45,239.29,94.06,153.49,5.85,206.74-59.62,207.64-63.62v-42h0c-.2.73-33.71,74.2-207.48,73.34-85.58-.44-148.74-41.41-221.87-88.86-85-55.14-181.32-117.65-337-133.56-241-24.62-419.09,64-591.35,149.62-180.26,89.63-352.27,173.7-569.77,100.77v34.54C344.9,1804.64,394.49,1810.17,449.89,1810.17Z"/>
          </g>
          <path class="cls-6" d="M1387.26,1804.27c110.94,0,198.93-74.61,285.07-147.65,65.32-55.37,133.09-112,211.31-139.93,238.73-85.23,360.85,70.41,362,71.78v-47.34c-1.29-1.63-23.08-29.91-86.1-56.92-57.39-24.59-153.67-44.21-286.46,2-84.14,29.26-154,88.5-221.58,145.79-137.08,116.22-255.46,216.59-461,59.37-155.72-119.07-302.5-232.53-446.93-274-141.26-40.54-288.53-10.86-426.38,127l1,43c292.82-294.12,542.16-107.78,852.67,129.66C1253,1779.9,1323.9,1804.26,1387.26,1804.27Z"/>
        </g>
        <polygon class="cls-7" points="1371.09 1151.2 1366.2 1145.45 1447.37 1076.3 1496.67 1076.3 1608.52 981.01 1678.48 1040.61 1730.06 1040.61 1756.14 1062.82 1837.15 993.81 1878.27 993.81 2048.74 848.58 2053.63 854.32 1881.04 1001.35 1839.93 1001.35 1756.14 1072.73 1727.29 1048.15 1675.7 1048.15 1608.52 990.92 1499.44 1083.85 1450.15 1083.85 1371.09 1151.2"/>
        <polygon class="cls-7" points="1382.82 1055.68 1354.76 1055.68 1354.76 1048.13 1379.69 1048.13 1421.82 1006.01 1452.45 1036.64 1525.61 963.47 1548.12 985.98 1622.3 911.79 1666.76 956.25 1717.44 956.25 1795.67 878.02 1863.14 878.02 1913.01 828.14 1974.06 828.14 2034.64 767.57 2039.98 772.9 1977.19 835.68 1916.14 835.68 1866.26 885.56 1798.79 885.56 1720.57 963.79 1663.63 963.79 1622.3 922.46 1548.12 996.64 1525.61 974.14 1452.45 1047.31 1421.82 1016.68 1382.82 1055.68"/>
        <path class="cls-7" d="M541.34,1547.22c42.53,158.07,124.4,295,232.22,403.14l-43.21,60,179,128.91,38-52.75c203.48,122.77,454.73,165.67,702.37,99,482.25-129.78,768-625.94,638.16-1108.34C2210.55,789.79,2003,572,1745.72,470.82c-.14-.05-.27-.12-.41-.16a900.81,900.81,0,0,0-219.43-56.08l-.16,0-.3,0A906.52,906.52,0,0,0,1046,486.5h0C797.17,597.16,617.1,812.22,545,1063.84c-.05.16-.09.32-.14.48C501.1,1216.8,497.1,1382.84,541.34,1547.22ZM823,1143.08q5.61-19.53,12.55-38.93C894.4,939.85,1016,816.07,1163.69,750.1a612.9,612.9,0,0,1,458.25-17.39q8.93,3.19,17.67,6.64c308.15,121,466.22,466,353.77,779.77-114.58,319.73-466.68,486-786.41,371.43C900.17,1780.6,734.66,1452,823,1143.08Z"/>
        <path class="cls-8" d="M2462.3,1013.05l-178.25,50.79-278,79.24q-5.6-19.53-12.55-38.93C1934.6,939.85,1813,816.07,1665.32,750.1L1783,486.5h0l12.38-27.75,63.26-141.68C2158.55,450.44,2375.51,709.75,2462.3,1013.05Z"/>
        <path class="cls-9" d="M1795.44,458.75l-12.38,27.75L1665.32,750.1A613.77,613.77,0,0,0,1339,701.17l-35.45-286.59-3.71-30.05a937.59,937.59,0,0,1,495.56,74.22Z"/>
        <path class="cls-10" d="M1339,701.17a616.31,616.31,0,0,0-132,31.54q-8.93,3.19-17.67,6.64l-105.7-268.69-32-81.33a986.92,986.92,0,0,1,241-61.64l.18.05,7,56.79,3.71,30.05Z"/>
        <polygon class="cls-8" points="783.7 2372.53 939.65 2155.97 704.91 1986.95 430.63 2367.83 783.7 2372.53"/>
        <g>
          <g>
            <g>
              <path class="cls-11" d="M1221.63,265.38s-12.84-23.58-20.15-32.06-31.58-14.85-28.28-25.69,35.83-6.13,44.78,4.48,36.3,14.37,37.24,18.85-9.49,29-15.35,33S1221.63,265.38,1221.63,265.38Z"/>
              <path class="cls-11" d="M1167,285.35s-20.92-16.59-31-21.48-34.88-1.08-36.16-12.35,30.45-19.85,42.88-13.67,39-1.22,41.66,2.52,2.8,30.37-1,36.38S1167,285.35,1167,285.35Z"/>
              <path class="cls-12" d="M1213.5,328.54s9.14-62.47,8.72-73.3c-.11-3.1,18.8-2,17.92,4-1.93,13,6.8,63.17,5.28,72.36S1212.73,334.33,1213.5,328.54Z"/>
              <path class="cls-12" d="M1184.88,346.49s-17.11-60.65-21.1-70.74c-1.78-4.49,15.67-11.44,18-3.43,3.71,12.56,31.33,55.27,33.59,64.3S1186.47,352.11,1184.88,346.49Z"/>
              <path class="cls-13" d="M1196.77,388.64s-18.38-62-21.21-68.59l29-17.91s13.43,39.59,15.32,49.49S1196.77,388.64,1196.77,388.64Z"/>
              <path class="cls-14" d="M1709.93,224.86s-28,7.08-41.32,28.25-24.82,45.55-49.85,56.62-25.19,39.56-23.24,44,78.83,90.82,95.61,94.16,48.19,1,44.83-21.19-36.28-70-17.81-94.08,23.14-46.3,23.14-46.3Z"/>
              <path class="cls-12" d="M1705.05,328.22a10.67,10.67,0,0,0-2.19-.39,15.86,15.86,0,0,0-6.55.78,15.24,15.24,0,0,0-2.56,1.27c-6.65,3.92-22.39,14.57-24.52,14.82-2.46.29-.39-36.43-.39-36.43s8.39-14.83,9.44-24.59S1705.05,328.22,1705.05,328.22Z"/>
              <path class="cls-15" d="M1508.12,366.6s-30.76-21.56-66.82-14.85-40,23.58-52.32,24.34-53.74-2.77-87.68,7.13-62.58,11-66.47,8.13S1256,332,1256,324.18l-42.07-11s-12,50.2-16.73,61.51c-5,12.1-14.73,34.89-.94,54.68s52.32,10.88,75.66,14.87,127.77,1.43,146,.45c19.8-1.06,79.54-3.88,79.54-3.88Z"/>
              <path class="cls-12" d="M1760.74,254.82s2,30.39-4.79,39.5a43.31,43.31,0,0,1-5.75,6.7,13.31,13.31,0,0,0-3.85,5.57c-2.08,5.84-3.37,14.07-5,15.82-1.81,1.92-7-3-9-3s-20.41,16-24.84,12.69-31.43-30.67-29.16-49.45,10.56-46.84,41-46.66S1758.41,247.27,1760.74,254.82Z"/>
              <path class="cls-16" d="M1668.86,399.83c-.58,1.25-11.76,19.1-24,29.46-5.08,4.3-10.34,7.31-15.11,7.31q-2.19,0-4.26.06c-14,.37-24.85,2.53-43.83,3.48-19.71,1-67.52-1.77-68.94-1.77s-15.2,2.48-15.2,2.48c-5-6,8.13-73.9,10.61-74.25s18.38,5.66,33.58,3.18,21.22-3.89,43.84-30.4,45.26-33.23,54.8-31.11,28.52,0,28.52,0S1669.69,398.07,1668.86,399.83Z"/>
              <path class="cls-14" d="M1748,276.58s5.67,14.68,8.67,16.7c0,0,10.93-11.56,3.91-40.09S1727,222,1709.93,224.86c-21.29,3.61-42.72,75.63-41.61,82.65s25-37.22,45.85-33.66S1735.24,278.57,1748,276.58Z"/>
              <path class="cls-17" d="M1702.86,327.83a16.21,16.21,0,0,0-6.53.9,13.35,13.35,0,0,0-2.58,1.15c-4.89-7.62-9.42-25.7-9.57-26.31C1687.45,310.53,1702.86,327.83,1702.86,327.83Z"/>
              <path class="cls-11" d="M1644.85,429.29c-5.08,4.3-10.34,7.31-15.11,7.31q-2.19,0-4.26.06l6.94-56.27Z"/>
              <path class="cls-12" d="M1754.86,526.19l-13.57,12.34c-11.71-6.27-41-27.38-46.69-32.19-5.92-5-45.4-38.06-50.82-45.59s-12.39-85.29-11.69-88.86,34.32-5.32,38.14,2.91c0,0,1.75,44.36,2.66,51.78a38.35,38.35,0,0,0,8.79,20.38c7,8.65,22,28.72,36.58,45C1721.73,495.78,1750.38,522.33,1754.86,526.19Z"/>
              <path class="cls-16" d="M1673,375.79s2.12-59.06-17.09-58.33c-24.29.92-27.93,30.64-24.63,62.93C1631.27,380.39,1667.57,380.74,1673,375.79Z"/>
              <path class="cls-12" d="M1748.32,520.41a10.1,10.1,0,0,0,4.43,3.73c4.52,1.52,11.2-1.42,14.5,4.51s-12.62,20.71-16.9,21.61-11.13-5.76-16.49-18.89S1748.32,520.41,1748.32,520.41Z"/>
              <path class="cls-12" d="M1765.85,526.8a205.07,205.07,0,0,1,16.34,14.12c7.21,7,14.53,16.11,12.69,17.84-2.53,2.35-7.45-5.5-15.05-12-7-5.94-6.6-3.64-6.6-3.64s-.08-.66,6.31,7.23c6.86,8.48,14,18.55,11.84,20-1.33.91-1.39,1.15-4.39-1.54,1.39,1.9,1.07,2.53.33,3.15-3.83,3.21-15.86-7.77-20.64-12.14,3.65,3.38,6,6.22,2.27,6.66-4.24.5-20.56-15.76-27-21C1735,539.72,1765.85,526.8,1765.85,526.8Z"/>
            </g>
            <path class="cls-8" d="M1521.94,369.3s-6.49,46.49-3.29,69.35c0,0,3.38,2.52,10.11.48,0,0,1.68-50.74,5.45-68.75C1534.21,370.38,1532.14,368.81,1521.94,369.3Z"/>
          </g>
          <path class="cls-8" d="M1528.5.59l-5-.21V404.46h5Z"/>
        </g>
        <g>
          <rect class="cls-18" x="423.52" y="1881.76" width="97.3" height="6.82"/>
          <rect class="cls-18" x="423.52" y="1894.61" width="97.3" height="28.68"/>
          <rect class="cls-18" x="509.13" y="1932.93" width="57.4" height="4.28"/>
          <rect class="cls-18" x="509.13" y="1939.09" width="57.4" height="11.61"/>
          <rect class="cls-18" x="403.26" y="1845" width="4.28" height="80.35"/>
        </g>
        <g>
          <polygon class="cls-14" points="1710.21 2003.52 1337.94 2003.52 1455.27 2363.84 1444.29 2367.41 1322.05 1991.99 1718.58 1991.99 1839.67 2363.84 1828.69 2367.41 1710.21 2003.52"/>
          <polygon class="cls-14" points="1583.51 2363.84 1700.83 2003.52 1328.57 2003.52 1210.08 2367.41 1199.11 2363.84 1320.19 1991.99 1716.73 1991.99 1594.48 2367.41 1583.51 2363.84"/>
          <rect class="cls-14" x="1289.2" y="2105.44" width="455.64" height="11.54"/>
          <rect class="cls-14" x="1246.64" y="2230.73" width="545.14" height="11.54"/>
        </g>
        <g>
          <path class="cls-12" d="M1523.66,1181.19s-9.28-16.24,5.44-59.76c14.24-42.1,63.51-38.28,79.17-11.31s10.36,43.71-12.69,74.16S1533.23,1195.11,1523.66,1181.19Z"/>
          <path class="cls-12" d="M1638.11,1930s2.44,17.88,2.74,20.56S1668,1949,1668,1949l2.17-21.28S1641.46,1927.49,1638.11,1930Z"/>
          <path class="cls-14" d="M1640.57,1948.3s-8.5,10.77-16.72,15.47-21.13,6.55-26,11.41c-3.51,3.5-12.78,18.61,21.35,18.3s50.59,2.14,54.25-3.66-5.29-42.73-5.29-42.73S1659.81,1949.45,1640.57,1948.3Z"/>
          <path class="cls-12" d="M1452.42,1930s2.44,17.88,2.74,20.56,27.13-1.58,27.13-1.58l2.17-21.28S1455.77,1927.49,1452.42,1930Z"/>
          <path class="cls-14" d="M1454.88,1948.3s-8.5,10.77-16.72,15.47-38.46,8.54-43.32,13.41c-3.5,3.5-9.34,17.62,38.69,16.3,34.12-.93,50.59,2.14,54.24-3.66s-5.29-42.73-5.29-42.73S1471.88,1949,1454.88,1948.3Z"/>
          <path class="cls-9" d="M1629.08,1484.94s13.75,42.73,11.94,79.55,7.11,77.12,10.75,115.58c4.07,42.89,20.71,144.41,21.31,167.35s-2.58,96.18-2.58,96.18l-33.3.81s-28-177.48-35.22-195.59-43.17-147.22-44.37-161.71S1629.08,1484.94,1629.08,1484.94Z"/>
          <path class="cls-9" d="M1491,1480.49s-20.22,113-22.63,135.52-4,109.06-5.24,123.15-8.05,184.32-14.49,205.25h37.14s38.12-123.76,38.12-182.31,25.25-127.3,41.55-165.93,53.61-39.55,63.63-111.23C1629.08,1484.94,1504.56,1457.76,1491,1480.49Z"/>
          <path class="cls-12" d="M1537.13,1192.68s4.19,12.19,0,20.89,53.52,3.48,53.52,3.48-2.61-18,4.93-32.77S1537.13,1192.68,1537.13,1192.68Z"/>
          <path class="cls-10" d="M1631.75,1494.25s-20.75,21.32-142.61-3.32l1.86-10.44,138.53,5.21Z"/>
          <path class="cls-12" d="M1528.4,1216.4s-21.31,2.17-27.4,3.33-47.08-7.33-55.49-8.2-44.27-25.44-45.43-28.34-21.82-55.2-23-66.51-20.12-5.47-18.49,2.33c3,14.57,7,50,9.09,60.22,2.31,11.07,8.5,36.16,12,39.24s35.77,27.65,67.38,38.09a269,269,0,0,1,55.4,25.8h155.78s60.59-86.6,61.89-99.65-42.32-99.78-51-110.66-21.28,3.55-21.28,3.55,26.07,76.49,29.55,87.36-30.32,58.65-39.6,58.8-33.11-2.9-43.7-3.33-21.74-5.08-21.74-5.08Z"/>
          <path class="cls-8" d="M1461.27,1274.25s19.07,12.67,20.81,34.42,8.7,56.11,12.18,67.86-3,97-3.92,103.09,120.54,20.56,139.19,6.08c0,0,5.22-79.59,7.39-102.21s12.62-77.42,16.1-84.82,45.67-66.58,47.41-74.38c0,0-21.83-34.8-37.49-35.23,0,0-24.87,29.14-33,30.45s-57.82-7.81-57.82-7.88-5.43,7.38-34.27-1.32c0,0-34.34,3.88-39.93,4.59-6.76.87-53.79-5.9-53.79-5.9s-18.87,31.86-15.56,47.94Z"/>
          <path class="cls-12" d="M1378.19,1123.48s-4.25-20.16.88-26c2.91-3.29,9.93-12,10.57-13.3s8.17-5.61,8.17-7.69-7.37-4.64-13.78,1.28-10.41,7.22-13,6.57-6.25-22-6.57-27.24-2.36-19.23-5.66-18.26-3.15,7-3.15,7-3.85-10.58-6.41-8.5-2.24,7.22-2.24,7.22-4.81-5.93-6.09-1.61a15,15,0,0,0,0,8.17s-5-2.72-5.29,4,1.44,26.44,5,33.49,16.72,25.49,18.29,32.69S1378.19,1123.48,1378.19,1123.48Z"/>
          <path class="cls-12" d="M1652.08,1088.07s-14.5-24.36-19.43-26.53-11.88-3.41-18-7.76-14.13-8-13.7-9.42,7.62-.87,15.3,2.46,11.06,1.73,11.78,0-4.1-14-6.42-16.93-18.84-19.53-16.09-22,13.48,6.67,15.23,8.56c0,0-8.56-18-5.23-18.85s9.57,5.51,9.57,5.51-.72-15.37,15.81,9.56c0,0-3.48-8.26,1.59-5.51s10,18.28,11.6,26.1,8.83,32.78,15,38.79S1652.08,1088.07,1652.08,1088.07Z"/>
          <path class="cls-14" d="M1595.58,1184.28s-7.63.68-23.87-4.93-17.45-34-21-30.64c-7.16,6.86-13.93,2.12-16.64-1.93,0,0,7.93-10.44,4.26-15.47a39,39,0,0,0-9.66-8.7s11.43-55,63.4-30C1653,1122,1595.58,1184.28,1595.58,1184.28Z"/>
          <path class="cls-19" d="M1537.13,1213.57l1.84-8s33.17-.67,51.27,2l1.91,9.52S1569,1227.59,1537.13,1213.57Z"/>
          <path class="cls-12" d="M1545.32,1141.75c3-5,14.15-8.39,15.46,5.8,1,11-19.91,23-20.1,12.76S1543.31,1145.08,1545.32,1141.75Z"/>
          <path class="cls-20" d="M1377.4,1118.9s-12,.3-17.77,5.54a11.94,11.94,0,0,0,1,6s10.37-4.84,18.33-5.75C1378.93,1124.65,1378.8,1120.3,1377.4,1118.9Z"/>
          <path class="cls-21" d="M1363.29,1121.88a5.15,5.15,0,1,0,6.75-2.73A5.16,5.16,0,0,0,1363.29,1121.88Z"/>
        </g>
        <g>
          <path class="cls-22" d="M175,2038.81c-22.46,20.51-12.7,41,3.9,79.1s19.53,178.68,19.53,178.68l-13.67-2s1.95-144.51-16.6-183.57-26.36-58.59-43-45.89S175,2038.81,175,2038.81Z"/>
          <path class="cls-2" d="M187.37,2012.27c-2.73-12.16-18.92-25.3-40.58-36.46,3.22,17.93,13.54,47.23,2.86,53.24-14.41,8.11-1.41-32.81-7-55.3a267.31,267.31,0,0,0-67.33-22.08l.09.24c12.69,32.22,29.29,44.92,22.46,49.8-5.14,3.67-21.89-33.55-44-52.63-16.6-.88-30.65,1.37-38.95,8-12.85,10.16-21.47,19.18-8.55,50.14a58,58,0,0,0,28,10.16c29.29,2.93,43,3.91,22.46,13.67-10,4.79-26.87-.27-40.52-3.34,4.43,8.15,9.87,17.39,16.48,27.9A104.07,104.07,0,0,0,46.57,2073c9.45,1.81,17.68,1.83,22,0,13.66-5.86,48.82-24.41,57.6-16.6,8.61,7.65-65.1,12.49-60,31.92,35.72,20.58,76.6,10.79,83.83-8.11C159.75,2054.82,195.58,2048.84,187.37,2012.27Z"/>
          <path class="cls-22" d="M113.52,2151.1c39.06-29.29,79.09-1.95,99.6,29.3S219,2282,219,2282s-7.82,0-7.82-2.93,21.49-83-29.29-119.13c-31.76-22.6-54.68-11.72-57.61-1S137,2189.18,137,2189.18Z"/>
          <path class="cls-2" d="M203.35,2090.89c-39,0-51.75,60.54-41,95.69s25.39,100.57,25.39,100.57l9.76-9.76s-37.1-91.79-28.31-132.8,30.27-47.84,34.17-47.84S203.35,2090.89,203.35,2090.89Z"/>
          <path class="cls-22" d="M170.59,2186.85a28.28,28.28,0,0,0-10.28-8.64,79.39,79.39,0,0,0,2,8.37c4.9,16,10.6,38.31,15.36,57.85.43-2.51,1.1-6.36,2.13-12.31.24-1.4.43-2.93.57-4.54A378.75,378.75,0,0,1,170.59,2186.85Z"/>
          <path class="cls-2" d="M159.92,2187.15C85.71,2155.9,124.8,2113,59.38,2141.34c-4.6,2-10.22,7-15.84,14A48.69,48.69,0,0,0,64.27,2157c19.52-2.93,12.69,12.7-19.53,16.6a72.22,72.22,0,0,0-15.1,3.19c-15.35,29.48-22.27,68.28,10.21,81.76,6.41,2.66,14.32,4.18,23.12,4.75,10-8-2.44-54.07,13-47.71,14.84,6.11-4.65,39.52-2,47.94a214.3,214.3,0,0,0,46.36-6.5c6.13-3.43,10.81-8,12.26-14.1,4.88-20.51-27.34-33.2-28.32-50.78-.9-16.15,11.81,35.55,45.48,43.16C180.22,2221.05,194.6,2201.75,159.92,2187.15Z"/>
          <path class="cls-2" d="M212.79,2131.9c-7.81-16.6,12.69-20.5,11.72-7.81-.87,11.25-1,38.59,10.57,46,19.9-2.15,47-10.17,67.43-22.39a8.27,8.27,0,0,0-.86-5.09c-8.79-17.57-65.42-32.22-47.85-38.08,14-4.67,38.53,22.88,58.29,36.75,11.87-9,19.83-19.75,19.83-31.73,0-16.22-19.71-34.58-45.2-43.36-11.48,1.15-22.13,7.43-38.78,16.86-24.59,13.93-18.9-8.59,4.35-22-20.07,1-40.08,9.62-54.84,30.1,0,0,1.4,8.76-7.87,22.3-25.28,37,3.9,58.53,38.77,57.13C226.38,2160.9,218.19,2143.37,212.79,2131.9Z"/>
          <path class="cls-22" d="M115.87,2149.45c-19.09,14.75-40.31,32-66.35,43.72s-20.83,49.91-20.83,49.91-3.9-33,17.8-44.27,36-24.73,52.51-27.34a238.9,238.9,0,0,0,25.6-5.2s-5.2-10.42-2.17-14.33S115.87,2149.45,115.87,2149.45Z"/>
          <path class="cls-22" d="M21.75,1976.18c69.87,18.66,121.08,63.36,130.63,74.21s9.55,13.89,9.55,13.89l-7.38,13.89-3.47-1.74s5.64-11.72-9.12-26.91c-25.44-26.19-56.41-46.87-77.68-56S21.75,1976.18,21.75,1976.18Z"/>
          <path class="cls-6" d="M153.55,2267.23H249a0,0,0,0,1,0,0v61.33a34.37,34.37,0,0,1-34.37,34.37H187.92a34.37,34.37,0,0,1-34.37-34.37v-61.33A0,0,0,0,1,153.55,2267.23Z"/>
          <rect class="cls-18" x="153.55" y="2278.2" width="95.44" height="6.72" transform="translate(402.54 4563.11) rotate(-180)"/>
          <rect class="cls-18" x="153.55" y="2290.45" width="95.44" height="3.95" transform="translate(402.54 4584.84) rotate(-180)"/>
        </g>
        <g>
          <path class="cls-12" d="M606.45,1573.47l-30,32.29c1.24-4.35,3-11.67.68-12-3.28-.54-8.5,12.54-11.89,16.53-3.11,3.65-8.39,7.3-8.72,8.37l-7.2,7,15.7,13.81s24.78-18.19,30.13-22.63c8.67-7.22,16.26-38.93,15.27-40.79C608.6,1572.64,606.45,1573.47,606.45,1573.47Z"/>
          <path class="cls-23" d="M549.43,1611.51l21.19,30.18L464.8,1728.94c-11.72,14.1-43.32-33.51-49.95-46.75-17-34-59.8-76.22-28-113.06,34.44-40,50.52,24.23,48.11,44.91-2.1,17.93,29.69,60.28,29.69,60.28Z"/>
          <path class="cls-14" d="M451.93,2320.11s16,16.84,32.3,20.36,27.65,8,27.78,17.68-46.83,16-65.45,6.29c-27.79-14.53-30.62-10.15-33.7-17.42s3.7-26.68,3.5-29C416.11,2315.17,451.93,2320.11,451.93,2320.11Z"/>
          <path class="cls-24" d="M450.13,2312.06s2.11,7.89,1.8,8.05-36.67,4.25-35.57-2.08c.89-5.13,2.17-10.71,2.17-10.71Z"/>
          <path class="cls-14" d="M270.87,2324.5s11.79,16.4,27.56,20.18c15.55,3.73,25.63,10.82,26.39,20.21s-16.74,4.41-63,5.19c-20.39.35-23.72-10.21-27.2-17.1s1.82-26.17,1.47-28.41C235.7,2321.81,270.87,2324.5,270.87,2324.5Z"/>
          <path class="cls-24" d="M270.39,2316.4s.77,7.92.48,8.1-34.94,6.32-34.74.07a48.49,48.49,0,0,1,2.2-11.13Z"/>
          <path class="cls-13" d="M413.46,1838.51s16.83,122.29,23.71,163.63c8,48.34,10.77,88.28,13,113.3,2.82,31.46,6.56,192.5,8.53,201.7s-49,4.42-49,4.42S383,2111.62,374.56,2078.11c-7.83-31.2-30.6-166-37.73-157.47s-29,161.21-34.27,185.82-19.45,218.34-19.45,218.34-48.12,7.72-57.81,0c0,0,7.59-172.75,11-218.89,1.28-17.58-11.12-210.51,18.61-288.3C270.59,1776.49,413.46,1838.51,413.46,1838.51Z"/>
          <path class="cls-11" d="M364.07,1545.22s44.54,9.22,49.83,13.9c5.74,5,15.86,53.77,16.46,67.37s-5.37,70.36-11.11,91.5-5.81,112.62-2.19,141.91c0,0-85.8,17.56-174,6.08,0,0,12-89,8.5-117.94-4.52-37.11-15.41-122.62-15.41-122.62s-.07-48.15,6.76-55.84c14.62-16.51,70.87-24.36,70.87-24.36Z"/>
          <path class="cls-23" d="M297.17,1634.48c-2.08,44.07-16.11,54.77-29.92,51.34a30.16,30.16,0,0,1-12.33-6.78c-5.88-5.11-10.48-12.17-12.13-18.88-6-24.55-6.09-92.21,24.88-100.92C267.67,1559.24,301.24,1548.37,297.17,1634.48Z"/>
          <path class="cls-25" d="M430.4,1654.5s-24.86-4.12-26.37,31.92-17.12,103-42.55,129.7l100,3.79c25.43-26.68,37.92-90.59,39.81-126.62,1.75-33.13,26.38-31.92,26.38-31.92Z"/>
          <path class="cls-23" d="M372.06,1571.94a17.08,17.08,0,0,1-1.84,1.07,25.71,25.71,0,0,1-8.74,2.38,30.94,30.94,0,0,1-4,.17c-.81,0-1.62-.08-2.44-.16-23.58-2.3-47-29.28-47-29.28,47.35-7.17,67.64,1.65,67.64,1.65S383.3,1564.36,372.06,1571.94Z"/>
          <path class="cls-12" d="M361.93,1408.76s56-11.24,41.62,58.58-27.93,75-61.2,59.7-29.19-60.16-30.36-82.24S344.13,1409.11,361.93,1408.76Z"/>
          <path class="cls-12" d="M371.07,1554.87s-11,7.29-52.84-11.13a146.55,146.55,0,0,0-2.28-52.08c-6.21-26.23,51.37,32.34,51.37,32.34-.67.47-.8,3.15-.42,6.88.11,1,.25,2.1.43,3.22.29,1.93.7,4,1.21,6.12.13.58.28,1.15.43,1.72C371.31,1550.9,371.07,1547.05,371.07,1554.87Z"/>
          <path class="cls-14" d="M313.85,1480.85s2.81-18.81,10.9-19.31,10.4,11,10.4,11l6.34.65s-2.62-19.93,5.52-23.12,52.1,7.67,58.7,2.14,3.35-42.29-8.22-47.94-42.44-21.07-66.5-5.61c0,0-18.4-2.54-21.49,12.28S309.1,1469.66,313.85,1480.85Z"/>
          <path class="cls-12" d="M334.85,1455c-1.36-6.57-14.69-7.87-14.88,2.17s8.32,26.89,13.16,24.75S336.73,1464,334.85,1455Z"/>
          <path class="cls-26" d="M318.24,1535.82S340.1,1549,361.73,1552l-11.5,18.36-36.45-25.11Z"/>
          <path class="cls-26" d="M369,1542s-2.31,7.55-7.24,10L372.54,1567l-.4-20Z"/>
          <path class="cls-18" d="M361.73,1552l8.56,11.93s-5.41,6.85-17.08,1.66Z"/>
          <path class="cls-18" d="M370.22,1573a25.71,25.71,0,0,1-8.74,2.38,30.94,30.94,0,0,1-4,.17l1.29-11.13h7.91A36.11,36.11,0,0,1,370.22,1573Z"/>
          <path class="cls-17" d="M368.78,1541.24c-24.78,1.31-40.66-24.4-41.13-25.16,15.56,17,39.68,18,39.68,18C367.62,1536,368.28,1539.11,368.78,1541.24Z"/>
          <path class="cls-27" d="M430.4,1654.5s29.77,2.77,23.48,44.3l88.36,4.79s12.19-28.31-14.55-42.22Z"/>
          <rect class="cls-28" x="464.74" y="1683.22" width="69.1" height="3.6" transform="translate(91.23 -24.39) rotate(3.08)"/>
          <rect class="cls-28" x="458.82" y="1667.26" width="69.1" height="3.6" transform="translate(90.37 -24.09) rotate(3.08)"/>
          <g>
            <rect class="cls-28" x="454.55" y="1669.96" width="3.6" height="69.1" transform="translate(-1270.21 2068.63) rotate(-86.92)"/>
            <rect class="cls-28" x="445.9" y="1694.11" width="3.6" height="69.1" transform="translate(-1302.51 2082.9) rotate(-86.92)"/>
            <rect class="cls-28" x="437.25" y="1718.27" width="3.6" height="69.1" transform="translate(-1334.83 2097.09) rotate(-86.92)"/>
            <rect class="cls-28" x="428.6" y="1742.43" width="3.6" height="69.1" transform="translate(-1367.13 2111.31) rotate(-86.92)"/>
            <rect class="cls-28" x="419.95" y="1766.59" width="3.59" height="69.1" transform="translate(-1399.46 2125.42) rotate(-86.92)"/>
          </g>
          <path class="cls-12" d="M353.82,1732.14s3.83,1.81,7.16.9c5.74-1.56,10.64-9.54,18.14-5.44s1.21,31.58-2.6,35.61-15.52,1.67-30.13-8.81S353.82,1732.14,353.82,1732.14Z"/>
          <path class="cls-12" d="M376.4,1726.6a246.8,246.8,0,0,1,26.67,3.71c12.28,2.45,27.17,7.2,26.59,10.29-.87,4.71-12.64-.58-25-2.19-11.35-1.47-9.36.75-9.36.75s-.53-.66,11.53,3.37c13,4.35,26.72,9.55,26.29,12.09-.52,3.16-.86,3.51-5.82,2.71,2.76,1.07,2.85,2,2.51,3.2-1.75,6.22-21.8,2.85-29.76,1.51,6.11,1.07,10.48,2.51,6.94,5.63-4,3.57-32.18-2.5-42.46-3.69C353.35,1762.67,376.4,1726.6,376.4,1726.6Z"/>
          <path class="cls-23" d="M277.54,1560.11c9.1,3,14,15.84,8.43,42.54-6.12,29.51-13,43.87-16.93,50.82s-25.27,42.56-21.37,48.2,55.43,19,58.94,20c7,2,53.74,11.31,53.74,11.31l-11.45,40s-142.35-24.28-149.28-31.21-10.55-16.32-2.88-40.52c7.79-24.6,21.79-82.19,24.27-86.7S236.53,1546.63,277.54,1560.11Z"/>
          <path class="cls-29" d="M284.71,1608.47s-3.2,45.23-17.46,77.35a30.16,30.16,0,0,1-12.33-6.78s16.47-29.72,17.94-33.1S283,1616.34,284.71,1608.47Z"/>
        </g>
        <g>
          <rect class="cls-18" x="2105.11" y="1119" width="725.03" height="516.9" rx="73.47" transform="translate(4935.26 2754.9) rotate(180)"/>
          <g>
            <rect class="cls-7" x="2292.71" y="1215.89" width="22.67" height="126" transform="translate(4608.1 2557.77) rotate(180)"/>
            <rect class="cls-7" x="2252.92" y="1182.29" width="22.67" height="159.59" transform="translate(4528.5 2524.18) rotate(180)"/>
            <rect class="cls-7" x="2211.16" y="1199.87" width="22.67" height="142.02" transform="translate(4444.98 2541.75) rotate(180)"/>
            <rect class="cls-7" x="2168.25" y="1240.67" width="22.67" height="101.22" transform="translate(4359.16 2582.55) rotate(180)"/>
            <rect class="cls-8" x="2292.71" y="1261.98" width="22.67" height="79.91" transform="translate(4608.1 2603.86) rotate(180)"/>
            <rect class="cls-8" x="2252.92" y="1240.67" width="22.67" height="101.22" transform="translate(4528.5 2582.55) rotate(180)"/>
            <rect class="cls-8" x="2211.16" y="1251.82" width="22.67" height="90.07" transform="translate(4444.98 2593.7) rotate(180)"/>
            <rect class="cls-8" x="2168.25" y="1278.89" width="22.67" height="63" transform="translate(4359.16 2620.78) rotate(180)"/>
          </g>
          <path class="cls-7" d="M2192.42,1420.94h98.78a18,18,0,0,0,18-18h0a18,18,0,0,0-18-18h-98.78a18,18,0,0,0-18,18h0A18,18,0,0,0,2192.42,1420.94Z"/>
          <path class="cls-7" d="M2192.43,1488.19h98.77a18,18,0,0,0,18-18h0a18,18,0,0,0-18-18h-98.77a18,18,0,0,0-18,18h0A18,18,0,0,0,2192.43,1488.19Z"/>
          <path class="cls-7" d="M2192.43,1555.44h98.77a18,18,0,0,0,18-18h0a18,18,0,0,0-17.95-18h-98.79a18,18,0,0,0-18,18h0A18,18,0,0,0,2192.43,1555.44Z"/>
          <g>
            <path class="cls-7" d="M2495.33,1560.74a200,200,0,0,0,250.89-108.57c1.77-4.07,3.42-8.25,4.93-12.48a200.12,200.12,0,1,0-376.86-134.78C2337.06,1409,2391.25,1523.52,2495.33,1560.74Zm-73.89-239a150,150,0,1,1,282.55,101q-1.69,4.77-3.7,9.35a150,150,0,0,1-278.85-110.4Z"/>
            <path class="cls-8" d="M2705.94,1327.58l47.82-14.93a200.4,200.4,0,0,0-185.06-140.44l-1.49,50.07a150.25,150.25,0,0,1,138.73,105.3Z"/>
            <path class="cls-9" d="M2700.29,1432.17l45.93,20c1.77-4.07,3.42-8.25,4.93-12.48a199.21,199.21,0,0,0,2.61-127l-47.82,14.93a149.37,149.37,0,0,1-2,95.24Q2702.3,1427.59,2700.29,1432.17Z"/>
            <path class="cls-10" d="M2715.2,1502a198.92,198.92,0,0,0,31-49.81l-45.93-20a149.07,149.07,0,0,1-23.25,37.36Z"/>
          </g>
        </g>
        <g>
          <path class="cls-14" d="M2186.64,2306.13s8.19,13.19,13.31,18.31,24.05,13.65,25.16,29.75c1.2,17.45-30.08,14.55-42.23,14.67s-13.66-9.14-19.39-18.7-10.75-7.57-12.21-15.48,3.29-26.54,3.29-26.54Z"/>
          <path class="cls-30" d="M2154.65,2302.85s-1,7.53-.66,7.7,34.73,4.1,34.15-2.08c-.46-4.9-3.81-10.43-3.81-10.43Z"/>
          <path class="cls-12" d="M1802.33,1680.68s-36.21-5.27-38.78-3.55-2.62,3.74.76,4.39,34.9,6.12,34.9,6.12-43.43,1.15-45.86,2.07c-1.43.53-1.73,4.44.05,5s45,1.92,45,1.92-40.54,1.15-42.32,2.56c-1.55,1.23-.95,4.94,2.07,5.08s40.84,1.26,40.84,1.26-29.34,2.76-30.11,4.91c-.47,1.32-.89,4.67,6.65,3.72s25.65-1.27,25.65-1.27Z"/>
          <path class="cls-14" d="M2001.93,2315.16s-13.88,17.61-28.81,22.05-25.26,9.57-24.78,19.14,44.62,13.12,61.36,2.39c25-16,27.88-11.85,30.3-19.22s-5.11-26.22-5.07-28.51C2035,2308.17,2001.93,2315.16,2001.93,2315.16Z"/>
          <path class="cls-30" d="M2003.11,2307.08s-1.48,7.93-1.18,8.08,34.42,2.05,33-4.15c-1.15-5-2.68-10.48-2.68-10.48Z"/>
          <path class="cls-31" d="M2004.47,1837.7s-4.79,120.37-8.61,161.71c-4.48,48.34-4.53,88-5.06,113-.66,31.33,8.48,184.65,7.22,193.88s40.94,0,40.94,0,8.37-201.61,14.1-235.29c5.34-31.36,24-166.1,31.18-158.09s24.66,154.32,31.12,178.38,33.44,213.92,33.44,213.92,34.35,4.63,42.89-3.58c0,0-6.24-164.69-12.25-210.18-2.3-17.34,7.25-210.08-25.29-285.38C2137,1766.17,2004.47,1837.7,2004.47,1837.7Z"/>
          <path class="cls-32" d="M2216.6,1841.39s-20.36,7.62-29.16,6.57-11.12-108-12.86-130.2c-1.39-18-14.24-64.92-14.24-64.92a.45.45,0,0,1,0,.08.11.11,0,0,0,0,0s0,.06,0,.09c-.75,3.62-10.94,53.79-9.91,77.53,1.06,24.63,10.68,118.51,10.68,118.51l-36.43,5.88-105.17,9.21-22.14-1.21s.09-40.41-.13-59.59c-.16-12.19.83-34.09-1.11-55.23,0,0-1-22.36-3.85-31.84-2.91-42.44-8.12-84.32-8.12-84.32q-4-28.74-6.39-53.84c4.49-2.75,9.89-6,14.23-8.38,13.41-7.45,32.11-17.53,44.11-24,7-3.77,14-6.65,14-6.65s49.1-7.84,53.13-7.84c1.27,0,7.58,1.76,15.88,4.34,17.93,5.54,52.56,16.95,58.18,20.48,8.24,5.14,33.37,138.28,34.71,147.63C2214.38,1720.58,2216.6,1841.39,2216.6,1841.39Z"/>
          <path class="cls-33" d="M1999.45,1846s72.69,1.61,135.62-8.53l1.31,20.77s-94.23,19.72-139,4.78Z"/>
          <path class="cls-34" d="M1991.26,1568.37c-4.81,2.67-11.64,6.89-14.69,9.55,1.63,17,3.61,35.29,6.29,54.8,0,0,4.39,47.79,10,93a90.31,90.31,0,0,1,2.14,19.91c-.13,8.92-.48,18.67-1,28.86,0,.14,0,.27,0,.39-.12,2.42-.26,4.85-.4,7.31,0,0,0,.07,0,.1-3,51-9.71,109.68-14,127.58-.92,3.74,3.25,6.89,6.24,9.31l20.56,11.23s3.43-75.56,4.53-101.21c1.06-24.75,7.21-58.23,8.78-90.58v0c2-41,5.77-81.36,7.67-105.29,4.94-62.3,15-90.68,15-90.68C2034.16,1545.58,1991.26,1568.37,1991.26,1568.37Z"/>
          <path class="cls-32" d="M2046.88,1556.84s-.12,19,15.9,18.42,27.75-16.72,27.75-16.72l-26.11,8.52-17-12.69Z"/>
          <path class="cls-12" d="M1843.4,1693.42s-11.85-2.52-13.84-9.38c-1.7-5.84-7.91-12.38-9.82-14.4-2.54-2.69-7.57-13.8-10.7-10.71s7.45,18.67,9.06,22.35-14.94-1.92-18.6-.53-9.44,29.72,2.28,32.24,25.35-2.7,27.35-1.83a75.37,75.37,0,0,0,8.48,2.17Z"/>
          <path class="cls-12" d="M2059.36,1410.64s-36.29,8.5-26.45,65.54,41.89,49.93,44,49.72,32.62-1.36,29.8-71.68C2106.76,1454.22,2104,1402.28,2059.36,1410.64Z"/>
          <path class="cls-12" d="M2049.54,1510.91s1.49,23.66.84,28.84c-.7,5.58,30.8,19.57,49.33-.21,0,0-5.61-25.59-4.95-34.79S2049.54,1510.91,2049.54,1510.91Z"/>
          <path class="cls-12" d="M2031.92,1462.81s-4.34-4-5.49.46,6.6,22.51,7.55,24.22c0,0,.86,1.64,1.76.64S2031.92,1462.81,2031.92,1462.81Z"/>
          <path class="cls-12" d="M2106.31,1453.71s3.61-4.66,5.49-.46-2.77,23.9-3.43,25.14c0,0-1.14,2.06-2.19,1.23S2106.31,1453.71,2106.31,1453.71Z"/>
          <path class="cls-14" d="M2028.49,1455.26c1.76,7.78,3.32,13.55,3.32,13.55l5.77,6.63s-1.28-15.39-.62-17.87c.25-.94.51-2.58.77-4.37.44-2.94.86-6.26,1.22-7.38.58-1.79,30.76-12.7,59-1.82,0,0-.09,2.39.1,5,.2,3.08.76,6.5,2.2,6.94,2.69.79,2.67,17.94,2.67,17.94l4-5.2s.67-9,1.24-19.33v-.07c.13-2.41.25-4.89.37-7.34,0-10.36-2.24-29-16.36-39.19-9.31-3.31-24-5.69-47.65,3.21,0,0-5.91,2.09-7.37,3.68C2023.08,1427.15,2028.49,1455.26,2028.49,1455.26Z"/>
          <path class="cls-35" d="M2093,1517.18s-5.35,8.5-19,9-20-6.17-20-6.17,7.29,13.06,20.41,12.09S2093,1517.18,2093,1517.18Z"/>
          <path class="cls-36" d="M2050.09,1557.8l14.33,9.26s-13-23.66-13.89-33.4Z"/>
          <polygon class="cls-37" points="2050.53 1533.66 2041.77 1542.91 2033.81 1572.73 2050.09 1557.8 2050.53 1533.66"/>
          <path class="cls-34" d="M1829.7,1721.41s82.11,16.18,101.55,10.08c9-2.82,20.22-16.18,30.71-31.71,3.46-5.12,6.83-10.47,10-15.76v0c12.74-21.12,22.51-41.21,22.51-41.21s38.37-51.17,3.76-70.72c0,0-14.1-.53-21.7,5.85-7,5.89-22.77,41.2-25.28,47.72S1921,1693,1919,1694.43s-29.33-1.67-43.66-2a227.88,227.88,0,0,1-43.08-5.18Z"/>
          <path class="cls-12" d="M2052.84,1542.26a161.42,161.42,0,0,0,11.58,24.8s13.57-13.49,17.8-18.26S2052.84,1542.26,2052.84,1542.26Z"/>
          <path class="cls-36" d="M2078.56,1552l-14.14,15s17.69-2.3,20.82-5.47Z"/>
          <path class="cls-37" d="M2096.86,1524.87s-10.79,20.3-18.3,27.17l14.73,21.3,18.93-40.18Z"/>
          <path class="cls-34" d="M2173.14,1718.86c2.83,20.51,1.29,135.06,10.08,136.12s40.33-8,40.33-8-3.73-123.19-5.83-136c-1.52-9.31-25.32-149.08-33.55-154.23-4.77-3-39.27-12.82-56.23-18.3-3.11-1-13-4.43-15.72-5.29-3.27,4.13-29.34,77.86-28.73,134,.19,17.11,6.45,52.85,11.34,82.06,5.22,31.17,10.35,55.43,14.63,81.5,8.44,51.36,14.66,92.26,14.66,92.26l50-26.14c8.06-4.68,18.51-22.5,14.83-31.07-14-32.56-32.55-88.53-34.41-117.75,0,0,1.24-71.93,4.8-88C2159.34,1660.11,2169.54,1692.79,2173.14,1718.86Z"/>
          <rect class="cls-38" x="2051.75" y="1842.9" width="34.14" height="25.38" transform="translate(4250.14 3577.56) rotate(176.4)"/>
          <g>
            <polygon class="cls-27" points="2169.88 1970.84 2281.99 1963.78 2250.99 1890.77 2138.88 1897.83 2169.88 1970.84"/>
            <polygon class="cls-39" points="2169.88 1970.84 2281.99 1963.78 2250.99 1890.77 2138.88 1897.83 2169.88 1970.84"/>
            <polygon class="cls-40" points="2260.38 2040.09 2148.28 2047.15 2169.88 1970.84 2281.99 1963.78 2260.38 2040.09"/>
            <polygon class="cls-39" points="2179.28 2120.15 2291.39 2113.1 2260.38 2040.09 2148.28 2047.15 2179.28 2120.15"/>
            <polygon class="cls-40" points="2269.78 2189.41 2157.67 2196.47 2179.28 2120.15 2291.39 2113.1 2269.78 2189.41"/>
            <rect class="cls-28" x="2181.29" y="1905.66" width="64.07" height="2.77" transform="translate(4542.07 3671.29) rotate(176.4)"/>
            <rect class="cls-28" x="2185.72" y="1915.45" width="64.07" height="2.77" transform="translate(4551.53 3690.56) rotate(176.4)"/>
            <rect class="cls-28" x="2202.72" y="1924.83" width="51.83" height="2.77" transform="translate(4573.87 3708.61) rotate(176.4)"/>
            <rect class="cls-28" x="2190.65" y="2054.46" width="64.07" height="2.77" transform="translate(4570.13 3967.99) rotate(176.4)"/>
            <rect class="cls-28" x="2227.08" y="2063.24" width="32.03" height="2.77" transform="matrix(-1, 0.06, -0.06, -1, 4611.47, 3984.25)"/>
          </g>
          <path class="cls-12" d="M2189.71,1856s-.48,1.94-1.33,5.21c-1.48,5.63-6.94,12.3-2.85,19.61s30.91.86,34.82-2.91,1.48-15.2-8.93-29.4S2189.71,1856,2189.71,1856Z"/>
          <path class="cls-12" d="M2184.51,1878.16a241,241,0,0,0,3.91,26.07c2.52,12,7.31,26.52,10.34,25.92,4.59-.9-.7-12.37-2.39-24.42-1.56-11.1.62-9.17.62-9.17s-.64-.51,3.43,11.25c4.38,12.65,9.61,26,12.1,25.61,3.08-.54,3.42-.87,2.59-5.72,1.08,2.68,2,2.77,3.15,2.42,6.08-1.78,2.57-21.37,1.18-29.14,1.11,6,2.57,10.23,5.58,6.73,3.46-4-2.77-31.46-4-41.51C2219.59,1855.24,2184.51,1878.16,2184.51,1878.16Z"/>
          <path class="cls-34" d="M2175.41,1776.58l6.23,90.57s18-1.94,42.37-12.71l-6.31-127.88Z"/>
        </g>
        <g>
          <g>
            <path class="cls-14" d="M2337.32,1734.27l63,142,1.7,3.81a17.08,17.08,0,0,0,7-.73l-1.39-3.13-62.44-140.63,91-97.84,13.66-3-1.43-6.56-15.7,3.43Z"/>
            <path class="cls-6" d="M2434.4,1903.73h-58.35a22.64,22.64,0,0,1,.64-3.55c1.75-6.93,8.15-21.59,30.85-21.59s26.4,14.67,26.87,21.59A22.87,22.87,0,0,1,2434.4,1903.73Z"/>
            <path class="cls-6" d="M2493.82,1606.33l-3.94,11.17-23.9,67.69a41.81,41.81,0,1,1,27.84-78.86Z"/>
            <path class="cls-41" d="M2398.89,1876.29v3.11a15.38,15.38,0,0,0,3.16.69,17.08,17.08,0,0,0,7-.73,2.77,2.77,0,0,0,.41-.15v-3l-1.8,0-7.32,0Z"/>
            <path class="cls-42" d="M2434.4,1903.73h-58.35a22.64,22.64,0,0,1,.64-3.55h57.72A22.87,22.87,0,0,1,2434.4,1903.73Z"/>
          </g>
          <path class="cls-12" d="M2690.68,1726.15s-10.16-12.85-11.78-14.76-7.91-3.73-15.3-5.11-17.78.34-18.61,1.37-2.14,1.62-2.47,5.21a15.34,15.34,0,0,0,1.19,6.91s-2.32,4.12-.17,8.08a8,8,0,0,0,1.08,8.08s-1.86,4,.61,6.73c0,0,6.32,1.82,8.51,3.24s15.55,4.22,28.65,4.76C2682.39,1750.66,2694.72,1746.57,2690.68,1726.15Z"/>
          <polygon class="cls-43" points="2983.99 2122.86 3041.91 2364.36 3054.67 2364.36 3005.55 2122.34 2983.99 2122.86"/>
          <polygon class="cls-43" points="2920.8 2122.86 2978.72 2364.36 2991.48 2364.36 2942.36 2122.34 2920.8 2122.86"/>
          <polygon class="cls-43" points="2818.6 2122.86 2760.68 2364.36 2747.92 2364.36 2797.04 2122.34 2818.6 2122.86"/>
          <path class="cls-44" d="M2763.78,2125.21h249.58s17.38-.39,29-51.9c13.1-57.92,39.55-251.41,39.55-251.41s-7-18-116.73-15.7l-196.47,254.9S2762,2101.29,2763.78,2125.21Z"/>
          <path class="cls-12" d="M2756.1,1883.74s-12.71-5.53-22.25-3.3-31.87,10.56-42.91,11.94-21.53,7.8-21.33,11.47,85.18,6.66,85.59-1.69S2756.1,1883.74,2756.1,1883.74Z"/>
          <path class="cls-12" d="M2690.68,1726.15s16.6,10.92,17,14.27c.6,5.53-2.82,22.73-3.23,22.48s-25-12.4-25-12.4Z"/>
          <path class="cls-31" d="M2691,2323.24s-21.38,12.71-31.06,17.45-47.37,6.17-51.08,9.72-2.32,14.8,3.93,15.94,52.05,5.15,67.32,1.55,43.87,2.32,50.19.16,2.16-36.28-.31-43.92S2691,2323.24,2691,2323.24Z"/>
          <path class="cls-45" d="M2691.36,2308.81l-.34,14.43s28.66,5.28,39,.9l-.72-15.86Z"/>
          <path class="cls-34" d="M2641,2323.24s-21.38,12.71-31.07,17.45-47.36,6.17-51.07,9.72-2.32,14.8,3.93,15.94,52.05,5.15,67.32,1.55,43.87,2.32,50.19.16,2.15-36.28-.31-43.92S2641,2323.24,2641,2323.24Z"/>
          <path class="cls-45" d="M2641.28,2308.81l-.33,14.43s28.65,5.28,39,.9l-.72-15.86Z"/>
          <polygon class="cls-46" points="2809.56 1972.78 2842.09 1967.09 2820.4 1912.48 2809.56 1972.78"/>
          <path class="cls-47" d="M2907,1984s-163.49,34.72-189,45.56-40.83,15.31-42.74,20.73S2633.5,2315,2633.5,2315h54.22s42.1-195.83,47.2-207.95,207.31-12.76,222-27.43,27.43-54.85,11.49-90.9S2907,1984,2907,1984Z"/>
          <path class="cls-47" d="M2824.23,1965.74s-187.5,52.75-202.85,76.87c-15.63,24.55,62.51,272.37,62.51,272.37h53.58s-51.66-232.19-45.28-242.4,289-.31,236.33-83.88S2824.23,1965.74,2824.23,1965.74Z"/>
          <path class="cls-34" d="M2843.72,1705.17c-7.06-3.67-30.59,4.37-37.54,15.19-16.16,25.16-46.7,56.25-46.7,56.25l-68.09-57.24-13.64,34.12,80.82,68.12a17.53,17.53,0,0,0,23.51-.83c21.24-20.61,64.93-64,68.3-74.79C2854.84,1731.64,2857.2,1712.18,2843.72,1705.17Z"/>
          <path class="cls-12" d="M2866.76,1559.41s-32.53,5.42-32.85,60.6,20.61,60.38,52.3,52.3c19.09-4.86,37-31.89,30-79.41S2866.76,1559.41,2866.76,1559.41Z"/>
          <path class="cls-27" d="M2862.5,1691.13s-44.84,16.28-51.54,26.49-2.36,102.05,1.47,134.9,14.35,103.65,11.8,113.22l104.29,23S2962,1866.87,2963,1847.41s25.51-110,13.71-117.37-63.15-36-63.15-36Z"/>
          <polygon class="cls-14" points="2928.52 1988.7 2933.62 1969.89 2823.99 1948.54 2824.23 1965.74 2928.52 1988.7"/>
          <polygon class="cls-48" points="2873.98 1957.29 2847.99 1951.86 2847.99 1972.44 2873.98 1978.5 2873.98 1957.29"/>
          <path class="cls-34" d="M2885.64,1903.74c.28,5.38.63,10.84.91,16.35l.07.08c3.7,60.53,9.22,123.85,9.22,123.85,7.62,6.36,104.22-16.07,104.22-16.07s-11.88-16.15-23.35-60.88-2.51-87.59,9.44-160.28,2-72.27,2-72.27L2913.52,1694c-4.88,18.6-24.67,86-29.35,124.7C2882.49,1832.8,2883.54,1866.56,2885.64,1903.74Z"/>
          <path class="cls-34" d="M2861.78,1691.27s-21.74,56.14-31,113.41c-9.4,58.38-8.94,164.1-19.14,166.68s-7,.85-7,.85,1.91-63.86,2.85-85c2.08-47.25-6.74-153.77-2.66-164.53S2838.18,1695.52,2861.78,1691.27Z"/>
          <path class="cls-12" d="M2863.55,1682.45a27.38,27.38,0,0,1-1.05,8.67s5.73,22.36,51,2.86c0,0-8.94-33.34,0-61.3l-51,31.67s.63,5,.91,10.9C2863.55,1677.62,2863.62,1680.14,2863.55,1682.45Z"/>
          <path class="cls-49" d="M2911.68,1685.11s-17.8,8.62-35.77,10.28l8.75,18.62,28.87-20Z"/>
          <path class="cls-49" d="M2875.91,1695.39s-12.53-4.15-12.44-10.28l-1.69,6.16,5.1,19.64Z"/>
          <path class="cls-14" d="M2837.8,1591.33s-9.1-19.52-2.51-33.85,23.82-8.38,31.68-6.68,22.75-15.73,49.12,5.53,18.5,43.59,6.81,70.16-13.12,28.63-13.12,28.63-.08-27-3.27-31.77c-3.73-5.62-17.42-8.55-17.42-8.55s10.42-14.25.21-19.56S2858,1599.76,2837.8,1591.33Z"/>
          <path class="cls-12" d="M2902.48,1609.27c1.39-4.07,8.26-8.69,11.69-1.06s-5.52,21-10.41,21S2899.29,1618.63,2902.48,1609.27Z"/>
          <path class="cls-50" d="M2875.91,1695.39l-6.54,11.25s3,3.47,12.75,2Z"/>
          <path class="cls-11" d="M2870.77,1707.62s-26.77,78.77-27,134.69,4.2,89.3,4.2,89.3l5.89,11,8.62-10.06s-6.09-162.38,17.73-223.73C2880.23,1708.84,2871.76,1704.8,2870.77,1707.62Z"/>
          <path class="cls-34" d="M2979.88,1730c-19.58-8-39.88,19.14-50.72,46.25s-31.58,76.44-31.58,76.44l-144.83,23.46-2,27.54h169s64.38-115.32,68.84-129.68S2994,1735.78,2979.88,1730Z"/>
          <rect class="cls-44" x="2324.48" y="1903.73" width="477.55" height="16.45" transform="translate(5126.52 3823.91) rotate(180)"/>
          <rect class="cls-14" x="2510.7" y="1615.82" width="11.5" height="254.93"/>
          <path class="cls-14" d="M2494,1903.73h-86.06v-5.22H2494c4.49,0,7.72-1.06,9.59-3.17a8.47,8.47,0,0,0,1.92-6l0-.17V1777.84h5.21v111.08a13.59,13.59,0,0,1-3.15,9.82C2504.64,1902.05,2500.08,1903.73,2494,1903.73Z"/>
          <path class="cls-14" d="M2608.17,1894.6h-87.74v9.13h96.87A9.13,9.13,0,0,0,2608.17,1894.6Z"/>
          <g>
            <rect class="cls-14" x="2360.57" y="1920.18" width="13.57" height="446.93"/>
            <rect class="cls-14" x="2752.38" y="1920.18" width="13.57" height="446.93"/>
          </g>
          <path class="cls-14" d="M2885.64,1903.74c.28,5.38.63,10.84.91,16.35l.07.08s18.82,2.49,34.59-4.68,26.85-61.73,27.61-64.59c-1.61,3.14-26.9,52.84-33.12,52.84Z"/>
          <path class="cls-17" d="M2863.41,1675.25c.14,2.37.21,4.89.14,7.2,36,.56,36.56-20,36.56-20C2894.52,1677.35,2863.41,1675.25,2863.41,1675.25Z"/>
          <g>
            <rect class="cls-51" x="2645.81" y="1678.15" width="4.63" height="54.69" transform="translate(-418.36 2425.2) rotate(-45.99)"/>
            <polygon class="cls-12" points="2630.05 1684.84 2622.65 1680.92 2626.84 1688.17 2630.05 1684.84"/>
          </g>
          <path class="cls-52" d="M2646.94,1707.94s18.66,4,18.58,7.39-2,4.45-2,4.45l7.16,5.46s3,6.47-4.13,7.87c0,0,3.36,5.75-3.71,6.19,0,0,.72,4.81-2.5,5.65s-15.14-2.29-15.14-2.29-2.86-1.88-1.16-6.71c0,0-3.1-3.72-1-8.06a8.75,8.75,0,0,1,.14-8.14s-3.7-8,1.8-12.1A19,19,0,0,1,2646.94,1707.94Z"/>
          <path class="cls-12" d="M2678.33,1711.19s-12.27,3.93-18,9.36c-1.3,1.22-2.33,2.69-1.73,4.52s3.75,3.33,9.16,1.94,13.1-.45,13.1-.45S2686,1723.31,2678.33,1711.19Z"/>
          <path class="cls-53" d="M2662.61,2127.58s11.46-71.53,12.07-74.42,12.26-13.33,68-31.59c0,0-62,12-78.21,22.63C2652,2052.35,2662.61,2127.58,2662.61,2127.58Z"/>
          <g>
            <path class="cls-54" d="M2429.31,1903.73c-6.12-2.55-16-31.44-20.76-46.4-1.69-5.31-2.73-8.87-2.73-8.87h55.95c-4.83,34.55-16.58,55.27-16.58,55.27Z"/>
            <path class="cls-2" d="M2422.49,1830.58c0-3.54-15.8-18.33-23.7-28s3-28,3-28c35.24,14.57,29.17,56,29.17,56S2422.49,1834.11,2422.49,1830.58Z"/>
            <path class="cls-2" d="M2442.53,1832.15h-4.25s-3-71.54,23.09-81.27,26.12-29.15,26.12-29.15,7.9,26.72-4.87,40.7-27.33,30.37-24.9,43.73S2442.53,1832.15,2442.53,1832.15Z"/>
            <path class="cls-55" d="M2408.55,1857.33c-1.69-5.31-2.73-8.87-2.73-8.87h55.95c-4.83,34.55-16.58,55.27-16.58,55.27h-3.65C2442.22,1871.39,2420.92,1860.76,2408.55,1857.33Z"/>
            <polygon class="cls-56" points="2405.83 1831.26 2462.2 1831.26 2465.41 1848.46 2403.54 1848.46 2405.83 1831.26"/>
          </g>
        </g>
        <path class="cls-14" d="M3299.52,2367.14v1.38a3.9,3.9,0,0,1-3.73,4H11.09a3.89,3.89,0,0,1-3.73-4v-1.38a3.9,3.9,0,0,1,3.73-4h3284.7A3.91,3.91,0,0,1,3299.52,2367.14Z"/>
      </g>
    </g>
  </g>
</svg>
