<svg xmlns="http://www.w3.org/2000/svg" xmlns:xlink="http://www.w3.org/1999/xlink" viewBox="0 0 3297.68 2372.53">
  <defs>
    <style>
      .cls-1 {
        fill: none;
      }

      .cls-2 {
        fill: #def4f9;
      }

      .cls-3 {
        fill: #1470b3;
      }

      .cls-4 {
        fill: #72bce5;
      }

      .cls-5 {
        fill: #404040;
      }

      .cls-6 {
        fill: #35abdd;
      }

      .cls-7 {
        fill: #12789b;
      }

      .cls-8 {
        fill: #a2dff2;
      }

      .cls-9 {
        fill: #f09959;
      }

      .cls-10 {
        fill: #e38540;
      }

      .cls-11 {
        fill: #96cfe0;
      }

      .cls-12 {
        fill: #9cd499;
      }

      .cls-13 {
        fill: #74b570;
      }

      .cls-14 {
        fill: #ffdb73;
      }

      .cls-15 {
        fill: #0d5d8e;
      }

      .cls-16 {
        fill: #dde8fd;
      }

      .cls-17 {
        fill: #fa7269;
      }

      .cls-18 {
        fill: #93bbf0;
      }

      .cls-19 {
        fill: #a8ceff;
      }

      .cls-20, .cls-31 {
        fill: #fff;
      }

      .cls-21 {
        fill: #120e59;
      }

      .cls-22 {
        fill: #d54a41;
      }

      .cls-23 {
        fill: #289dc6;
      }

      .cls-24 {
        fill: #707070;
      }

      .cls-25 {
        fill: #6791c9;
      }

      .cls-26 {
        fill: #75a1de;
      }

      .cls-27 {
        fill: #f37168;
      }

      .cls-28 {
        fill: #f2e5de;
      }

      .cls-29 {
        fill: #e0cfc7;
      }

      .cls-30 {
        fill: #f5dc95;
      }

      .cls-31 {
        opacity: 0.5;
      }

      .cls-32 {
        fill: #aeddf1;
      }

      .cls-33 {
        fill: #f39892;
      }

      .cls-34 {
        clip-path: url(#clip-path);
      }

      .cls-35 {
        fill: #e7f3fe;
      }
    </style>
    <clipPath id="clip-path">
      <path class="cls-1" d="M800,389.56A150.63,150.63,0,1,0,950.67,540.19,150.63,150.63,0,0,0,800,389.56ZM800,620a79.79,79.79,0,1,1,79.8-79.79A79.79,79.79,0,0,1,800,620Z"/>
    </clipPath>
  </defs>
  <g id="Layer_2" data-name="Layer 2">
    <g id="Layer_3" data-name="Layer 3">
      <path class="cls-2" d="M2975.6,966.84a249.37,249.37,0,0,0,38-132.58c0-138.41-112.21-250.62-250.64-250.62A249.7,249.7,0,0,0,2594.19,649C2531.84,547.5,2419.82,479.82,2292,479.82a352.79,352.79,0,0,0-192.65,56.9C2066.33,234.88,1810.59,0,1500,0,1283.38,0,1093.5,114.2,987.16,285.66a352.76,352.76,0,0,0-157.92-37.07c-195.76,0-354.45,158.68-354.45,354.44a352.88,352.88,0,0,0,40.7,165c-13.42-1.14-27-1.75-40.7-1.75C212.58,766.27,0,978.84,0,1241.06s212.58,474.8,474.79,474.8H2891.5c209.42,0,379.19-169.78,379.19-379.2C3270.69,1156.15,3144.55,1005.1,2975.6,966.84Z"/>
      <g>
        <path class="cls-3" d="M2174.9,1464.05l21.2-49.65.5-1.19a12.88,12.88,0,0,0-5.53-16.24l-39.3-22.09a13.64,13.64,0,0,1-1.81-1.22,12.65,12.65,0,0,1-4.16-13.28,224.83,224.83,0,0,0,6.87-88.67,14.53,14.53,0,0,1,.09-3.62,13.12,13.12,0,0,1,8.14-9.95l35.22-13.24a13.1,13.1,0,0,0,8.25-10.8,14.21,14.21,0,0,0-.34-4.51l-13.78-53.39a13.15,13.15,0,0,0-14.95-9.65l-49.36,8.37a12.7,12.7,0,0,1-12.56-5.3c-4.14-5.79-8.47-11.42-13.18-16.9a225.15,225.15,0,0,0-28.49-27.76l-.05,0a13,13,0,0,1-4.18-14.19l15.88-48.29.77-2.44a12.68,12.68,0,0,0-7.06-15.67l-50.76-21.68a13.25,13.25,0,0,0-16.69,5.67L1985,1072.05a12.81,12.81,0,0,1-13.66,6.36,226.06,226.06,0,0,0-69.56-2,12.88,12.88,0,0,1-13.6-8.28l-15.8-41.71a13.14,13.14,0,0,0-15.61-8.07l-53.62,13.81a12.56,12.56,0,0,0-9.23,14.26l9.76,58a13.17,13.17,0,0,1-5.23,12.84q-7.49,5.42-14.61,11.54a228.78,228.78,0,0,0-24.56,24.57,12.51,12.51,0,0,1-13.62,3.87l-58-19.16a12.93,12.93,0,0,0-15.91,7.19L1650,1196.22a13,13,0,0,0,4,15.21,9.36,9.36,0,0,0,1.56,1l48.51,27.32a12.77,12.77,0,0,1,6.58,12.55,7.84,7.84,0,0,1-.19,1.35,36.32,36.32,0,0,0-.71,4,224.41,224.41,0,0,0-3.84,47.88,12.49,12.49,0,0,1-8.26,12.16l-44,16.7a13.12,13.12,0,0,0-8,15.58l3,11.88,10.74,41.42a12.93,12.93,0,0,0,14.69,9.53l48.62-8.25a12.49,12.49,0,0,1,13,6.15,227,227,0,0,0,24.45,34.43,224.37,224.37,0,0,0,22.28,22.49l-3.35,10.12-13.65,41.57a12.49,12.49,0,0,0,4.21,13.92,11.27,11.27,0,0,0,2.86,1.66l51.05,21.94a13,13,0,0,0,16.28-5.57l16.77-29.91a12.88,12.88,0,0,1,14.46-6.12,226.14,226.14,0,0,0,70.94,7.63,12.48,12.48,0,0,1,12.58,8.15l20,52.72a12.42,12.42,0,0,0,14.69,7.59l54.18-14a12.58,12.58,0,0,0,9.33-14.35l-10.17-60.36a12.81,12.81,0,0,1,6-13.15,217.23,217.23,0,0,0,27.83-20.47q7.2-6.18,13.75-12.83a13,13,0,0,1,13.16-3.22l55.63,18.34A13.09,13.09,0,0,0,2174.9,1464.05Zm-144.61-232.94c25.06,36.74,28.12,78.31,14.34,110.21-48.5,111.73-198.94,101.73-233-13.42-8.36-29.6-4.81-62.58,16.54-94.7C1878.12,1158.79,1982.34,1160.91,2030.29,1231.11Z"/>
        <path class="cls-4" d="M1484.49,2143l48.67-83.45,1.15-2a23,23,0,0,0-6.21-30l-64.87-48a22.19,22.19,0,0,1-2.94-2.57,22.65,22.65,0,0,1-4.45-24.5,402.37,402.37,0,0,0,31.91-155.91,24.87,24.87,0,0,1,1-6.4,23.38,23.38,0,0,1,16.66-15.85l65.47-15.7a23.47,23.47,0,0,0,17.05-17.34,25.54,25.54,0,0,0,.4-8.09l-12.61-97.85a23.53,23.53,0,0,0-24.4-20.45l-89.49,3.9a22.72,22.72,0,0,1-21.12-12.2c-6.07-11.21-12.51-22.17-19.65-32.94A401.62,401.62,0,0,0,1376.6,1518l-.06-.1a23.18,23.18,0,0,1-4.28-26.11l38.93-82.21,1.91-4.15a22.69,22.69,0,0,0-9.06-29.4l-85.29-49.78a23.73,23.73,0,0,0-30.91,6.36l-53.4,72.19a22.94,22.94,0,0,1-25.68,8.24,404.06,404.06,0,0,0-123-19,23.08,23.08,0,0,1-22.32-17.72l-18.78-77.57a23.49,23.49,0,0,0-25.93-17.79l-98.26,12.6a22.48,22.48,0,0,0-19.56,23.27l4.43,105.18a23.56,23.56,0,0,1-12.14,21.64q-14.48,7.95-28.49,17.24a409.47,409.47,0,0,0-49.07,38.17,22.36,22.36,0,0,1-25,3.84L691.81,1456a23.13,23.13,0,0,0-29.84,9.22l-50,85.58a23.23,23.23,0,0,0,3.67,27.89,17.22,17.22,0,0,0,2.53,2.16l80.07,59.28a22.88,22.88,0,0,1,8.89,23.75,12.22,12.22,0,0,1-.64,2.35,70,70,0,0,0-2.15,6.9,402.09,402.09,0,0,0-17.46,84.17,22.29,22.29,0,0,1-17.36,19.75L587.6,1797a23.45,23.45,0,0,0-17.69,25.87l2.77,21.76,9.86,75.93a23.16,23.16,0,0,0,24,20.2l88.16-3.85a22.34,22.34,0,0,1,21.63,13.79,406.06,406.06,0,0,0,35.77,66.57,400.47,400.47,0,0,0,34.55,44.87l-8.19,17.23-33.48,70.78a22.35,22.35,0,0,0,4.38,25.64,20.3,20.3,0,0,0,4.72,3.59l85.77,50.3a23.3,23.3,0,0,0,30.14-6.27L906.36,2174a23,23,0,0,1,27-7.64,405,405,0,0,0,124.26,29.29,22.33,22.33,0,0,1,20.51,17.28l23.71,98a22.24,22.24,0,0,0,24.41,16.74l99.31-12.88a22.51,22.51,0,0,0,19.75-23.4L1240.71,2182a22.89,22.89,0,0,1,13.53-22,389.27,389.27,0,0,0,54-30.16q14.16-9.39,27.27-19.72a23.21,23.21,0,0,1,24.08-2.8l94.69,44.92A23.44,23.44,0,0,0,1484.49,2143Zm-205-445.72c12.18,23.75,20.74,50.73,24.79,80.85a142.31,142.31,0,0,1,1.15,21.18c-.68,32.7-10.52,72.29-25,96.84-110.94,187.59-375.81,136.41-410.75-75.61-.53-3.49-1.06-7-1.5-10.53-4.26-33.13,6.23-84.14,22.89-113a269.25,269.25,0,0,1,29-40.91C1025.38,1535.07,1209.94,1562,1279.49,1697.27Z"/>
        <g>
          <path class="cls-5" d="M343.29,2366.51s-2.59-20.16-8.58-32.14-44.12-4.36-44.12-4.36-7.62,6.54-9.26,37Z"/>
          <path class="cls-5" d="M473.18,2366.23c-9-5.46-3.86-46.26-3.86-46.26s41.74-33.39,47.48-7.82,39.66,37,59,40.18c13.33,2.16,17.46,9.54,18.74,13.9Z"/>
          <path class="cls-6" d="M386.72,2069.55a193,193,0,0,1,3.06,22.55c3.88,75.69,63.72,248.75,74.42,252.79,16.56,6.25,42.64-7,56.28-11.38,5.65-1.8,9.47-7.51,8.21-13.29-29.63-136.22-40.52-332.37-44.49-448.51-2-58.49-12-98.9-12-98.9s-145.93-38.94-146.8,10.32C324.6,1826.72,373.7,1997.65,386.72,2069.55Z"/>
          <path class="cls-7" d="M386.72,2069.55l97.48-197.84c-2-58.49-12-98.9-12-98.9s-145.93-38.94-146.8,10.32C324.6,1826.72,373.7,1997.65,386.72,2069.55Z"/>
          <path class="cls-6" d="M419.19,1783.3,342,2342.44s-33.88,8.17-60.23,1.63c0,0-22.59-297.37-20.7-369.26s-16.21-192.38,4.13-205.66S419.19,1783.3,419.19,1783.3Z"/>
          <path class="cls-8" d="M250.2,1774a10.72,10.72,0,0,0,7.73,11.06c10.76,3.12,23.16,5.29,47.09,10.25,22.48,4.67,52.72,8.8,89.87,9,59.1.38,81.47-20,81.47-20,2.54.05-1.34-12.32-4.85-71.13-1.19-19.92-2.33-45.17-3.16-77.08-.75-28.71-1.25-62.83-1.3-103.3-.06-48.68-75.41-101-76.8-101l0,0c0,7-11.05,19.94-28.06,21.06-20.2,1.32-45-8.73-45-20.36,0-.12-36.51,58.4-49.48,120.76-1.65,7.9-2.92,16.24-3.94,25C260.71,1604.73,263.68,1585.86,250.2,1774Z"/>
          <path class="cls-8" d="M390.25,1431.78s70.07-.6,86.93,23.06,53.84,150.87,34.54,193.21-55.4-17.51-75.43-43.44S390.25,1431.78,390.25,1431.78Z"/>
          <path class="cls-9" d="M391,1421.08l0,7.25s2,22.65-25.92,26-48.66-4.16-47.9-21.65c2.51-13.53,4.9-27.5,5.09-38.69a79.27,79.27,0,0,0-1-13.57l54.05-1.08,15.92,2.6Z"/>
          <path class="cls-10" d="M391.17,1381.9l-.21,39.18a45.7,45.7,0,0,1-19.48,4.3c-24.84,0-40.9-18.21-49.29-31.43a79.27,79.27,0,0,0-1-13.57l54.05-1.08Z"/>
          <path class="cls-9" d="M317.06,1371.68c6.27,33.75,49.82,32.65,68.64,30.52,5.29-.58,8.63-1.26,8.63-1.26,6-1.6,9.3-11,10.85-23.32,3.07-24.39-.81-60.18-4.93-69.34-6.2-13.77-17.88-28.67-61.73-17.92S309,1328.44,317.06,1371.68Z"/>
          <path class="cls-11" d="M461.9,1526.6s27.1,59.85,26.31,77.78a93.78,93.78,0,0,0-26.31,3.39C440.71,1614.08,461.9,1526.6,461.9,1526.6Z"/>
          <path class="cls-5" d="M413.71,1276.16a145.21,145.21,0,0,1-42.07-11.39c-18.48-8-41.8.82-49.37,4.8a11.3,11.3,0,0,1,1.85-4.55s-3.4,2.41-3.9,5.78c-.35.25-.51.43-.42.49s-3.85-.7-6.33.41c0,0,1.74-.25,2.36.87a1.08,1.08,0,0,0,.27.3c-28.82,13.93-31.49,59.49-22.21,70,11.16,12.69,27.69,40.91,27.69,40.91s1.74-6.41-.29-17.57,7.61-11.16,19.78-16.23,2-19.28,12.68-27.91,49.72-3.55,49.22-10.14C417.47,1306.67,413.71,1277.64,413.71,1276.16Z"/>
          <path class="cls-11" d="M308.22,1638.71c11.44,45.94,135.16,69.68,163.29,74.5-1.19-19.92-2.33-45.17-3.16-77.08Z"/>
          <path class="cls-9" d="M335.38,1653.64c-1.18,0-27.5-3.93-32.22-6.29s-26.28-33-12.16-40.86,52,23.57,52,23.57Z"/>
          <path class="cls-8" d="M495.5,1662.75s-101.82,5.52-170.15-9.11c0,0-1.72-19.74,19.75-28.51,0,0,106.5-22.57,132.08-16.28S495.5,1662.75,495.5,1662.75Z"/>
          <path class="cls-8" d="M261.68,1582.84c21.13,25.48,48.75,46.28,79.2,51.15h0c.25-.39,9.22-14,7.54-34-.78-9.25-3.84-19.89-11.09-31.21a69.27,69.27,0,0,1-6-12.07c-16.63-42.43-14.15-124.2-14.15-124.2s-70.62,7.39-92.62,38.83C211.1,1490.58,228.29,1542.56,261.68,1582.84Z"/>
          <path class="cls-10" d="M385.7,1402.2c5.29-.58,8.63-1.26,8.63-1.26,6-1.6,9.3-11,10.85-23.32-11.2,2.76-16.33,11.41-18.47,15.09C385.74,1394.37,385.55,1398.09,385.7,1402.2Z"/>
          <path class="cls-9" d="M414.15,1421.3s24.39-40.25,5.42-42-26.58,11.09-29.32,15.8.71,26,.71,26Z"/>
          <path class="cls-8" d="M321.2,1598.63a52.47,52.47,0,0,0,4.15,14A66.89,66.89,0,0,0,340.88,1634h0c63.34-28.59,76.15-126.77,78.3-180.71.86-21.68,0-36.22,0-36.22-28.57-9.46-36.6,7-36.6,7s-33.74,80.23-51.24,132.66C324.65,1576.76,320.34,1592.76,321.2,1598.63Z"/>
          <path class="cls-11" d="M261.68,1582.84c21.13,25.48,48.75,46.28,79.2,51.15h0c63.34-28.59,76.15-126.77,78.3-180.71,0,0-30,108.71-70.76,146.7-7.38,6.88-15.11,11.44-23.08,12.62,0,0-51.44-14.54-62.23-28.22A6,6,0,0,0,261.68,1582.84Z"/>
        </g>
        <g>
          <g>
            <path class="cls-12" d="M2901.66,2171.57s-31-36.14-1.91-59.1c0,0,21.23-12.85,38.55-11.81,0,0-24.53,41.14-16.6,45.23s24-47.81,24-47.81,48.32-4.68,63.86,2.79c0,0-41.3,33.8-32.6,35.81s53.31-31.16,53.31-31.16,45,7.65,42.57,35.08-17.89,35.91-24.7,35.18-46.65-15.94-47.52-10.36,23.12,23.82,39.91,24.67c0,0-31.71,35-52.78,24.87s-22.87-26.08-36-32.08-24.35-6-18.93.13,29.2,12.07,36.71,25.35,14.25,22.25-7.55,19-57.24-19.23-58.79-37.5Z"/>
            <g>
              <path class="cls-13" d="M3050.77,2141.34s-122.13-4.7-149.11,30.23c0,0-6,17.86-24.32,34.13l-2.86,7.8s21.17-22.32,28.74-23.67C2903.22,2189.83,2891.37,2146.56,3050.77,2141.34Z"/>
              <path class="cls-13" d="M2877.34,2205.7s-26.21,19.39-28,54l4.75.43s8.38-35.82,23.51-49.83S2877.34,2205.7,2877.34,2205.7Z"/>
            </g>
          </g>
          <g>
            <path class="cls-12" d="M2793.36,2126.12s49.27-27.6,26.28-65c0,0-18.4-23-38.11-28.91,0,0,10.51,55.85,0,57.16s-7.23-63.07-7.23-63.07-51.9-25-72.27-23c0,0,32.19,54.53,21.68,53.21s-46.65-56.5-46.65-56.5-53.22-9.86-61.76,21.68,5.26,47.31,13.14,49.28,58.48,1.31,57.16,7.88-35.47,17.09-54.53,11.17c0,0,21,51.91,48.62,49.28s36.14-19.71,53.22-21,29.57,3.29,21,7.89-37.45,1.51-51.24,13.24-25,18.95.65,24.21,71.62,2,80.82-17.74Z"/>
            <g>
              <path class="cls-13" d="M2639.61,2031.51s138,44.68,153.75,94.61c0,0-.66,22.34,13.14,48v9.86s-14.46-33.51-22.34-38.11C2784.16,2145.83,2815,2102.47,2639.61,2031.51Z"/>
              <path class="cls-13" d="M2806.5,2174.08s21.27,32.31,9.15,71.64l-5.48-1.46s5.31-43.33-5.82-65.12S2806.5,2174.08,2806.5,2174.08Z"/>
            </g>
          </g>
          <g>
            <path class="cls-12" d="M2871.75,2088.06s-64.95-36.37-34.64-85.74c0,0,24.25-30.31,50.23-38.11,0,0-13.86,73.62,0,75.35s9.53-83.14,9.53-83.14,68.42-32.91,95.27-30.32c0,0-42.44,71.89-28.58,70.16s61.49-74.49,61.49-74.49,70.15-13,81.41,28.58-6.93,62.36-17.32,65-77.08,1.73-75.35,10.39,46.77,22.52,71.88,14.73c0,0-27.71,68.42-64.09,65s-47.63-26-70.15-27.71-39,4.33-27.71,10.39,49.36,2,67.55,17.45,32.91,25-.87,31.92S2896,2140,2883.88,2114Z"/>
            <g>
              <path class="cls-13" d="M3074.41,1963.35s-181.87,58.89-202.66,124.71c0,0,.87,29.45-17.32,63.22v13s19.05-44.17,29.45-50.24C2883.88,2114,2843.17,2056.88,3074.41,1963.35Z"/>
              <path class="cls-13" d="M2854.43,2151.28s-28,42.6-12.06,94.44l7.22-1.93s-7-57.11,7.67-85.83S2854.43,2151.28,2854.43,2151.28Z"/>
            </g>
          </g>
          <path class="cls-14" d="M2869.56,2358.16a127.24,127.24,0,0,0,127.24-127.24H2742.33A127.23,127.23,0,0,0,2869.56,2358.16Z"/>
          <path class="cls-14" d="M2998.56,2364.63h-258a15.69,15.69,0,0,1,15.69-15.69h226.6a15.69,15.69,0,0,1,15.7,15.69Z"/>
          <rect class="cls-13" x="2738.14" y="2230.92" width="261.56" height="3.9"/>
        </g>
        <g>
          <path class="cls-5" d="M2427,1382.43c-18.73-9.71-33.74-3.61-33.74-3.61-57.3-6.73-74,60.1-73.24,83.1s3.4,47.69-22.2,77.57c-73.92,86.29,80.9,90.1,80.9,90.1,1.31-68.95,84-43.79,80.34-36.8C2565,1618.21,2469.63,1404.53,2427,1382.43Z"/>
          <path class="cls-9" d="M2206,1669.87s-10.08-15.35-18.2-15.65-23.16-4.51-22-1.5,10.53,3.31,11.43,5.11-13.83,4.51-18.05,4.82-14.13,0-13.83,2.1,17.89,10.83,30.3,9.63,27.76,3.61,27.76,3.61Z"/>
          <path class="cls-3" d="M2351.73,1674.83a151.25,151.25,0,0,1-15.41,23.31c-12,15-30.44,32.33-53.63,35.75-11.07,1.63-21.9-.75-31.86-5.18h0c-28.16-12.5-49.33-41.25-49.33-41.25-5-13.53,3.16-22.71,3.16-22.71s56.85,12.79,62.27,10.08,37-93.7,44.52-105.14,33.15-17.37,33.15-17.37Z"/>
          <path class="cls-15" d="M2336.32,1698.14c-12,15-30.44,32.33-53.63,35.75-11.07,1.63-21.9-.75-31.86-5.18,1.1.15,29.23,3.62,40.44-16.43,11.43-20.46,23.79-53,40.78-42.12C2339.37,1674.84,2339.05,1686.45,2336.32,1698.14Z"/>
          <path class="cls-5" d="M2563.85,2288.55s17.34,15.83,14,27.08-19,18.75-21.16,32.5-10.58,21.25-18.19,21.25h-36.31s-5.61-9.68,7.93-12.59,18.65-19.08,17.8-34.08,1.27-35,1.27-35l28.77-6.67Z"/>
          <path class="cls-5" d="M2417,2295.27s6.24,67.07-1.38,70.82l-97.47-.2s0-11.25,15.65-13.75,43.17-11.66,47.82-32.08S2417,2295.27,2417,2295.27Z"/>
          <path class="cls-9" d="M2486.47,1814.09c-20.06-45-32.33-57.9-30-71.86,1.74-10.39-5.31-193.75-5.31-193.75-2.38-.74-7.15-1.4-9.76-2a24.46,24.46,0,0,1-17.87-15.54c-3.41-9.56-6.13-23.68-6.07-41.37l-2.57.5-43.2,8.56s1,13.6,1,26.4c0,.11,0,.22,0,.32a24.85,24.85,0,0,1-17.94,24c-5.45,1.58-10.2,2.92-10.2,2.92s-15.87,45.29-18.9,91.82,28.85,66.74-.24,159.72C2295.75,1898.83,2497.55,1838.94,2486.47,1814.09Z"/>
          <path class="cls-10" d="M2371.7,1498.65s1,13.6,1,26.4c24.18-.68,37-22.73,42.19-35Z"/>
          <path class="cls-9" d="M2363.63,1510.78s57.2.94,57.24-34.69,7.45-59.5-29.07-61.61-43.63,11.48-46.54,23.37S2348.75,1509.61,2363.63,1510.78Z"/>
          <path class="cls-5" d="M2365.75,1413.61s15.66,41.8,39.69,48,34.46-.26,34.46-.26-18.43-14.65-22.26-40.21C2417.64,1421.12,2377.56,1393.71,2365.75,1413.61Z"/>
          <path class="cls-5" d="M2369.63,1417s-11.62,4.34-16.4,12.81a57.65,57.65,0,0,0-7.73,32.71s-11.8-28.41,1.46-44.48C2361,1401,2369.63,1417,2369.63,1417Z"/>
          <path class="cls-16" d="M2376.07,1488.68a14.35,14.35,0,0,1-11.84,4.81,10.5,10.5,0,0,1-8.81-5.82S2367.1,1484.87,2376.07,1488.68Z"/>
          <path class="cls-3" d="M2492,1629.59a388.87,388.87,0,0,1,0,45.05c-1,16.29-17.44,38.11-19.78,43.51-5.87,13.53-12.48,15.74-12.48,15.74l-51.18,12.54-18,4.4-56.74-16.94s-25.85-72.15-15.47-112.76,26.23-68.81,26.23-68.81,46.31,45.34,106.6-3.85Z"/>
          <path class="cls-17" d="M2477,1681.29c-1,16.29-2.46,31.46-4.8,36.86-5.87,13.53-12.48,15.74-12.48,15.74l-51.18,12.54-22.23-6.53s74.2-11.25,66-75.09Z"/>
          <path class="cls-18" d="M2337.42,1744.84s-28.11,87.47-29.91,117.25,53.72,423.07,55.95,436.79c2.11,12.94,18.17,21.18,18.17,21.18s7.39,4.36,17.93,1.38c14.63-4.13,19.25-9.07,19.25-9.07s21.88-280.49,8.34-380.69a1586.58,1586.58,0,0,1-13.7-186.84Z"/>
          <path class="cls-19" d="M2456.48,1742.23s42.87,57.52,46.86,96.4,6.27,175.45,14.79,213.35,39.79,110.85,39.79,229.07c0,0-3.25,6.77-13.29,10.38a108.33,108.33,0,0,1-11.69,3.24,18.38,18.38,0,0,1-20.55-9.76c-21.15-42.58-88.51-179.91-92-208.42-2.44-20.18-23.71-153.7-70.11-232-11.14-18.82,6.84-93.62,6.84-93.62Z"/>
          <path class="cls-20" d="M2374.8,1489.63s-1,4.2-11.43,3.55c0,0-8.77-.54-8.5-5.16C2354.87,1488,2363.37,1484.74,2374.8,1489.63Z"/>
          <path class="cls-21" d="M2332.93,1731.33s11.28,8.93,33.69,9.38c26.77.54,93.1-6.83,93.1-6.83a54.86,54.86,0,0,1,2.83,16.93s-81,20.44-128,3C2334.59,1753.8,2328.54,1742.41,2332.93,1731.33Z"/>
          <path class="cls-20" d="M2360.2,1763.78c-6.74,0-12.22-6.2-12.22-13.83s5.48-13.82,12.22-13.82,12.21,6.2,12.21,13.82S2366.93,1763.78,2360.2,1763.78Zm0-23.6c-4.5,0-8.17,4.38-8.17,9.77s3.67,9.78,8.17,9.78,8.16-4.39,8.16-9.78S2364.7,1740.18,2360.2,1740.18Z"/>
          <rect class="cls-22" x="2400.94" y="1651.16" width="110.06" height="150.66" transform="translate(-529.99 2037.22) rotate(-41.05)"/>
          <path class="cls-9" d="M2441,1747.42s-30.41,3.56-30.31,10.78,7.58,22,11.33,22.71,24.75-20.06,24.75-20.06Z"/>
          <path class="cls-3" d="M2451.17,1548.47s40.6,2.85,56.17,40.69,45.09,101.36,45.09,112-16.49,43.64-105.08,62.58c0,0-9.16-9.64-8.61-17.26,0,0,55.3-47.5,55.15-53.06-.28-10.5-9.06-24.36-57.62-72.93C2423.07,1607.33,2451.17,1548.47,2451.17,1548.47Z"/>
        </g>
        <g>
          <path class="cls-6" d="M3017.73,1315.89l44,153.63a20,20,0,0,1,.71,6.78,19.77,19.77,0,0,1-14.28,17.68l-266.82,76.34a19.79,19.79,0,0,1-24.43-13.57l-43.94-153.57a19.76,19.76,0,0,1,13.55-24.45l266.81-76.35A19.77,19.77,0,0,1,3017.73,1315.89Z"/>
          <g>
            <path class="cls-23" d="M3062.41,1476.3a19.77,19.77,0,0,1-14.28,17.68l-266.82,76.34a19.75,19.75,0,0,1-21.52-7.54L2895.68,1439Z"/>
            <path class="cls-4" d="M3017.73,1315.89l-119.44,148.33L2715.19,1411l-2.25-7.85a19.76,19.76,0,0,1,13.55-24.45l266.81-76.35A19.77,19.77,0,0,1,3017.73,1315.89Z"/>
          </g>
        </g>
        <g>
          <path class="cls-24" d="M1609.78,2367.05h-.42a4.4,4.4,0,0,1-4.4-4.5l6.67-289,19.64-2.3-16.75,291.33A4.75,4.75,0,0,1,1609.78,2367.05Z"/>
          <path class="cls-24" d="M1495.32,2367.05h-.42a4.4,4.4,0,0,1-4.4-4.5l6.67-289,19.64-2.3-16.75,291.33A4.75,4.75,0,0,1,1495.32,2367.05Z"/>
          <path class="cls-24" d="M1811.17,2367.05h.41a4.4,4.4,0,0,0,4.4-4.5l-6.67-289-19.64-2.3,16.75,291.33A4.76,4.76,0,0,0,1811.17,2367.05Z"/>
          <path class="cls-5" d="M1482.3,2055.61V1857.56a63.1,63.1,0,0,1,63.1-63.09h142.69a63.09,63.09,0,0,1,63.09,63.09v205.62Z"/>
          <path class="cls-5" d="M1482.3,2055.61h294.45a0,0,0,0,1,0,0v31.27a0,0,0,0,1,0,0H1507.69a25.39,25.39,0,0,1-25.39-25.39v-5.88A0,0,0,0,1,1482.3,2055.61Z"/>
          <rect class="cls-5" x="1587.33" y="2055.61" width="236.45" height="31.27" rx="14.76"/>
        </g>
        <g>
          <path class="cls-25" d="M1801.67,2006.26c-20.44,35.58-46.15,49.31-46.15,49.31h-107S1817.27,1979.12,1801.67,2006.26Z"/>
          <g>
            <path class="cls-9" d="M1719.52,2281.53c-2.79,3.19-3.14,6.76-1.76,10.57a.09.09,0,0,0,0,.06c2.55,7.05,11,14.92,20.77,22.78,1.25,1,2.36,1.93,3.33,2.78l.75.67.57.52c9.13,8.42,5.7,10.34,22.1,27.42,18.7,19.46,31.58,19.81,35.24,18,3.1-1.5-3.2-11.82-10.18-23.43-.33-.55-.66-1.12-1-1.69-.93-1.54-1.86-3.1-2.78-4.65-8.17-14-6.07-20.51-4.13-41.29,1.57-16.88,26.26-94.32,26.26-94.32l-35.84-6.17s-10.79,61.66-22.68,71.16c-6.36,5.06-13.48,5.12-19.59,8.87-.43.27-.86.53-1.27.81C1725.85,2276,1722.32,2278.33,1719.52,2281.53Z"/>
            <path class="cls-22" d="M1719.52,2281.53c-2.79,3.19-3.14,6.76-1.76,10.57a.09.09,0,0,0,0,.06c3.12,7,11.34,14.87,20.8,22.71,1.24,1,2.33,2,3.3,2.85l.75.67.57.52c9.13,8.42,5.7,10.34,22.1,27.42,18.7,19.46,31.58,19.81,35.24,18,3.1-1.5-3.2-11.82-10.18-23.43a79.61,79.61,0,0,1-33.33-24.56c-11.26-14.37-18.77-32.83-26.44-43.53-.43.27-.86.53-1.27.81C1725.85,2276,1722.32,2278.33,1719.52,2281.53Z"/>
            <path class="cls-9" d="M2008.5,2259.14c2.22,11.07,18,9.22,35.6,4.92s13.43.81,38.51-2,32.66-12.12,33.43-15.85c.68-3.31-11.71-4.47-25-6-1.67-.18-3.35-.39-5-.6-15-1.88-26-11.56-39.62-19.51-12.91-7.53-32.18-38.22-32.18-38.22l-34.38,2.73s18,27.4,25,39.32c4.11,7,3.89,16.28,3.38,23.43A44.13,44.13,0,0,0,2008.5,2259.14Z"/>
            <path class="cls-22" d="M2044.1,2264.06c17.62-4.31,13.43.81,38.51-2s32.66-12.12,33.43-15.85c.68-3.31-11.71-4.47-25-6l-.13.26a70.71,70.71,0,0,1-35.91,11.16c-17,.42-35-4.46-46.77-4.27a44.13,44.13,0,0,0,.26,11.76C2010.72,2270.21,2026.48,2268.36,2044.1,2264.06Z"/>
            <path class="cls-25" d="M1876.73,2039.27l-32.15,86.5-42,112.94a68,68,0,0,1-22.3-2c-10-2.9-21.56-10.49-21.56-10.49s11.65-121.27,33.39-190.88c5.57-17.87,11.81-32.32,18.7-40.46C1844.55,1955,1876.73,2039.27,1876.73,2039.27Z"/>
            <path class="cls-26" d="M1844,1901.9c-21-6.79-81.12,1.93-141.45,13.74L1690,1894.81l-130.32-10.18s-43,95.37-19.46,156.13c3.46,8.94,10.34,14.66,22.06,14.85h1.9l102.75,0c64.82,0,137.17-44.55,146.53-46.43,15.32-3.06,21.44,27.58,36.76,59.75s144,142.47,144,142.47,19.78.2,28-2.86c8.78-3.3,12-7.58,12-7.58S1891.54,1917.22,1844,1901.9Z"/>
            <path class="cls-5" d="M1684.83,1515.33c-16.7-8.77-42.1-9.95-46.23-10.5-49.38-6.64-79.1,65.12-80.85,86.86-3.22,40.08-24.42,46.19-54.27,71.29-59.83,50.33-42.29,108.81-9.57,130.54,19.63,13,54.24,0,54.24,0,.48.34,94.63-52.63,141-78.19C1758.76,1705.44,1727.37,1537.67,1684.83,1515.33Z"/>
            <path class="cls-9" d="M1650.29,1693.59c.21.13-22.83,8-38.24,1.17-14.49-6.41-25.47-30.25-25.25-30.26,6.59-.3,13.83-6.07,19.4-43.88l2.81,1,47.2,17s-3.42,15.14-5.63,29.56C1648.71,1680.28,1647.71,1691.87,1650.29,1693.59Z"/>
            <path class="cls-10" d="M1656.21,1638.61s-3.42,15.14-5.63,29.56c-27.11-4.88-37.75-31.89-41.57-46.55Z"/>
            <path class="cls-9" d="M1663.24,1653.64s-64.58-8.67-58.56-48.8,1.73-68.28,43.22-64.44,47.18,20.35,48.43,34.23S1680.19,1654.86,1663.24,1653.64Z"/>
            <path class="cls-5" d="M1694,1552.63s-41.33,35.62-69.45,38.5-38.77-6.16-38.77-6.16a109.71,109.71,0,0,0,26.55-36,19.78,19.78,0,0,1,16.3-11.65C1648.68,1535.62,1686.74,1534.83,1694,1552.63Z"/>
            <path class="cls-5" d="M1668.13,1549.44s13.83,13.37,18.19,23.29c4.2,9.57,5.46,32.46,2.11,41.55,0,0,21.55-41.89,9.35-62.25C1684.85,1530.44,1668.13,1549.44,1668.13,1549.44Z"/>
            <path class="cls-27" d="M1704.67,1788.71c-2,130.72-.54,103.41-14.84,115.81-3.44,3-13.13,4.77-25.88,5.61-40.08,2.66-110.54-4-113.22-11.35-9.24-25.63-2.72-33.6-10.43-72.84-.81-4.17-1.8-8.69-3-13.61-6.43-26.95-12.69-36.12,10.13-79.42,20.69-39.22,42.19-71.05,44.12-69.9,54.59,32.41,59,5.17,59,5.17S1705.63,1725,1704.67,1788.71Z"/>
            <path class="cls-26" d="M1844.58,2125.77l-42,112.94a68,68,0,0,1-22.3-2c-10-2.9-21.56-10.49-21.56-10.49s11.65-121.27,33.39-190.88Z"/>
            <path class="cls-27" d="M1650.58,1668.17s56.17,9.52,62.77,33.71,45.41,166.37,45.41,166.37-28.56,5.13-41.75-8.06-45.9-122.4-45.9-122.4Z"/>
            <path class="cls-22" d="M1664,1910.13c-40.08,2.66-110.54-4-113.22-11.35-9.24-25.63-2.72-33.6-10.43-72.84l19.33-54.44s-3.19,60.63,14.68,76.57,73.2,30.78,81.89,44.1C1660.39,1898.57,1663.15,1905,1664,1910.13Z"/>
            <path class="cls-9" d="M1618,1884.63s39.54-8.8,45.92-5.3,22,16.29,23.93,20.74-14.2-3.37-19.46-4.78c-3.4-.92-12.36,2.2-16.8,3.68-18.66,6.22-30.1,3-30.1,3Z"/>
            <path class="cls-27" d="M1591.55,1663s-53.1,3.27-71.48,28.91c-25.88,36.09-77.21,189.89-47.79,210.4,33.13,23.1,150.78,6,150.78,6s3.91-18.3-1.54-27.15-94-23.15-98-27.24,51.07-79.66,51.07-91.92S1591.55,1663,1591.55,1663Z"/>
            <path class="cls-9" d="M1665.87,1890.34s8.28,10.69,11,12a8.08,8.08,0,0,0,4.47,1l-5.58-10Z"/>
            <path class="cls-9" d="M1664,1879.33,1688,1891s-1,1.68-4,1.54-10.45-2.87-10.45-2.87Z"/>
          </g>
          <g>
            <g>
              <polygon class="cls-5" points="1676.87 1918.68 1867.43 1918.68 1924.75 1776.13 1734.49 1776.13 1676.87 1918.68"/>
              <polygon class="cls-5" points="1869.66 1913.12 1618.03 1913.12 1618.03 1918.68 1867.43 1918.68 1869.66 1913.12"/>
            </g>
            <path class="cls-20" d="M1819.32,1847.4c1.44-5-1.46-9.07-6.47-9.07s-10.24,4.06-11.67,9.07,1.46,9.08,6.47,9.08S1817.89,1852.41,1819.32,1847.4Z"/>
          </g>
        </g>
        <g>
          <rect class="cls-5" x="782.15" y="1783.74" width="26.26" height="296.35" rx="12.39"/>
          <path class="cls-24" d="M795.17,2367.05h-.42a4.4,4.4,0,0,1-4.4-4.5l6.67-289,19.64-2.3-16.75,291.33A4.75,4.75,0,0,1,795.17,2367.05Z"/>
          <path class="cls-24" d="M1111,2367.05h.42a4.4,4.4,0,0,0,4.39-4.5l-6.67-289-19.64-2.3,16.75,291.33A4.76,4.76,0,0,0,1111,2367.05Z"/>
          <path class="cls-5" d="M1109.61,2055.61H782.15v12.32a19,19,0,0,0,19,19h308.51a14,14,0,0,0,14-14v-3.25A14,14,0,0,0,1109.61,2055.61Z"/>
          <path class="cls-5" d="M1273.55,2305.27s-4.83,59.92,5.9,60.72c1.43.1,54.43.1,54.43.1l67.65-.39s-.44-16.3-20.22-19.75-58.91-20.08-70.89-46.22C1297.82,2272.23,1273.55,2305.27,1273.55,2305.27Z"/>
          <path class="cls-3" d="M866.54,1977s2.26,58.89,12.64,78.64h239.27s57.49,5.95,62.73,9.83c6.62,4.89-23,53.42,88.09,243.06l54.42-1.39s-56.91-307.56-67-315.34c-15.13-11.65-192.14-52.17-222.44-53.06S866.54,1977,866.54,1977Z"/>
          <path class="cls-9" d="M1000.69,1628c18.46,11.43,19.5,34.21,19.5,34.21-45,11.65-110.56-38.35-110.56-38.35s29-19.47,39.73-62.27c.54-2.16,1-4.38,1.47-6.64a134.4,134.4,0,0,0,2.44-23.44L974,1550.07l34.4,30.82s-.78,12.78-5.08,34.78Q1002.16,1621.43,1000.69,1628Z"/>
          <path class="cls-28" d="M1026.13,1864.43c-1.53,10,1.58,18.14,3.07,25.61a28.54,28.54,0,0,1,.68,8.38c-2.46,27.79,7.45,31.32,4.35,40.29,0,0-10.59,6.19-30,13.54-8.43,3.18-18.53,6.6-30.16,9.81l-1.84.5c-45,12.17-92.34,14.77-105.72,14.41-25.54-.68-30.69-65.42-21.22-147,14.76-127,34.72-188.62,87.32-233.12,3.31-2.81,1.08,6.73,18.76,15.25,16.33,7.87,36,9.71,51.32,6.32l12,12.33c23.9,37.74,26.4,82.53,24.37,119.86C1036.54,1797.85,1030.57,1835.52,1026.13,1864.43Z"/>
          <path class="cls-10" d="M1008.36,1580.89s1.83-1.93-2.47,20.07c-38.11-11-50.52-30.44-55.61-43.31-1.44-3.63,14.17-5.57,23.68-7.58Z"/>
          <path class="cls-9" d="M1026.07,1581s-73.52,10.52-79.37-35.36-19.28-75.43,27.41-84.09,58.07,7.68,63.74,22.52S1045.05,1577.07,1026.07,1581Z"/>
          <g>
            <rect class="cls-5" x="1325.66" y="1771.21" width="5.89" height="154.27" transform="translate(2044.65 4009.1) rotate(-162.63)"/>
            <rect class="cls-5" x="1146.56" y="1912.31" width="161.88" height="9.68" transform="translate(2435.04 3846.95) rotate(-179.41)"/>
          </g>
          <path class="cls-5" d="M923.26,1462.47c-.59-.69-2-1.25-5-1.44a12.39,12.39,0,0,1,5.73-1.56c.67-4.24,3-11.75,10.31-13.52a9.19,9.19,0,0,0-4.49,6.58c8.53-8.63,26.73-14.82,77-10.46,66.18,5.75,44,48,35.41,53s-30.09-9-46.07-7.9-19.2,24.2-24.65,27.32-3.27-2.46-10.57-5.83-8.1,8.77-6,16.69-8.11,18.25-8.11,18.25l-10.09-11c-10.09-11-19.32-57.56-14.61-67.42C922.42,1464.24,922.83,1463.36,923.26,1462.47Z"/>
          <path class="cls-29" d="M1034.23,1938.71s-10.59,6.19-30,13.54c-83.88-61.2-83.43-206.07-83.88-208.55l105.35,92.77,3.47,53.57a28.54,28.54,0,0,1,.68,8.38C1027.42,1926.21,1037.33,1929.74,1034.23,1938.71Z"/>
          <g>
            <path class="cls-9" d="M1186.1,1870.56a26,26,0,0,0,13.86-2.24c7.12-3.35,31.67-13.89,36.28-12.45s19.67,9.94,23.22,11.56,9.81,9.9,9.81,9.9c-2.6,2.62-11.75-3.4-15.84-3.28s-34.26,16.6-43.23,17-23-1.47-23-1.47Z"/>
            <path class="cls-9" d="M1240.79,1871.88c.08.49,11,12.69,19.38,8.82l-9.14-9Z"/>
            <path class="cls-9" d="M1200,1868.32s9.82-9.1,13.08-13.47c0,0,2,.89,2,2.55.13,2.77-2.57,7.85-2.57,7.85Z"/>
          </g>
          <path class="cls-28" d="M1006.72,1652.16c-54-32.89-117.73,24.57-90.94,81.83,31.07,66.4,82.8,147.38,123.9,152.16,29.29,3.41,113,14.15,148.47,7.54,0,0,17.17.84,7.86-26.82,0,0-114.57-31.93-133.6-56.7-10.2-13.27-27.57-40.14-54.44-157.24C1007.86,1652.45,1007.13,1652.41,1006.72,1652.16Z"/>
        </g>
        <g>
          <path class="cls-5" d="M2458.54,2367.05h.58a6.09,6.09,0,0,0,6.08-6.22L2456,1961.57l-27.13-3.16L2452,2360.86A6.56,6.56,0,0,0,2458.54,2367.05Z"/>
          <g>
            <path class="cls-5" d="M1124.42,2367.05h-.57a6.08,6.08,0,0,1-6.08-6.22l9.21-399.26,27.14-3.16L1131,2360.86A6.57,6.57,0,0,1,1124.42,2367.05Z"/>
            <rect class="cls-24" x="1079.08" y="1920.74" width="1421.35" height="48.18" rx="22.74"/>
          </g>
        </g>
        <g>
          <g>
            <polygon class="cls-5" points="2276.49 1920.74 2085.94 1920.74 2028.61 1778.19 2218.88 1778.19 2276.49 1920.74"/>
            <polygon class="cls-5" points="2083.7 1915.18 2335.34 1915.18 2335.34 1920.74 2085.94 1920.74 2083.7 1915.18"/>
          </g>
          <path class="cls-20" d="M2134,1849.46c-1.44-5,1.46-9.07,6.47-9.07s10.24,4.06,11.68,9.07-1.46,9.08-6.48,9.08S2135.48,1854.47,2134,1849.46Z"/>
        </g>
        <path class="cls-5" d="M3297.68,2367.14v1.38a3.9,3.9,0,0,1-3.74,4H9.25a3.89,3.89,0,0,1-3.73-4v-1.38a3.9,3.9,0,0,1,3.73-4H3293.94A3.91,3.91,0,0,1,3297.68,2367.14Z"/>
        <g>
          <path class="cls-30" d="M1613.23,699.63c0-133.45-107.32-241.83-240.37-243.53-133.65-1.71-244.57,105.92-246.69,239.57a242.65,242.65,0,0,0,64.43,169,110.5,110.5,0,0,1,29.26,74.9v109.17c0,70.63,57.79,128.42,128.42,128.42h42.81c70.63,0,128.42-57.79,128.42-128.42V939.59a111.65,111.65,0,0,1,29.71-75.4A242.64,242.64,0,0,0,1613.23,699.63Z"/>
          <path class="cls-31" d="M1579.21,716c0-114.8-92.33-208-206.79-209.5-115-1.48-210.41,91.12-212.23,206.1A208.81,208.81,0,0,0,1215.61,858a95,95,0,0,1,25.18,64.43v93.92c0,60.77,49.71,110.48,110.48,110.48h36.83c60.76,0,110.48-49.71,110.48-110.48V922.41a96,96,0,0,1,25.56-64.86A208.8,208.8,0,0,0,1579.21,716Z"/>
          <path class="cls-4" d="M1405.68,983.36h-80.2a7.29,7.29,0,0,1-7.26-6.63c-.15-1.55-15.12-156.38-84.35-199.74a7.29,7.29,0,0,1,7.74-12.36c67.54,42.3,86.73,172.75,90.42,204.15H1398c-.26-10.77.36-31.56,6.56-58.47,8.3-36,28.64-90.21,78.45-144.43a7.29,7.29,0,1,1,10.74,9.87c-91,99.09-80.91,198.5-80.8,199.5a7.28,7.28,0,0,1-7.24,8.11Z"/>
          <path class="cls-4" d="M1465.72,787c-27.08,0-64-19.24-102.87-40.09-50.22,26.74-97.12,50.72-123.37,34.81-12.34-7.48-18.24-22.12-18-44.75.19-21.31,6.3-35.67,18.15-42.69,26.3-15.58,73.3,9.27,123.27,36.09,51-27.18,98.94-52.48,125.15-36.53,11.76,7.17,17.59,21.73,17.31,43.29-.29,22.43-6.73,37.52-19.16,44.84C1480.26,785.42,1473.38,787,1465.72,787Zm-87.38-48.35c40,21.28,81.93,41.66,100.42,30.76,7.74-4.56,11.77-15.49,12-32.47.21-16-3.26-26.35-10.32-30.64C1462.56,695.39,1419.15,717,1378.34,738.62Zm-119-34.67c-4.82,0-9,.88-12.28,2.85-7.16,4.23-10.86,14.42-11,30.27-.15,16.81,3.55,27.63,11,32.15,18,10.9,60-9.36,100.33-30.64C1314.78,721.19,1280.57,704,1259.31,704Z"/>
          <rect class="cls-4" x="1318.92" y="1147.65" width="106.45" height="64.16" rx="29.89"/>
          <path class="cls-4" d="M1212.78,970.24v77.22c0,74,60.52,134.49,134.49,134.49h44.83c74,0,134.49-60.52,134.49-134.49V970.24Z"/>
          <rect class="cls-32" x="1200.56" y="957.6" width="342.2" height="36.94" rx="17.5"/>
          <path class="cls-32" d="M1526.36,1022.23l-304.88,37.66a17.55,17.55,0,0,1-19.51-15.22l-.24-1.93a17.55,17.55,0,0,1,15.22-19.51l304.88-37.66a17.55,17.55,0,0,1,19.51,15.22l.24,1.93A17.55,17.55,0,0,1,1526.36,1022.23Z"/>
          <path class="cls-32" d="M1526.36,1075.59l-304.88,37.66A17.55,17.55,0,0,1,1202,1098l-.24-1.93a17.55,17.55,0,0,1,15.22-19.51l304.88-37.66a17.55,17.55,0,0,1,19.51,15.22l.24,1.93A17.55,17.55,0,0,1,1526.36,1075.59Z"/>
          <path class="cls-32" d="M1507.55,1132.69l-253.93,31.37a16.12,16.12,0,0,1-17.91-14l-.59-4.79a16.11,16.11,0,0,1,14-17.9L1503,1096a16.11,16.11,0,0,1,17.9,14l.6,4.79A16.11,16.11,0,0,1,1507.55,1132.69Z"/>
        </g>
        <g>
          <path class="cls-32" d="M2751.89,905.25h94.29c0,51.72-42.56,94.29-94.29,94.29s-94.28-42.57-94.28-94.29S2700.17,811,2751.89,811Z"/>
          <path class="cls-33" d="M2862,892.05a94.29,94.29,0,0,0-94.29-94.29v94.29Z"/>
        </g>
        <g>
          <rect class="cls-32" x="1425.77" y="239.53" width="26.93" height="77.93"/>
          <rect class="cls-32" x="1771" y="264.88" width="26.93" height="52.58"/>
          <rect class="cls-32" x="1539.92" y="135.12" width="26.93" height="182.34"/>
          <rect class="cls-32" x="1596.99" y="235.5" width="26.93" height="81.96"/>
          <rect class="cls-32" x="1654.07" y="212.3" width="26.93" height="105.16"/>
          <rect class="cls-32" x="1482.85" y="188.07" width="26.93" height="129.39"/>
          <rect class="cls-32" x="1711.33" y="158.1" width="26.93" height="159.36"/>
        </g>
        <g class="cls-34">
          <path class="cls-8" d="M936.18,623.44,800,540.19,775.42,697.86A159.76,159.76,0,0,0,936.18,623.44Z"/>
          <path class="cls-12" d="M936.32,623.25c.37-.6.85-1.42.83-1.39a159.6,159.6,0,0,0,3.54-157.09C892.51,490,921.2,474.68,800,540.19,936.41,623.58,915.23,610.72,936.32,623.25Z"/>
          <path class="cls-32" d="M650.39,485.05,800,540.19l140.39-75.91C874.76,342.84,698,357.4,650.39,485.05Z"/>
          <path class="cls-33" d="M775.42,697.86,800,540.19,650.39,485.05C614.8,580.45,678,682.49,775.42,697.86Z"/>
          <path class="cls-20" d="M640.6,511.15a15.3,15.3,0,0,1,7.56,2,151.78,151.78,0,0,1,5.43-21.24l81.26,29.94v-.07a14.41,14.41,0,0,1,3.53-9.91l-8.14-3-73-26.88a156.74,156.74,0,0,1,23.5-39.53,15.82,15.82,0,0,1-8.11-6.81,166.88,166.88,0,0,0-25.32,42.68l-.09,0-1.84,4.94-1.86,5,.09,0a163.05,163.05,0,0,0-5.95,23.24A14.69,14.69,0,0,1,640.6,511.15Z"/>
          <path class="cls-35" d="M947.52,466.47l.09-.05-2.52-4.66-.16-.28-2.06-3.83-.08,0c-15.88-27.6-38.53-49.61-65.78-63.81a167.41,167.41,0,0,0-182.86,20,16.4,16.4,0,0,1,6.73,8.2A154.64,154.64,0,0,1,790,386.46c59.07-4.1,113.43,24.81,143.16,75.72L891.71,484.6c-8.56,4.61-20.52,11.08-40.56,21.92-12.83,7-29,15.69-49.67,26.87l-1.28.69L796,531.53l-.23,1.46-29.2-10.76a14.64,14.64,0,0,1-3.9,9.85l31.43,11.58L771,691.71A155.29,155.29,0,0,1,645.74,542a15.32,15.32,0,0,1-5.14.94,15.51,15.51,0,0,1-5.45-1,163.62,163.62,0,0,0,22.46,80.81c24.42,41.79,64.94,70.51,111.77,79.43v.09l5.22.83,5.24.82v-.09A165,165,0,0,0,938,630.41l.11.07,1-1.7s1.68-2.77,1.68-2.77c.26-.42.57-1,.75-1.25l.11-.19a1,1,0,0,0,.08-.14l1.68-2.74-.07-.05A165.53,165.53,0,0,0,947.52,466.47Zm-166,226.89,22.57-144.51,58.74,35.92c23.68,14.49,37.23,22.78,45.76,28l20.27,12.4A153.66,153.66,0,0,1,781.48,693.36Zm153-77.38-1-.6c-5.56-3.29-8-4.72-19.07-11.48L810.65,540.47l86.1-46.56c12.65-6.8,17.83-9.51,30.67-16.22l11-5.76A154.93,154.93,0,0,1,934.45,616Z"/>
        </g>
        <g>
          <rect class="cls-32" x="487.29" y="1007.58" width="361.99" height="163.59" rx="6.86"/>
          <rect class="cls-20" x="497.19" y="1050.56" width="342.2" height="112.93" rx="5.54"/>
          <g>
            <rect class="cls-20" x="502.21" y="1019.62" width="14.18" height="12.76" rx="3.07"/>
            <rect class="cls-20" x="528" y="1019.62" width="14.18" height="12.76" rx="3.07"/>
            <rect class="cls-20" x="553.78" y="1019.62" width="14.18" height="12.76" rx="3.07"/>
          </g>
          <path class="cls-32" d="M825.46,1075.31h-181a5.42,5.42,0,0,1,0-10.83h181a5.42,5.42,0,0,1,0,10.83Z"/>
          <path class="cls-32" d="M689.32,1158.85h-181a5.42,5.42,0,0,1,0-10.83h181a5.42,5.42,0,0,1,0,10.83Z"/>
          <rect class="cls-32" x="702.08" y="1148.02" width="22.43" height="10.83" rx="1.85"/>
          <rect class="cls-32" x="730.31" y="1148.02" width="22.43" height="10.83" rx="1.85"/>
          <path class="cls-32" d="M827.2,1098.9H527.46a3.67,3.67,0,1,1,0-7.34H827.2a3.67,3.67,0,0,1,0,7.34Z"/>
          <path class="cls-32" d="M827.2,1114.76H527.46a3.68,3.68,0,1,1,0-7.35H827.2a3.68,3.68,0,0,1,0,7.35Z"/>
        </g>
        <g>
          <path class="cls-12" d="M2216.16,787a63.61,63.61,0,1,1-63.61-63.61A63.61,63.61,0,0,1,2216.16,787Z"/>
          <path class="cls-20" d="M2146.24,808.74h-.11a3.13,3.13,0,0,1-2.22-1.06l-17.28-19.63a3.11,3.11,0,0,1,4.67-4.11l15.11,17.17L2181,767.28a3.11,3.11,0,0,1,4.35,4.45l-36.91,36.12A3.14,3.14,0,0,1,2146.24,808.74Z"/>
        </g>
        <g>
          <rect class="cls-32" x="2378.34" y="1162.21" width="324.83" height="133.85" rx="13.85"/>
          <path class="cls-32" d="M2417.58,1275.87v73.85l85.1-85.1S2419.31,1275.87,2417.58,1275.87Z"/>
          <rect class="cls-20" x="2395.15" y="1175.48" width="291.23" height="107.31" rx="11.74"/>
          <path class="cls-32" d="M2553.74,1202H2422.19a5.77,5.77,0,0,1,0-11.54h131.55a5.77,5.77,0,1,1,0,11.54Z"/>
          <rect class="cls-32" x="2416.42" y="1217.6" width="250.4" height="6.48" rx="3.21"/>
          <rect class="cls-32" x="2416.42" y="1230.16" width="250.4" height="6.48" rx="3.21"/>
        </g>
        <g>
          <rect class="cls-32" x="2444.38" y="993.47" width="27.48" height="24.73" rx="5.95" transform="translate(4916.24 2011.67) rotate(180)"/>
          <path class="cls-32" d="M2400.37,993.47h15.57a6,6,0,0,1,6,6v12.82a6,6,0,0,1-6,6h-15.57a6,6,0,0,1-6-6V999.42A6,6,0,0,1,2400.37,993.47Z" transform="translate(4816.31 2011.67) rotate(180)"/>
          <rect class="cls-32" x="2344.44" y="993.47" width="27.48" height="24.73" rx="5.95" transform="translate(4716.37 2011.67) rotate(180)"/>
        </g>
      </g>
    </g>
  </g>
</svg>
