<?xml version="1.0" encoding="utf-8"?>
<!-- Generator: Adobe Illustrator 24.3.0, SVG Export Plug-In . SVG Version: 6.00 Build 0)  -->
<svg version="1.1" id="Layer_1" xmlns="http://www.w3.org/2000/svg" xmlns:xlink="http://www.w3.org/1999/xlink" x="0px" y="0px"
	 viewBox="0 0 2955.9 1880.1" style="enable-background:new 0 0 2955.9 1880.1;" xml:space="preserve">
<style type="text/css">
	.st0{fill:#FFFFFF;}
	.st1{fill:#707070;}
	.st2{fill:#404040;}
	.st3{fill:#E8945B;}
	.st4{fill:#F4F4F4;}
	.st5{fill:#F37168;}
	.st6{fill:#FFB27D;}
	.st7{fill:#6791C9;}
	.st8{fill:#75A1DE;}
	.st9{fill:#BAE1F4;}
	.st10{fill:#F7CC7F;}
	.st11{fill:#74B570;}
	.st12{fill:#9CD499;}
	.st13{fill:#1470B3;}
	.st14{fill:#466EB6;}
	.st15{fill:#355389;}
	.st16{opacity:0.3;fill:#B75742;enable-background:new    ;}
	.st17{fill:#D54A41;}
	.st18{fill:#13375B;}
	.st19{fill:#DD6652;}
	.st20{fill:#35ABDD;}
	.st21{fill:#D3E5F4;}
</style>
<g>
	<g id="Layer_2_1_">
		<g id="Layer_3">
			<path class="st0" d="M2688.8,873.5c22.5-35.9,34.4-77.4,34.3-119.8c0-125.1-101.4-226.4-226.4-226.4c-56.4-0.1-110.8,21-152.5,59
				c-56.3-91.7-157.5-152.8-273-152.8c-61.8-0.1-122.2,17.8-174,51.4C1867.3,212.2,1636.3,0,1355.6,0
				C1160,0,988.4,103.2,892.3,258.1c-44.3-22.1-93.2-33.6-142.7-33.5c-176.9,0-320.2,143.4-320.2,320.2
				c-0.1,51.9,12.5,103.1,36.8,149.1c-12.1-1-24.4-1.6-36.8-1.6c-236.9,0-429,192-429,429s192.1,429,429,429h2183.4
				c189.2,0,342.6-153.4,342.6-342.6C2955.4,1044.6,2841.5,908.1,2688.8,873.5z"/>
			<g id="Support">
				<g>
					<path class="st1" d="M2388.8,1853.4l-31.9-0.1c4.2-139,7.9-350.2,0.9-362c0.6,0.7,1.3,1.3,2.1,1.6l25.9-6.8
						c4.2,2.1,6.7,3.4,7.6,62.5c0.4,30.4,0.3,72.4-0.5,124.9C2391.5,1762.7,2388.8,1852.5,2388.8,1853.4z"/>
					<path class="st2" d="M2482.1,1851.7h-215c-9.9,0-17.9,8-17.9,17.9l0,0l0,0c0,1.7,1.4,3.1,3.1,3.1h244.6c1.7,0,3.1-1.4,3.1-3.1
						l0,0C2500,1859.7,2492,1851.7,2482.1,1851.7z"/>
					<path class="st2" d="M2385.3,1836H2359c-7.8,0-14.1,6.3-14.1,14.1l0,0l0,0c0,7.8,6.3,14.1,14.1,14.1l0,0h26.3
						c7.8,0,14.1-6.3,14.1-14.1l0,0l0,0C2399.4,1842.3,2393.1,1836,2385.3,1836L2385.3,1836z"/>
					<path class="st2" d="M2264.2,887.9c-1.2-28.2,3-56,15.6-82.2c10.8-22.6,37.7-35.4,62.1-35.4c77.7-0.1,87.6,102.5,137,142.1
						c15.1,12.1,32,22,46.3,35c52.8,48.2,29,137.4-19.5,179.6c-33.6,29.3-86.5,46-128,23c-21.6-12-38.1-31.8-49.8-53.6
						c-16.6-30.9-27.3-66.6-39.1-99.5C2276.3,961.8,2265.8,925.3,2264.2,887.9z"/>
					<path class="st3" d="M2049.9,1183l169.1-47.1c0,0,35.6-47.8,81.4-112c15,14.8,23.3,37.6,38.4,52.3L2226.9,1200
						c-4,4.4-9.8,7-15.8,7l-155.4,0.5l-53.2,4.2v-34L2049.9,1183z"/>
					<path class="st4" d="M2293.3,1147.1c0,0,58-59.5,72.9-85.3s-10.2-9-35.8-15.8c-9.7-2.6-7.3-59.5-25.6-41
						c-30.1,30.3-68,83.4-68,83.4L2293.3,1147.1z"/>
					<path class="st5" d="M2375.8,978.9c0,0,52.1-10.3,75.8,9.6s-5.1,196.4-5.1,225.6s16.3,111.9,16.3,111.9s-157.8,27.6-182.9-16.3
						c0,0-7.1-167.3-6.1-188.4s24.5-107.1,30.9-116.3S2375.8,978.9,2375.8,978.9z"/>
					<path class="st6" d="M2376.1,898.3c0,0,0.3,1.5,0.8,4.2c2.4,12.7,11.4,54.9,17.6,66.5c7.4,14-25.4,58.7-57,53.2
						c-9.4-1.6,8-41,7.1-45.2c-1.6-8-3.8-18.9-6-30.1l-3.7-18.7c-3.4-17.1-6.1-31-6.1-31L2376.1,898.3z"/>
					<path class="st3" d="M2376.8,902.5c-0.5-2.7-0.8-4.2-0.8-4.2l-47.4-1.2c0,0,2.8,14,6.1,31c1.2,6,2.4,12.3,3.7,18.6
						c7.3-1.1,14.9-4.6,22.6-11.3c7.8-6.8,13.7-15.6,17.1-25.4C2377.7,907.1,2377.2,904.5,2376.8,902.5z"/>
					<path class="st6" d="M2344.2,790.9c0,0,22.3-2.6,36.3,15.5s29.1,73.9-5.7,104.3s-69.1-4-74.2-40.5S2293.5,789.6,2344.2,790.9z"
						/>
					<path class="st2" d="M2341.7,784.9c0,0,29.8,53.1,51.2,55.6s24.1,30.7,24.1,30.7s-7.6-65-28.8-77.6S2341.7,784.9,2341.7,784.9z
						"/>
					<path class="st6" d="M2387.3,853.8c-1.7,9.4,1.8,18.1,7.8,19.3s12.3-5.4,14.1-14.8s-1.8-18.1-7.8-19.3S2389,844.4,2387.3,853.8
						z"/>
					<g>
						<path class="st3" d="M2186.5,1728.8c0,0,47.9,57.4,48.2,62.4s-1.9,59.6-7.6,64.6s-22.4,8.5-17.1,14.2
							c4.1,4.3,35.4,3.3,56.1,2.2c6-0.3,13.6-48.6,16-55.7c3.5-10.3,11.9-33.5,8.8-40.7c-1.5-3.5-8.9-10.7-19.3-17.4
							c-10.9-7.1-52.8-65.3-52.8-65.3L2186.5,1728.8z"/>
						<path class="st5" d="M2271,1757.9c0,0-32.2,90.6-44.8,94.9c-3.4,1.2-19.4,4.1-22.4,11.2c-0.9,2.1,0,9.3,0,9.3h67
							c0,0,8.5-39.9,11.8-57.4c0,0,13-42.7,11-46.5S2271,1757.9,2271,1757.9z"/>
						<path class="st6" d="M1899.6,1756.4c0,0-39.1,55.1-35.7,72.5c1.8,9.3,10,21.5,5.3,30.3s-10.1,11-10.1,11l-122,2
							c-6.7,0.1-2.3-4.2,3.1-8.1c8.8-6.4,15.9-10.7,43.9-24.2c1.8-0.9,8.5-5.1,10.9-6.6c6.1-3.7,12.2-9.5,17.5-15.4
							c8.8-9.7,47.3-89.1,47.3-89.1L1899.6,1756.4z"/>
						<path class="st5" d="M1795,1833.2c32.3,8.3,56.1,2.7,69.5-2.7c3.4,9.7,8,21.9,5.6,29c-3,8.6-7.2,10.6-10.9,10.7
							c-29.5,0.8-108,1.8-130.5,2.1c-2,0-3.7-1.6-3.7-3.6c0-0.9,0.3-1.7,0.8-2.4C1731.4,1859.6,1792.6,1834.7,1795,1833.2z"/>
						<path class="st7" d="M2041.1,1416.6c0,0,48.4,55.3,60.8,64.1s130.9,227.1,130.9,227.1l-42.2,30.8c0,0-106-132.1-155.7-202.8
							c-42.1-59.8-26.6-56-51.3-92.3c-13.7-20-10.5-47,7.4-63.3c2.2-2,4.7-4.1,7.3-6.3c36.6-30.5,287.7-64.9,287.7-64.9l160.6,15.7
							c0,0-131.2,92-136.1,94.5s-181.2,28.2-184.9,28.2S2041.1,1416.6,2041.1,1416.6z"/>
						<path class="st8" d="M2462.8,1326c0,0,27.5,82.6-13.8,121.2s-286.8,34.3-367.6,34.3c0,0-33,90.6-36.7,105.3
							s-164,204.4-164,204.4l-44.1-28.2c0,0,172.6-335.4,186.1-350.1s205.7-73.5,253.4-86.9S2462.8,1326,2462.8,1326z"/>
					</g>
					<path class="st6" d="M2143.4,1177.3l146.6-32.4c0,0,53-68.1,103.9-126.7c15,14.8,23.3,37.6,38.4,52.3l-111.9,123.8
						c-4,4.5-9.8,7-15.8,7l-155.4,0.5l-53.2,4.2v-34L2143.4,1177.3z"/>
					<path class="st4" d="M2386.8,1141.4c0,0,58-59.5,72.9-85.3s3.9-69.2-21.8-76s-107.6,102.5-107.6,102.5L2386.8,1141.4z"/>
					<g>
						<path class="st1" d="M1842.3,1010.5h241.8c6.4,0,12.2,3.9,14.6,9.8l74.4,181.6h133.3c3.7,0,6.7,3,6.8,6.7l0,0
							c0,3.7-3,6.7-6.8,6.7H1927c-10.4,0-19.9-6.1-24.2-15.6l-74.9-167c-3.5-7.9,0-17.3,8-20.8
							C1837.9,1010.9,1840.1,1010.5,1842.3,1010.5z"/>
						<path class="st0" d="M1972.5,1116.2c1.6,8.2,8.7,13.6,15.9,12.2s11.6-9.2,10-17.3s-8.8-13.6-15.9-12.2
							S1970.8,1108,1972.5,1116.2z"/>
					</g>
					<path class="st0" d="M2330.8,890.6l32.8-1.7c0,0-0.1,12.5-14.5,13.7C2331.5,904,2330.8,890.6,2330.8,890.6z"/>
					<path class="st9" d="M2228.3,1490l14.8-61.6c10.5-43.2,48.3-74.3,92.7-76.2l187.3-7.6l5.8-19.1l-193.9,7.8
						c-52.8,2.3-97.8,39.2-110.3,90.6l-15.7,65.4C2214.4,1489.6,2220.9,1489.8,2228.3,1490z"/>
					<path class="st10" d="M2479.6,1457.2c0,0-257.4,4.4-284.2,0s-38.4,29.2-30.4,46.9s30,24.4,62.5,26s302.4,9.2,310,2
						c6.2-5.9,88-285.7,117.8-388c5.9-20.4-5.8-41.8-26.2-47.8l0,0c-20.3-6-41.7,5.6-47.8,25.9L2479.6,1457.2z"/>
				</g>
				<polygon class="st1" points="2278.1,1878.4 2307.2,1878.4 2244.5,1220.7 2215.4,1220.7 				"/>
				<polygon class="st1" points="2030.6,1878.4 2001.5,1878.4 2064.3,1220.7 2093.4,1220.7 				"/>
				<g>
					<path class="st11" d="M1325,1114.4h3.7c1.3-13.7,4-27.2,7.8-40.4c16.1-54.2,9-61.2,36.1-95.1s29.1-104.2,29.1-104.2
						s13-79.8,0-114.9s-14-70.3-45.7-107.4c0,0-6,49.7-13.6,72.3s-14.7,44.2-9.1,98.4s9,58.7,10.3,72.8s-0.7,73.3,2.3,83.1
						s-17.6,77.5-19.1,106.7C1326.6,1094.3,1325.7,1104.2,1325,1114.4z"/>
					<path class="st12" d="M1336.6,1114.4c5.2-12.1,14.4-24.1,30.6-31.2c42.2-18.8,70.6-18.4,90.2-63.6s19.6-106.9,26.3-119.7
						c0,0-18.1-3-36.1,29.4s-30.3,56.5-40.8,75.3s-25.5,13.5-38.3,27.9c-10.7,12-20.6,39.9-24.4,54c-1.2,4.6-3,9-5.3,13.2
						c-2.1,3.8-4.6,8.3-6.2,11.6c-0.4,1-0.8,2.1-1,3.2L1336.6,1114.4z"/>
					<path class="st11" d="M1217.6,900.3c-3,38.7,21.6,35.6,22.6,60.2s33.1,66.3,48,95.9c7.8,15.4,10.6,38.9,11.6,58h12
						c-4.6-48.2-24.2-81.8-35.9-108.7c-15.1-34.6-17.3-50.5-4.5-77.5s-6-97.1,12.2-128.3s8.9-80.2,4.7-99s0.4-31.6,4.2-51.5
						s-4.2-48.7-4.2-48.7c-0.7,24.6-19.4,58.2-33,79.8s-39.2,80.3-36.1,106.9s1.5,28.6,1.5,28.6
						C1211.1,851.6,1220.6,861.7,1217.6,900.3z"/>
					<path class="st12" d="M1289.3,1083c1.5,4.6,6.5,16.4,11,31.4h7.3c-3.3-19.1-9.1-41.3-18.8-54c-19.6-25.6-58.7-36.6-63.3-55.2
						s0.5-74.3-28.1-105.4c0,0,4,34.6,0,43.9s-38.1,52.5-18.1,88.6c20,36.1,65.3,31.6,79.3,39.7S1286.8,1075.5,1289.3,1083z"/>
					<path class="st12" d="M1271.3,916.3c-0.5,37.1,28.6,51.2,28.1,71.8s6,42.7,11.5,59.2c3.5,10.5,1.6,39.7,0.9,67.1h8.1
						c2-20.1,4.3-49.2,3.5-62.1c-1-17.6,7-31.6,8-62.2s7.5-58.2-6-96.9s-11-84.8-67.8-127.5c0,0-10,45.2-2.5,69.8
						S1271.8,879.2,1271.3,916.3z"/>
					<path class="st10" d="M1328.7,1082.7H1251c-4.6,0-8.2,3.7-8.2,8.3c0,0.6,0.1,1.3,0.2,1.9l28.3,119.5c0.9,3.7,4.2,6.3,8,6.3
						h93.4c3.8,0,7.1-2.6,8-6.3l28.3-119.5c1.1-4.4-1.7-8.9-6.1-9.9c-0.6-0.1-1.3-0.2-1.9-0.2h-72.3V1082.7z"/>
				</g>
				<rect x="574.4" y="1522.5" class="st1" width="21.4" height="315.4"/>
				<g>
					<path class="st6" d="M899.5,1759.6c0,0,4.7,48.8,1.6,64.8c-0.6,2.7-1.4,5.3-2.4,7.8c-3.2,8.9,5.5,36.2,5.5,36.2l116.4,0.4
						c6.3,0,2.1-3.8-3.1-7.3c-8.4-5.8-15.2-9.6-42.1-21.6c-1.8-0.8-8.1-4.6-10.5-5.9c-5.8-3.3-11.7-8.6-16.8-13.8
						c-8.5-8.8-9.8-51.8-9.8-51.8L899.5,1759.6z"/>
					<path class="st13" d="M965,1834c-30.7,7.9-53.5,3-66.3-1.7c-3.2,8.9-9.1,39-5.6,39c29.2,0,53.9,5.3,137.5,4c3,0,2.6-9.9,0.7-12
						C1025.9,1857.3,967.3,1835.3,965,1834z"/>
					<path class="st6" d="M1031.2,1678.7c0,0,25.5,42.6,29.6,58.3c0.6,2.6,1,5.3,1.2,8c1,9.4,20.7,30.7,20.7,30.7l106.1-45.8
						c5.8-2.5,0.3-4.3-6-5.5c-10.2-1.9-18-2.7-47.7-2.9c-1.9,0-9.4-0.9-12.1-1.2c-6.8-0.7-14.4-3.1-21.3-5.9
						c-11.5-4.6-31.4-43.3-31.4-43.3L1031.2,1678.7z"/>
					<path class="st13" d="M1123.1,1720.3c-24.5,19.4-47.3,24-61,24.8c1,9.4,8.7,39.2,11.9,37.7c26.6-11.6,51.3-16.6,126.9-50.9
						c2.7-1.2-1.9-10-4.6-11.2C1188.7,1717.4,1125.8,1720.6,1123.1,1720.3z"/>
					<path class="st14" d="M669.2,1315.2v25.1l246.8,49.6l61.3,175.9l-34.1-22.3l7.9,270.8l-51.9,0.3c0,0-89.9-227.2-60.4-341.5
						l-273.1,4c0,0-123.8-45.7-59.9-183.5L669.2,1315.2z"/>
					<path class="st15" d="M669.2,1340.3c0,0,256,1.6,274.2,15s154.6,346,154.6,346l-59.5,21.2c0,0-118.4-188.7-124.6-202.2
						s-52.1-111.8-69.6-121.9S669.2,1340.3,669.2,1340.3z"/>
				</g>
				<path class="st2" d="M471.8,1851.3h212.6c9.8,0,17.7,7.9,17.7,17.7l0,0l0,0c0,1.7-1.4,3.1-3.1,3.1H457.2c-1.7,0-3.1-1.4-3.1-3.1
					l0,0C454.1,1859.2,462,1851.3,471.8,1851.3L471.8,1851.3z"/>
				<path class="st2" d="M567.6,1837.3h26c7.7,0,14,6.3,14,14l0,0c0,7.7-6.2,14-14,14h-26c-7.7,0-14-6.3-14-14l0,0
					C553.6,1843.6,559.8,1837.3,567.6,1837.3z"/>
				<path class="st3" d="M899.2,1183L732,1136.4c0,0-35.2-47.3-80.5-110.8c-14.8,14.7-23,37.2-38,51.7l110.7,122.4
					c4,4.4,9.7,7,15.6,7l153.6,0.5l52.6,4.2v-33.6L899.2,1183z"/>
				<path class="st4" d="M658.6,1147.5c0,0-57.4-58.8-72.1-84.4s10-8.9,35.4-15.7c9.6-2.5,7.2-58.8,25.3-40.5
					c29.8,30,67.2,82.5,67.2,82.5L658.6,1147.5z"/>
				<path class="st13" d="M577,981.2c0,0-51.5-10.2-75,9.5s5,194.2,5,223.1s-16.1,110.7-16.1,110.7s156,27.3,180.8-16.1
					c0,0,7.1-165.5,6-186.3s-24.2-105.9-30.6-115S577,981.2,577,981.2z"/>
				<path class="st6" d="M576.7,901.5c0,0-0.3,1.5-0.8,4.2c-2.3,12.6-11.3,54.3-17.4,65.7c-7.3,13.8,25.1,58,56.4,52.6
					c9.3-1.6-7.9-40.6-7-44.7c1.6-7.9,3.7-18.7,5.9-29.7c1.2-6.2,2.5-12.6,3.7-18.5l6.1-30.7L576.7,901.5z"/>
				<path class="st3" d="M575.9,905.7c0.5-2.6,0.8-4.2,0.8-4.2l46.8-1.2l-6.1,30.7c-1.2,5.9-2.4,12.2-3.7,18.4
					c-7.2-1.1-14.8-4.6-22.4-11.2c-7.7-6.8-13.6-15.4-16.9-25.2C575.1,910.2,575.6,907.6,575.9,905.7z"/>
				<path class="st6" d="M806.7,1177.4l-144.9-32.1c0,0-52.4-67.3-102.8-125.3c-14.8,14.7-23,37.2-38,51.7l110.7,122.4
					c4,4.4,9.7,7,15.6,7l153.6,0.5l52.6,4.2v-33.6L806.7,1177.4z"/>
				<path class="st4" d="M566,1141.9c0,0-57.4-58.8-72.1-84.4s-3.8-68.4,21.5-75.1c25.3-6.7,106.4,101.4,106.4,101.4L566,1141.9z"/>
				<g>
					<path class="st1" d="M1104.4,1012.4h-239c-6.3,0-12,3.8-14.4,9.7l-73.6,179.5H645.6c-3.7,0-6.7,3-6.7,6.7l0,0
						c0,3.7,3,6.7,6.7,6.7l0,0h375.1c10.3,0,19.7-6.1,23.9-15.5l74.1-165.1c3.5-7.9,0-17.1-7.8-20.6
						C1108.8,1012.9,1106.7,1012.4,1104.4,1012.4z"/>
					<path class="st0" d="M975.8,1116.9c-1.6,8.1-8.7,13.5-15.7,12s-11.5-9.1-9.9-17.2s8.7-13.4,15.7-12S977.4,1108.9,975.8,1116.9z
						"/>
				</g>
				<path class="st10" d="M474.3,1454.1c0,0,254.5,4.4,281,0s38,28.9,30.1,46.3s-29.7,24.2-61.8,25.7s-299,9.1-306.5,2
					c-6.1-5.8-87.1-282.4-116.5-383.6c-5.9-20.2,5.7-41.4,25.9-47.3l0,0c20.1-5.9,41.2,5.5,47.3,25.6L474.3,1454.1z"/>
				<polygon class="st1" points="871.8,1878.4 901,1878.4 838.2,1220.7 809.1,1220.7 				"/>
				<polygon class="st1" points="624.4,1878.4 595.2,1878.4 658,1220.7 687.1,1220.7 				"/>
				<path class="st2" d="M2363.9,1255.6H555c-2.8,0-5-2.3-5-5v-30.9c0-2.8,2.3-5,5-5h1808.8c2.8,0,5,2.3,5,5v30.9
					C2368.9,1253.3,2366.6,1255.6,2363.9,1255.6z"/>
				<path class="st2" d="M578.1,768.5c8.2,21.1-2.2,44.9-23.3,53.1c-21.1,8.2-44.9-2.2-53.1-23.3s2.2-44.9,23.3-53.1l0,0
					C546.1,736.9,569.9,747.4,578.1,768.5z"/>
				<path class="st16" d="M520.7,819.5c20,10.6,44.8,3,55.4-17c6.7-12.6,6.4-27.7-0.9-40c-1.3,0.4-2.6,0.8-3.9,1.2
					C543.9,773,526.1,794.9,520.7,819.5z"/>
				<path class="st2" d="M668.1,852.8c-7.7,36.8-29.9,58.5-66,56.8s-67.1-29.8-69.6-67.1c-2.9-43.2,32.6-81.9,79.8-79.6
					S677,810.2,668.1,852.8z"/>
				<path class="st6" d="M610.3,780.2c-13.8,2.8-26.2,10.5-34.7,21.6c-14.6,18.8-30.3,77.1,5.9,108.8s72.1-4.2,77.4-42.2
					S663.1,778.8,610.3,780.2z"/>
				<path class="st2" d="M632.7,780.4c0,0-47.3,54.3-69.6,56.9s-25.2,32-25.2,32s8-67.8,30-80.9S632.7,780.4,632.7,780.4z"/>
				<path class="st6" d="M570.3,850.5c1.8,9.8-1.8,18.9-8.1,20.2s-12.9-5.6-14.7-15.5s1.8-18.9,8.1-20.2S568.5,840.7,570.3,850.5z"
					/>
				<path class="st0" d="M636.6,888.2l-34.4-2.2c0,0,0,13.1,15.1,14.5C635.6,902.3,636.6,888.2,636.6,888.2z"/>
				<g>
					<path class="st17" d="M619.9,762.7c0,0-50.6-6.2-60,56.8l6.6,3.5C566.5,823,568.8,770.2,619.9,762.7z"/>
					<path class="st18" d="M587.1,895.1l0.3-2.9c-18.4-4-19.8-22.1-19.8-27.5l-1-0.1l-1,0.1C565.6,869,566.6,890.7,587.1,895.1z"/>
					<path class="st13" d="M584.3,893c-0.4,1.9,1.8,3.9,4.9,4.5s5.8-0.4,6.2-2.3s-1.8-3.9-4.9-4.5S584.7,891.1,584.3,893z"/>
					<g>
						<ellipse class="st19" cx="562.6" cy="845.8" rx="18.1" ry="26.3"/>
						<path class="st20" d="M541.8,845.8c0,14.5,8.1,26.3,18.1,26.3s18.1-11.8,18.1-26.3s-8.1-26.3-18.1-26.3
							S541.8,831.3,541.8,845.8z"/>
						<path class="st13" d="M548.4,845.8c0,8.8,4.9,16,11,16s11-7.2,11-16s-4.9-16-11-16S548.4,837,548.4,845.8z"/>
						<path class="st13" d="M568.4,845.8c0-8.4-4.4-15.2-10-16c0.3-0.1,0.7-0.1,1-0.1c6.1,0,11,7.2,11,16s-4.9,16-11,16
							c-0.3,0-0.7,0-1-0.1C564,861,568.4,854.2,568.4,845.8z"/>
					</g>
				</g>
				<g>
					<path class="st17" d="M2339.4,770.4c0,0,50.6-6.2,60,56.8l-6.6,3.5C2392.8,830.7,2390.5,777.8,2339.4,770.4z"/>
					<path class="st18" d="M2372.2,902.8l-0.3-2.9c18.4-4,19.9-22.1,19.8-27.5l1-0.1h1C2393.7,876.7,2392.7,898.3,2372.2,902.8z"/>
					<path class="st13" d="M2375.1,900.7c0.4,1.9-1.8,3.9-4.9,4.5s-5.9-0.4-6.2-2.3s1.8-3.9,4.9-4.5S2374.7,898.8,2375.1,900.7z"/>
					<g>
						<path class="st19" d="M2414.8,853.5c0,14.5-8.1,26.3-18.1,26.3s-18.1-11.8-18.1-26.3s8.1-26.3,18.1-26.3
							S2414.8,839,2414.8,853.5z"/>
						<ellipse class="st20" cx="2399.4" cy="853.5" rx="18.1" ry="26.3"/>
						<path class="st13" d="M2411,853.5c0,8.8-4.9,16-11,16s-11-7.2-11-16s4.9-16,11-16S2411,844.7,2411,853.5z"/>
						<path class="st13" d="M2391,853.5c0-8.4,4.4-15.2,10-16c-0.3,0-0.7-0.1-1-0.1c-6.1,0-11,7.2-11,16s4.9,16,11,16
							c0.3,0,0.7,0,1-0.1C2395.4,868.7,2391,861.9,2391,853.5z"/>
					</g>
				</g>
				<g>
					<rect x="1459.1" y="1095.6" class="st4" width="339.9" height="119"/>
					<rect x="1459.1" y="1117.4" class="st21" width="339.9" height="2"/>
					<rect x="1459.1" y="1137" class="st21" width="339.9" height="2"/>
					<rect x="1459.1" y="1156.7" class="st21" width="339.9" height="2"/>
					<rect x="1459.1" y="1176.3" class="st21" width="339.9" height="2"/>
					<path class="st21" d="M1631.5,1139c0,0-159.9,13.7-180,31c0,0,1-20.4,7.6-33l50.1,1.9L1631.5,1139z"/>
					<rect x="1459.1" y="1195.8" class="st21" width="339.9" height="2"/>
					<polygon class="st21" points="1718.1,1095.6 1718.1,1154.7 1718.1,1155.6 1718.1,1214.6 1799,1214.6 1799,1155.6 1799,1154.7 
						1799,1095.6 					"/>
				</g>
				<g>
					<path class="st13" d="M2395.4,308.4h-417.9c-20.4,0.1-36.9,16.6-36.9,37v244.3c0,20.4,16.5,36.9,36.9,37H2270
						c18.8,26.3,52.9,73.5,55.9,73.5c2.8,0-2.6-44.5-6.4-73.5h76c20.4-0.1,36.9-16.6,36.9-37V345.4
						C2432.4,325,2415.9,308.5,2395.4,308.4z"/>
					<path class="st0" d="M1992.9,379.3h133.2c0.9,0,1.7,0.7,1.7,1.7v13.4c0,0.9-0.7,1.7-1.7,1.7h-133.2c-0.9,0-1.7-0.7-1.7-1.7V381
						C1991.2,380.1,1992,379.3,1992.9,379.3z"/>
					<path class="st0" d="M1992.9,434h80c0.9,0,1.7,0.7,1.7,1.7v13.4c0,0.9-0.7,1.7-1.7,1.7h-80c-0.9,0-1.7-0.7-1.7-1.7v-13.4
						C1991.2,434.7,1992,434,1992.9,434z"/>
					<path class="st0" d="M2098.9,434h95.1c0.9,0,1.7,0.7,1.7,1.7v13.4c0,0.9-0.7,1.7-1.7,1.7h-95.1c-0.9,0-1.7-0.7-1.7-1.7v-13.4
						C2097.3,434.7,2098,434,2098.9,434z"/>
					<path class="st0" d="M2224.1,434h155.3c0.9,0,1.7,0.7,1.7,1.7v13.4c0,0.9-0.7,1.7-1.7,1.7h-155.3c-0.9,0-1.7-0.7-1.7-1.7v-13.4
						C2222.5,434.7,2223.2,434,2224.1,434z"/>
					<path class="st0" d="M2172.7,379.3h207.4c0.9,0,1.7,0.7,1.7,1.7v13.4c0,0.9-0.7,1.7-1.7,1.7h-207.4c-0.9,0-1.7-0.7-1.7-1.7V381
						C2171.1,380.1,2171.8,379.3,2172.7,379.3z"/>
					<path class="st0" d="M1992.9,541h387.3c0.9,0,1.7,0.7,1.7,1.7v13.4c0,0.9-0.7,1.7-1.7,1.7h-387.3c-0.9,0-1.7-0.7-1.7-1.7v-13.4
						C1991.2,541.8,1992,541,1992.9,541z"/>
					<path class="st0" d="M1992.9,488.1h173.9c0.9,0,1.7,0.7,1.7,1.7v13.4c0,0.9-0.7,1.7-1.7,1.7h-173.9c-0.9,0-1.7-0.7-1.7-1.7
						v-13.4C1991.2,488.9,1992,488.1,1992.9,488.1z"/>
					<path class="st0" d="M2204.7,488.1h175.5c0.9,0,1.7,0.7,1.7,1.7v13.4c0,0.9-0.7,1.7-1.7,1.7h-175.5c-0.9,0-1.7-0.7-1.7-1.7
						v-13.4C2203,488.9,2203.7,488.1,2204.7,488.1z"/>
				</g>
				<g>
					<path class="st20" d="M694.7,291.6h456.5c24.2,0,43.7,19.7,43.7,43.8l0,0v289c0,24.1-19.5,43.8-43.6,43.8l0,0h-308
						c-22.2,31.2-62.5,86.9-66.1,86.9c-3.3,0,3.1-52.7,7.6-86.9h-90c-24.1-0.1-43.7-19.7-43.6-43.8v-289
						C650.9,311.3,670.5,291.7,694.7,291.6C694.6,291.7,694.7,291.7,694.7,291.6z"/>
					<path class="st0" d="M1144,440.2H922.1c-0.7,0-1.3,0.6-1.3,1.3l0,0v17.1c0,0.7,0.6,1.4,1.3,1.4H1144c0.7,0,1.3-0.6,1.3-1.4
						v-17.1C1145.4,440.8,1144.8,440.2,1144,440.2L1144,440.2z"/>
					<path class="st0" d="M887.3,460H702.9c-0.9,0-1.7-0.7-1.7-1.7v-16.5c0-0.9,0.7-1.7,1.7-1.7h184.4c0.9,0,1.7,0.7,1.7,1.7v16.5
						C889,459.3,888.2,460,887.3,460z"/>
					<path class="st0" d="M948.2,395.4h-246c-0.9,0-1.7-0.7-1.7-1.7v-16.5c0-0.9,0.7-1.7,1.7-1.7h246c0.9,0,1.7,0.7,1.7,1.7v16.5
						C949.8,394.6,949.1,395.4,948.2,395.4z"/>
					<path class="st0" d="M1143.7,395.4h-150c-0.9,0-1.7-0.7-1.7-1.7v-16.5c0-0.9,0.7-1.7,1.7-1.7h150c0.9,0,1.7,0.7,1.7,1.7v16.5
						C1145.3,394.6,1144.6,395.4,1143.7,395.4z"/>
					<polygon class="st0" points="700.5,586.7 1145.3,586.7 1145.3,586.7 1145.3,566.9 700.5,566.9 					"/>
					<rect x="933.8" y="504.3" class="st0" width="211.6" height="19.8"/>
					<rect x="701.3" y="504.3" class="st0" width="211.5" height="19.8"/>
				</g>
			</g>
			<path class="st2" d="M2952.5,1880.1H3.4c-1.9,0-3.4-1.5-3.4-3.4v-1.2c0-1.9,1.5-3.4,3.4-3.4h2949.1c1.9,0,3.4,1.5,3.4,3.4v1.2
				C2955.9,1878.5,2954.4,1880.1,2952.5,1880.1z"/>
		</g>
	</g>
</g>
</svg>
