<svg xmlns="http://www.w3.org/2000/svg" viewBox="0 0 2955.9 1880.07">
  <defs>
    <style>
      .cls-1 {
        fill: #fff;
      }

      .cls-2 {
        fill: #a2dff2;
      }

      .cls-3 {
        fill: #35abdd;
      }

      .cls-4 {
        fill: #404040;
      }

      .cls-5 {
        fill: #ffb27d;
      }

      .cls-6 {
        fill: #e8945b;
      }

      .cls-7 {
        fill: #80bdcc;
      }

      .cls-8 {
        fill: #d54a41;
      }

      .cls-9 {
        fill: #f37168;
      }

      .cls-10 {
        fill: #5f9aa8;
      }

      .cls-11 {
        fill: #1470b3;
      }

      .cls-12 {
        fill: #f99746;
      }

      .cls-13 {
        fill: #f7cc7f;
      }

      .cls-14 {
        fill: #545454;
      }

      .cls-15 {
        fill: #6791c9;
      }

      .cls-16 {
        fill: #75a1de;
      }

      .cls-17 {
        fill: #ed975d;
      }

      .cls-18 {
        fill: #707070;
      }

      .cls-19 {
        fill: #82b378;
      }

      .cls-20 {
        fill: #a8d29f;
      }

      .cls-21 {
        fill: #ffb973;
      }

      .cls-22 {
        fill: #ed7d2b;
      }
    </style>
  </defs>
  <g id="Layer_2" data-name="Layer 2">
    <g id="Layer_3" data-name="Layer 3">
      <path class="cls-1" d="M2688.84,873.52a225.32,225.32,0,0,0,34.3-119.78c0-125.06-101.38-226.44-226.44-226.44a225.65,225.65,0,0,0-152.46,59c-56.33-91.68-157.53-152.82-273-152.82a318.63,318.63,0,0,0-174,51.41C1867.33,212.21,1636.28,0,1355.64,0,1160,0,988.41,103.18,892.33,258.08a318.84,318.84,0,0,0-142.68-33.49c-176.86,0-320.23,143.37-320.23,320.23a318.83,318.83,0,0,0,36.76,149.07c-12.11-1-24.37-1.58-36.76-1.58-236.91,0-429,192.05-429,429s192.06,429,429,429H2612.86c189.21,0,342.59-153.39,342.59-342.59C2955.45,1044.55,2841.48,908.09,2688.84,873.52Z"/>
      <g id="Consulting">
        <g>
          <path class="cls-2" d="M2415.39,507.25c-54.45,95.93-200.4,157.59-311.61,193.85-153,50.46-384.82,77.6-471-56.42-62.11-96.75,85.61-261.25,276-377l0,0c68.32-41.55,145.07-78.5,221.46-102.83C2351,94.66,2515.42,331,2415.39,507.25Z"/>
          <g>
            <path class="cls-3" d="M1605,192.21H1958.2a17.72,17.72,0,0,1,17.66,17.66V389a17.71,17.71,0,0,1-17.66,17.66h-29.86l14.41,60.89-90.5-60.89H1605A17.71,17.71,0,0,1,1587.38,389V209.87A17.72,17.72,0,0,1,1605,192.21Z"/>
            <g>
              <path class="cls-1" d="M1937.24,287.49h-312a7.73,7.73,0,0,1,0-15.45h312a7.73,7.73,0,0,1,0,15.45Z"/>
              <path class="cls-1" d="M1625.26,306.62h312a7.73,7.73,0,0,1,0,15.45h-312a7.73,7.73,0,0,1,0-15.45Z"/>
              <path class="cls-1" d="M1625.26,341.2h312a7.75,7.75,0,0,1,7.72,7.73h0a7.75,7.75,0,0,1-7.72,7.73h-312a7.75,7.75,0,0,1-7.72-7.73h0A7.75,7.75,0,0,1,1625.26,341.2Z"/>
              <path class="cls-1" d="M1767.27,233.78H1634.83a9.2,9.2,0,1,1,0-18.4h132.44a9.2,9.2,0,1,1,0,18.4Z"/>
              <rect class="cls-1" x="1794.13" y="215.38" width="94.23" height="18.4" rx="7.27"/>
            </g>
          </g>
          <g>
            <g>
              <path class="cls-4" d="M2217,255.87c-13.1-8-34,1.56-34,1.56,7.23-10.17,33.62-6.84,33.62-6.84C2164,239.4,2153,273,2152.14,276.16,2114,241.75,2053,315.09,2053,315.09l87.59,116.11s8-18.47,18.55-12.7c16.46,9,48.29-27.39,38.12-75.26a128.88,128.88,0,0,0-3.89-14.24,28.33,28.33,0,0,0,10.92,2.71c9.58,0,24-24.44,26-32.65S2230.06,263.88,2217,255.87Z"/>
              <path class="cls-5" d="M2224.87,654.7c4-63.86-27-133-52.31-152.81-4-3.14-7.84-5.15-11.42-5.88a6.63,6.63,0,0,1-2.36-1.29c-7.13-5.74-16.73-28.57-18.28-63.59q-.24-5.2-.22-10.75s0,0,0,0l-3.51.69-3.35.66h0l-55.68,11c.32,4,1.39,22.58,1.39,36.08,0,14.59-.84,28.42-4.15,30.16-.09,0-.92.07-1.79.16-2,.19-4.86.5-5.06.54a372,372,0,0,0-37.29,68.61v0h0c-8,19.74-14.56,41.75-16,63.21a143.63,143.63,0,0,0,2.48,36.49h0c3.13,16.86,8.41,34.54,11.55,54.05,26.27-6.13,51.51-13.3,74.9-21C2141.76,688.71,2183.8,673.36,2224.87,654.7Z"/>
              <path class="cls-6" d="M2077.73,432.75s1.34,18.58,1.39,36.08c33-.93,50.49-31.07,57.65-47.77Z"/>
              <path class="cls-4" d="M2142.86,414.63s17.32-27.35,21.47-50.74c3-16.7-5.54-78.6-67.74-69.68a84.55,84.55,0,0,0-35.05,13.25c-13.5,9.12-33,28.81-11.2,82.82l5.66,18.25Z"/>
              <path class="cls-5" d="M2066.7,449.32s78.16,1.29,78.21-47.4,10.18-81.31-39.72-84.19-59.62,15.69-63.59,31.93S2046.37,447.73,2066.7,449.32Z"/>
              <path class="cls-4" d="M2069.59,316.54s21.4,57.12,54.24,65.56,47.09-.35,47.09-.35-8.5-32.47-13.72-67.4C2157.2,314.35,2085.73,289.35,2069.59,316.54Z"/>
              <path class="cls-4" d="M2074.9,321.18s-16,12.75-19.88,25.15-5.65,37.92-13.09,37.05c0,0-16.12-38.82,2-60.79C2063.14,299.31,2074.9,321.18,2074.9,321.18Z"/>
              <path class="cls-5" d="M2262.21,635.54q-19.52,9.75-38.32,18.34-10.95,5-21.65,9.69c-.93.41-1.86.8-2.79,1.2-9.11-32.88-16.78-59.88-16.78-59.88l-5.77-25-11.64-50.43h0l-8.06-34.89s.55,0,1.58.18c2.57.29,8.08,1,15,2,12.55,2,29.74,5.4,42.28,10.45l.29.13c.23.08.45.18.67.27,6.34,2.65,11.38,5.74,13.86,9.31l0,0,0,0v0a10.38,10.38,0,0,1,.9,1.57C2242.4,541.85,2253,588.27,2262.21,635.54Z"/>
              <path class="cls-4" d="M2071.93,323.11s15.24,59.81,56.68,79c0,0-41.44-36.75-45-76.24S2071.93,323.11,2071.93,323.11Z"/>
              <path class="cls-5" d="M1964.75,630.74q-1.74,7.77-3.26,16.18c-2.69,14.76-4.86,31.07-6.35,49,0,0-65.57-40.94-80.14-62.25,0-1.76,1.08-20.91-.76-33.94-.68-4.79-1.76-8.75-3.43-10.72-.8-.93-1.69-1.92-2.66-2.93,0,0,0,0,0,0a98.46,98.46,0,0,0-10.77-9.54c-3.83-2.88-7.31-4.93-9.21-5h-.26a1.43,1.43,0,0,0-.41.1c-4.53,1.51-19,21.46-14.49,36.86,4.68,15.89,24.49,37.4,24.49,37.4s33.27,57.67,73.16,92.95c23.94-2.52,47.81-6.26,71.11-10.91,6-16.32,11.44-38.3,15.56-59.93h0c6.36-33.42,10.69-70,13.49-99.7h0v-.05c1.48-15.63,2.55-29.31,3.27-39.58.58-8.35.94-14.42,1.09-17.44.1-1.41.13-2.14.13-2.14a24.89,24.89,0,0,0-2.82,1.42C2022,516.51,1984.25,543.34,1964.75,630.74Z"/>
              <path class="cls-7" d="M2103.78,701.1c51.19-16.69,109.75-38.78,163.35-67.1-10.37-44.8-23.62-93.49-35.09-115.33a9.13,9.13,0,0,0-1.12-1.66v0l0,0,0,0a17.65,17.65,0,0,0-3.47-3.16l.18-.23a58.08,58.08,0,0,0-11.24-6.19l-.29-.13c-18.42-7.87-42.27-10.48-42.27-10.48v0c-.07.29-.5,2.18-1.2,5.12-1.5,6.28-4.24,17.3-7.3,27.54h0c-3.21,10.69-6.77,20.52-9.66,23.15-7,6.45-109.08,17-111.43,5.28-2.24-11.2,26.86-54.88,29-58.72-8.47.78-24.19,3.06-30.72,4.17-11.59,2-18.68,6.95-19.35,7.72-13.73,10.4-46,42.35-58.64,119.33l.28.37c2.24,2.93,17.42,22,38.18,28,.58.18,1.18.33,1.78.48-1.13,18.72-4.58,45.42-7.85,69.77A878.05,878.05,0,0,0,2103.78,701.1Z"/>
              <g>
                <path class="cls-8" d="M1903.5,591l-36.18,10.84a2.27,2.27,0,0,1-2.83-1.52l-20.68-69a2.27,2.27,0,0,1,1.53-2.82l36.18-10.84a2.26,2.26,0,0,1,2.82,1.52l20.68,69A2.26,2.26,0,0,1,1903.5,591Z"/>
                <path class="cls-9" d="M1894.1,593.81l-32.82,9.83a4,4,0,0,1-5-2.69l-19.67-65.63a4,4,0,0,1,2.7-5l32.82-9.84a4,4,0,0,1,5,2.7l19.67,65.63A4,4,0,0,1,1894.1,593.81Z"/>
              </g>
              <path class="cls-10" d="M2199,666c-3.43-9-7.44-16.64-10.09-16-2.5.58-10.8,12.16-18.11,27.37Q2184.88,671.9,2199,666Z"/>
              <path class="cls-5" d="M1844.79,574s11.42-10.36,20.74-.57-3.53,27.3-12.93,31.47-12.54,6.53-12.54,6.53Z"/>
            </g>
            <path class="cls-1" d="M2082,420.42s-1.35,5.74-15.63,4.85c0,0-12-.74-11.61-7C2054.73,418.23,2066.35,413.74,2082,420.42Z"/>
          </g>
        </g>
        <g>
          <polygon class="cls-11" points="1252.46 297.38 1372.96 336.77 1300.78 266.42 1293.45 283.61 1262.43 283.76 1252.46 297.38"/>
          <polygon class="cls-3" points="1372.96 336.77 1279.44 265.63 1179.51 242.8 1372.96 336.77"/>
          <polygon class="cls-3" points="1300.78 266.42 1372.96 336.77 1324.85 238.21 1300.78 266.42"/>
        </g>
        <g>
          <path class="cls-4" d="M1464.83,1309.7l15.9,90.09h0l43.91,248.83,39.25,222.45a7.17,7.17,0,0,0,7.11,5.84,5,5,0,0,0,5.08-5.63l-33.85-252.17L1506,1349.37l-5.46-40.69Z"/>
          <path class="cls-4" d="M636.39,1876.92a7.17,7.17,0,0,0,7.11-5.84l34.87-197.64,50.16-284.25,14-79.49-35.72-1-6.2,46.14-43.52,324.27-25.8,192.2A5,5,0,0,0,636.39,1876.92Z"/>
          <g>
            <path class="cls-12" d="M905.85,1383.91c-2.86-70.2-9-131.27-16.38-173.86-11.74-67.89-22.31-107-22.43-107.36-1.55-6-23.89-30.13-73.56-29.39s-45,32.43-45,32.43h0a10.4,10.4,0,0,0,.36,2.82c.48,1.63,46.08,167,44.1,380.43,0,3-.36,8.18-.15,11.63,0,0,115.12,3,115.14,0C912,1482,910,1430.26,905.85,1383.91Z"/>
            <path class="cls-13" d="M920.32,1487.93c0,3-1.6,5.36-3.52,5.36h0c-1.92,0-3.44-2.43-3.47-5.36H814.64c0,3-1.6,5.36-3.52,5.36h0c-2,0-3.5-2.51-3.48-5.52a1491.65,1491.65,0,0,0-8.18-168.53c-13.12-125.59-37.36-209.53-37.71-210.69a10.84,10.84,0,0,1-.35-2.82s-4.71-31.68,45-32.43,72,23.42,73.57,29.39c.09.31,6.08,22.43,14,62.19,2.64,13.17,5.48,28.28,8.4,45.16,7.36,42.6,13.52,103.67,16.37,173.87C922.87,1430.26,924.33,1469.28,920.32,1487.93Z"/>
            <path class="cls-13" d="M920.32,1487.93c0,3-1.6,5.36-3.52,5.36h0c-1.92,0-3.44-2.43-3.47-5.36H814.64c0,3-1.6,5.36-3.52,5.36h0c-2,0-3.5-2.51-3.48-5.52a1491.65,1491.65,0,0,0-8.18-168.53c16.31-79.7,79.35-140.66,94.5-154.36,2.64,13.17,5.48,28.28,8.4,45.16,7.36,42.6,13.52,103.67,16.37,173.87C922.87,1430.26,924.33,1469.28,920.32,1487.93Z"/>
            <path class="cls-12" d="M820.89,1486.91l.28-.19c.08-.06.14-.1.18-.5h.06a2.68,2.68,0,0,1,.79-2.09c3.13-3.2,15.07-3.07,30.18-2.9,16.51.19,37.06.43,57.55-3.17,10.59-1.85,3.45-83.4-4.08-159.69-1.28-13-2.29-23.21-2.74-29.23l-.57,0,.57,0c-4.9-64.88-33.23-180.1-33.49-181-1.26-4.86-18.28-22.81-55.24-22.25-13.89.2-23.76,3.64-29.34,10.21a19.52,19.52,0,0,0-4.64,14.54,7.73,7.73,0,0,0,.28,2.17c.15.63,25.69,149.66,29.86,185.39,6.85,58.79,9.61,181,9.74,187.76a1,1,0,0,0,0,.25v.34Zm22-6.88c-11,0-18.8.51-21.54,3.3l0,0c0-2.81-.19-8.07-.47-18-.32-11.66-.88-29.89-1.69-50.43-1.42-36-3.88-85.43-7.55-116.88-4.26-36.53-29.76-185.11-29.89-185.58a6.71,6.71,0,0,1-.24-1.93,18.74,18.74,0,0,1,4.39-13.75c5.36-6.29,14.94-9.59,28.47-9.79h1.68c35.13,0,51.26,16.81,52.45,21.43.28,1.06,28.55,115.73,33.46,180.79.46,6,1.47,16.29,2.75,29.26,2.78,28.27,6.6,67,8.43,99.57,2.66,47.72-.39,58.36-3.42,58.9-20.39,3.57-40.88,3.34-57.35,3.15C849,1480.06,845.87,1480,842.93,1480Z"/>
            <path class="cls-13" d="M800.31,1493.29h386.77s-9-36.45-233-31C795.57,1466.11,800.31,1493.29,800.31,1493.29Z"/>
            <path class="cls-14" d="M768.83,1874c44.84-227,33.31-366.33,33.26-368.08-.12-3.5,6.33-6.67,9.79-6.79s19-1,20.78,2C835,1505,844,1676.65,777.2,1874Z"/>
            <path class="cls-14" d="M1130,1874c-44.84-227-33.31-366.33-33.25-368.08.11-3.5-6.33-6.67-9.8-6.79s-19-1-20.78,2c-2.34,3.92-11.37,175.56,55.46,372.91Z"/>
            <path class="cls-4" d="M1201.52,1874c-44.84-227-33.31-366.33-33.26-368.08.12-3.5-6.33-6.67-9.79-6.79s-19-1-20.78,2c-2.35,3.92-11.38,175.56,55.46,372.91Z"/>
            <path class="cls-4" d="M840.88,1874c44.84-227,33.31-366.33,33.25-368.08-.11-3.5,6.33-6.67,9.8-6.79s19-1,20.78,2c2.34,3.92,11.37,175.56-55.46,372.91Z"/>
            <rect class="cls-12" x="792.62" y="1483.87" width="402.62" height="21.05" rx="7.92"/>
          </g>
          <g>
            <path class="cls-5" d="M1173.73,1155.63l128.56-27.85,7.57,18.46s-141.86,84.41-155.15,80.28S1173.73,1155.63,1173.73,1155.63Z"/>
            <path class="cls-5" d="M1056.84,1737.09c-3.22,3.69-3.63,7.81-2,12.22a.11.11,0,0,0,0,.06c3,8.14,12.69,17.24,24,26.32,1.44,1.16,2.73,2.23,3.85,3.21.29.26.59.51.86.77l.67.6c10.54,9.73,6.57,12,25.52,31.68,21.61,22.48,36.48,22.88,40.71,20.84,3.58-1.75-3.69-13.67-11.75-27.07-.39-.65-.77-1.3-1.17-2-1.08-1.78-2.14-3.59-3.21-5.38-9.44-16.12-7-23.69-4.78-47.69,1.82-19.5,30.34-109,30.34-109l-41.4-7.13s-12.47,71.23-26.21,82.2c-7.34,5.85-15.56,5.92-22.62,10.26-.5.3-1,.61-1.47.92C1064.15,1730.64,1060.07,1733.39,1056.84,1737.09Z"/>
            <path class="cls-8" d="M1056.84,1737.09c-3.22,3.69-3.63,7.81-2,12.22a.11.11,0,0,0,0,.06c3.61,8.13,13.1,17.18,24,26.23,1.42,1.19,2.69,2.28,3.81,3.3.29.26.59.51.86.77l.67.6c10.54,9.73,6.57,12,25.52,31.68,21.61,22.48,36.48,22.88,40.71,20.84,3.58-1.75-3.69-13.67-11.75-27.07a92.06,92.06,0,0,1-38.51-28.38c-13-16.6-21.69-37.93-30.54-50.28-.5.3-1,.61-1.47.92C1064.15,1730.64,1060.07,1733.39,1056.84,1737.09Z"/>
            <path class="cls-5" d="M1390.68,1711.23c2.56,12.78,20.77,10.65,41.12,5.68s15.52.93,44.49-2.27,37.74-14,38.62-18.32c.79-3.82-13.52-5.17-28.87-6.93-1.93-.22-3.87-.46-5.81-.7-17.34-2.17-30-13.36-45.77-22.54-14.91-8.7-37.17-44.15-37.17-44.15l-39.72,3.15s20.84,31.66,28.9,45.42c4.75,8.1,4.49,18.8,3.9,27.07C1390.07,1702.14,1389.77,1706.73,1390.68,1711.23Z"/>
            <path class="cls-8" d="M1431.8,1716.91c20.36-5,15.52.93,44.49-2.27s37.74-14,38.62-18.32c.79-3.82-13.52-5.17-28.87-6.93l-.15.29a81.65,81.65,0,0,1-41.48,12.9c-19.65.47-40.47-5.16-54-4.94-.3,4.5-.6,9.09.31,13.59C1393.24,1724,1411.45,1721.88,1431.8,1716.91Z"/>
            <path class="cls-5" d="M1302.29,1127.78s9.47-23.18,19.88-24.13,43.53-6.15,45.9-1.42,0,21.77-7.1,27.92-51.11,16.09-51.11,16.09Z"/>
            <path class="cls-15" d="M1238.45,1457.23l-85.62,230.39s-13.15,1.28-25.76-2.36c-11.6-3.34-24.9-12.12-24.9-12.12s21.24-221.22,60.18-267.24S1238.45,1457.23,1238.45,1457.23Z"/>
            <path class="cls-16" d="M899.83,1364s246-83.18,300.86-65.49S1420.28,1644,1420.28,1644s-3.71,4.94-13.86,8.75c-9.44,3.54-32.29,3.31-32.29,3.31s-148.66-127.42-166.36-164.59-24.78-72.56-42.47-69S937,1509.14,889.21,1459.58s-35.29-113.93-35.29-113.93Z"/>
            <path class="cls-4" d="M1050.16,977.05c3.93-8.11,8.32-22.51,10.47-48.19-.33,2.55-4.76,34.94-17.21,53.27-51.16,33.59-149.22,145.74-147.28,167,0,0-34.54-58.59-35.14-58.94,0,0-63.71-81,11.8-127.43,38.38-23.58,38.19-53.86,36.58-80.15s10.47-139.51,87.35-109.88c0,0,12.34-5.48,17.87-4.66,0,0-4.52.86-6.81,3.23,8.91-.53,21.65.13,32.29,6.18C1068.26,793.49,1093.48,937.18,1050.16,977.05Z"/>
            <path class="cls-5" d="M1040.39,983.8c.26.12-24.7,13.08-43.48,7.94C979.26,986.93,967.72,964,968,964c7.48-1.49,9.64-11.76,9.48-55.92l3.38.66L1037.66,920s-1.29,17.89-1.33,34.74C1036.29,968.87,1037.15,982.29,1040.39,983.8Z"/>
            <path class="cls-17" d="M1037.66,920s-1.29,17.89-1.33,34.74c-31.81-.9-48.62-29.91-55.51-46Z"/>
            <path class="cls-4" d="M975,902.53s-16.67-26.33-20.67-48.86c-2.86-16.08,5.33-75.68,65.22-67.09a81.35,81.35,0,0,1,33.75,12.75c13,8.79,31.77,27.75,10.79,79.76l-5.45,17.57Z"/>
            <path class="cls-5" d="M1048.29,935.94S973,937.18,973,890.3s-9.8-78.29,38.25-81.07,57.41,15.1,61.23,30.75S1067.86,934.41,1048.29,935.94Z"/>
            <path class="cls-4" d="M1045.5,808.08s-20.61,55-52.23,63.13-45.34-.34-45.34-.34,5.61-33.65,10.64-67.29C958.57,803.58,1030,781.91,1045.5,808.08Z"/>
            <path class="cls-4" d="M1040.39,812.55s15.39,12.28,19.14,24.21,5.44,36.52,12.61,35.68c0,0,15.52-37.38-1.93-58.53C1051.71,791.49,1040.39,812.55,1040.39,812.55Z"/>
            <path class="cls-9" d="M872.8,1186.27c-7.42-31.12,17.83-91.52,44.19-141.53,23.92-45.32,48.74-82.08,51-80.76,63.08,37.44,68.78,6.31,68.78,6.31h0s57.3,7.6,73.52,35.53c20.13,34.65,41.87,131.47,63.47,149.8-3.32,10.15-1.9,15.56,1.62,28.13q1.13,4,2.5,7.69a147.55,147.55,0,0,0,10.84,22.26c-11,6.67-32.18,19.35-47.8,10.23-23.81-13.93-42.38-56.35-52.84-73.25l-.12-.19c-22.72,128.64,8.18,157.94-7.46,171.5-16.52,14.32-40.12-6.82-92,15.68-34,14.77-81.3,36.13-113.12,39.85-16.68,2-29.13-1-33.19-12.21C830.32,1332.57,887,1245.61,872.8,1186.27Z"/>
            <path class="cls-1" d="M1031.55,907.52s1.41,6,16.22,5c0,0,12.44-.77,12.06-7.32C1059.83,905.24,1047.77,900.58,1031.55,907.52Z"/>
            <path class="cls-8" d="M842.12,1365.32c4.06,11.26,16.51,14.17,33.19,12.21,22-9.6,117.13-46.44,116.07-71.41-1.58-37-18.29-38.15-6.49-83.78,9.48-36.63-78.41-104.75-92.42-119.56-26.36,50-27.09,52.37-19.67,83.49C887,1245.61,830.32,1332.57,842.12,1365.32Z"/>
            <path class="cls-5" d="M999.94,1221.46s15.93-12.39,31-9.44,22.42,13.27,21.83,18-8.56,18-20.06,19.18-44.25-7.08-44.25-7.08Z"/>
            <path class="cls-9" d="M831.37,1232c16.87-23.69,34.44-36.21,46-42.51-2.66-6.86,71-97.1,71-111.08C948.32,1064.24,968,964,968,964s-61.33,3.79-82.57,33.4C858.83,1034.41,803.68,1177,831.37,1232Z"/>
            <path class="cls-5" d="M877.37,1189.48l122.57,32-11.51,20.65s-149.15-1-157.06-10.12S877.37,1189.48,877.37,1189.48Z"/>
            <path class="cls-8" d="M1088.05,1150.69c10.46,16.9,29,59.32,52.84,73.25,15.62,9.12,36.82-3.56,47.8-10.23a147.55,147.55,0,0,1-10.84-22.26c-8.77,2-19.46,4.56-26.35,6.64C1138.08,1202.15,1088.05,1150.69,1088.05,1150.69Z"/>
          </g>
          <path class="cls-14" d="M1638.64,1309.7l15.89,90.09h0l43.91,248.83,39.26,222.45a7.16,7.16,0,0,0,7.1,5.84,5,5,0,0,0,5.08-5.63L1716,1619.12l-36.2-269.75-5.47-40.69Z"/>
          <path class="cls-4" d="M1654.53,1399.79c-2.08-38.72,25.3-50.42,25.3-50.42l-5.47-40.69-35.72,1Z"/>
          <g>
            <path class="cls-14" d="M436.09,1876.92a7.18,7.18,0,0,0,7.12-5.84l34.87-197.64,50.15-284.25,14-79.49-35.73-1-6.19,46.14-43.52,324.27L431,1871.29A5,5,0,0,0,436.09,1876.92Z"/>
            <path class="cls-4" d="M500.34,1354.82c23.14,10.22,27.89,34.37,27.89,34.37l14-79.49-35.73-1Z"/>
          </g>
          <g>
            <path class="cls-4" d="M1208.38,1278.49h-144a11.48,11.48,0,0,1,11.48-11.48h132.51Z"/>
            <polygon class="cls-4" points="1207.97 1121.67 1430.6 1121.67 1377.19 1278.49 1153.13 1278.49 1207.97 1121.67"/>
            <polygon class="cls-4" points="1433.87 1121.66 1380.47 1278.49 1156.4 1278.49 1211.25 1121.66 1433.87 1121.66"/>
            <path class="cls-1" d="M1313.85,1198.63c-1.39,6-7.37,10.85-13.36,10.85s-9.73-4.86-8.34-10.85,7.36-10.85,13.35-10.85S1315.23,1192.64,1313.85,1198.63Z"/>
          </g>
          <g>
            <path class="cls-11" d="M413.8,665.27H774.43a18.1,18.1,0,0,1,18,18V866.24a18.09,18.09,0,0,1-18,18H743.94l14.73,62.18-92.42-62.18H413.8a18.08,18.08,0,0,1-18-18V683.31A18.09,18.09,0,0,1,413.8,665.27Z"/>
            <g>
              <path class="cls-1" d="M753,746.79H434.45a7.9,7.9,0,0,0-7.88,7.89h0a7.9,7.9,0,0,0,7.88,7.89H753a7.91,7.91,0,0,0,7.89-7.89h0A7.91,7.91,0,0,0,753,746.79Z"/>
              <path class="cls-1" d="M753,782.1H434.45a7.89,7.89,0,0,0,0,15.78H753a7.89,7.89,0,0,0,0-15.78Z"/>
              <path class="cls-1" d="M753,817.42H434.45a7.89,7.89,0,0,0,0,15.78H753a7.89,7.89,0,0,0,0-15.78Z"/>
              <path class="cls-1" d="M444.22,707.72H579.47a9.39,9.39,0,0,0,0-18.78H444.22a9.39,9.39,0,0,0,0,18.78Z"/>
              <rect class="cls-1" x="606.89" y="688.94" width="96.23" height="18.78" rx="7.42"/>
            </g>
          </g>
          <rect class="cls-18" x="371.36" y="1278.49" width="1433.9" height="62.42" rx="26.65" transform="translate(2176.63 2619.4) rotate(180)"/>
          <g>
            <g>
              <path class="cls-19" d="M1790.81,1663s34.39-40.12,2.12-65.6c0,0-23.56-14.27-42.78-13.11,0,0,27.23,45.66,18.42,50.21s-26.67-53.07-26.67-53.07-53.63-5.2-70.89,3.09c0,0,45.85,37.52,36.2,39.76s-59.18-34.6-59.18-34.6-49.92,8.5-47.26,38.95,19.86,39.85,27.42,39,51.78-17.69,52.75-11.49-25.66,26.43-44.3,27.38c0,0,35.19,38.81,58.58,27.61s25.39-29,40-35.62,27-6.64,21,.15-32.4,13.39-40.74,28.14-15.82,24.7,8.38,21.06,63.53-21.35,65.26-41.63Z"/>
              <g>
                <path class="cls-19" d="M1625.3,1629.42s135.57-5.23,165.51,33.55c0,0,6.63,19.83,27,37.89l3.18,8.65s-23.5-24.77-31.9-26.27C1789.09,1683.24,1802.23,1635.21,1625.3,1629.42Z"/>
                <path class="cls-19" d="M1817.81,1700.86s29.1,21.52,31.12,60l-5.28.48s-9.29-39.77-26.09-55.31S1817.81,1700.86,1817.81,1700.86Z"/>
              </g>
            </g>
            <g>
              <path class="cls-20" d="M1911,1612.52s-54.7-30.63-29.18-72.2c0,0,20.43-25.53,42.3-32.09,0,0-11.66,62,0,63.45s8-70,8-70,57.61-27.71,80.22-25.52c0,0-35.74,60.53-24.07,59.07s51.79-62.72,51.79-62.72,59.07-10.94,68.55,24.07-5.84,52.51-14.59,54.7-64.9,1.46-63.45,8.75,39.39,19,60.54,12.4c0,0-23.34,57.61-54,54.69s-40.11-21.87-59.08-23.33-32.81,3.64-23.33,8.75,41.57,1.67,56.88,14.69,27.72,21-.73,26.88-79.49,2.19-89.7-19.69Z"/>
              <g>
                <path class="cls-19" d="M2081.7,1507.5s-153.16,49.59-170.66,105c0,0,.73,24.8-14.59,53.24v10.94s16-37.2,24.8-42.3C1921.25,1634.4,1887,1586.26,2081.7,1507.5Z"/>
                <path class="cls-19" d="M1896.45,1665.76s-23.62,35.87-10.15,79.52l6.07-1.63s-5.89-48.09,6.46-72.27S1896.45,1665.76,1896.45,1665.76Z"/>
              </g>
            </g>
            <g>
              <path class="cls-20" d="M1824,1570.27s72.1-40.37,38.45-95.17c0,0-26.92-33.65-55.76-42.3,0,0,15.38,81.71,0,83.64s-10.57-92.29-10.57-92.29-76-36.53-105.75-33.65c0,0,47.1,79.79,31.72,77.87s-68.25-82.68-68.25-82.68-77.88-14.42-90.37,31.73,7.69,69.22,19.22,72.1,85.57,1.92,83.64,11.54-51.91,25-79.79,16.34c0,0,30.76,75.95,71.14,72.1s52.88-28.84,77.87-30.76,43.26,4.81,30.76,11.53-54.79,2.21-75,19.37-36.53,27.74,1,35.43,104.79,2.89,118.25-26Z"/>
              <g>
                <path class="cls-19" d="M1599.06,1431.84s201.88,65.37,225,138.43c0,0-1,32.69,19.22,70.18v14.42s-21.15-49-32.68-55.76C1810.56,1599.11,1855.74,1535.66,1599.06,1431.84Z"/>
                <path class="cls-19" d="M1843.24,1640.45s31.14,47.28,13.39,104.83l-8-2.15s7.77-63.39-8.51-95.27S1843.24,1640.45,1843.24,1640.45Z"/>
              </g>
            </g>
            <path class="cls-12" d="M1826.45,1870.09a141.24,141.24,0,0,1-141.24-141.24h282.47A141.24,141.24,0,0,1,1826.45,1870.09Z"/>
            <path class="cls-21" d="M1791.69,1869a143.08,143.08,0,0,0,17.55,1.08,141.24,141.24,0,0,0,141.23-141.24h-35.09A141.26,141.26,0,0,1,1791.69,1869Z"/>
            <path class="cls-12" d="M1683.26,1877.27h286.37a17.42,17.42,0,0,0-17.42-17.42H1700.68a17.42,17.42,0,0,0-17.42,17.42Z"/>
            <rect class="cls-22" x="1682" y="1728.85" width="290.33" height="4.33" transform="translate(3654.33 3462.03) rotate(180)"/>
          </g>
        </g>
        <g>
          <polygon class="cls-11" points="1378.84 960.38 1258.33 999.78 1330.51 929.43 1337.84 946.62 1368.86 946.77 1378.84 960.38"/>
          <polygon class="cls-3" points="1258.33 999.78 1351.86 928.63 1451.78 905.81 1258.33 999.78"/>
          <polygon class="cls-3" points="1330.51 929.43 1258.33 999.78 1306.44 901.22 1330.51 929.43"/>
        </g>
      </g>
      <rect class="cls-4" y="1872.09" width="2955.9" height="7.98" rx="3.38" transform="translate(2955.9 3752.15) rotate(180)"/>
    </g>
  </g>
</svg>
