<?xml version="1.0" encoding="utf-8"?>
<!-- Generator: Adobe Illustrator 24.3.0, SVG Export Plug-In . SVG Version: 6.00 Build 0)  -->
<svg version="1.1" id="Layer_1" xmlns="http://www.w3.org/2000/svg" xmlns:xlink="http://www.w3.org/1999/xlink" x="0px" y="0px"
	 viewBox="0 0 2955.9 1880.1" style="enable-background:new 0 0 2955.9 1880.1;" xml:space="preserve">
<style type="text/css">
	.st0{fill:#FFFFFF;}
	.st1{fill:#82B378;}
	.st2{fill:#A8D29F;}
	.st3{fill:#F99746;}
	.st4{fill:#FFB973;}
	.st5{fill:#ED7D2B;}
	.st6{fill:#707070;}
	.st7{fill:#F7CC7F;}
	.st8{fill:#404040;}
	.st9{fill:#FFB27D;}
	.st10{fill:#E0CFC7;}
	.st11{fill:#6791C9;}
	.st12{fill:#ED975D;}
	.st13{fill:#466EB6;}
	.st14{fill:#355389;}
	.st15{fill:#F2E5DE;}
	.st16{fill:#E8945B;}
	.st17{fill:#F37168;}
	.st18{fill:#D54A41;}
	.st19{fill:#75A1DE;}
	.st20{fill:#E58638;}
	.st21{fill:#DEF4F9;}
	.st22{fill:#35ABDD;}
	.st23{fill:#1470B3;}
</style>
<g id="Layer_2_1_">
	<g id="Layer_3">
		<path class="st0" d="M2688.8,873.5c22.5-35.9,34.4-77.4,34.3-119.8c0-125.1-101.4-226.4-226.4-226.4c-56.4-0.1-110.8,21-152.5,59
			c-56.3-91.7-157.5-152.8-273-152.8c-61.8-0.1-122.2,17.8-174,51.4C1867.3,212.2,1636.3,0,1355.6,0C1160,0,988.4,103.2,892.3,258.1
			c-44.3-22.1-93.2-33.6-142.7-33.5c-176.9,0-320.2,143.4-320.2,320.2c-0.1,51.9,12.5,103.1,36.8,149.1c-12.1-1-24.4-1.6-36.8-1.6
			c-236.9,0-429,192-429,429s192.1,429,429,429h2183.4c189.2,0,342.6-153.4,342.6-342.6C2955.4,1044.6,2841.5,908.1,2688.8,873.5z"
			/>
		<g>
			<g>
				<g>
					<path class="st1" d="M2356.8,1663c0,0-34.4-40.1-2.1-65.6c0,0,23.6-14.3,42.8-13.1c0,0-27.2,45.7-18.4,50.2
						s26.7-53.1,26.7-53.1s53.6-5.2,70.9,3.1c0,0-45.9,37.5-36.2,39.8s59.2-34.6,59.2-34.6s49.9,8.5,47.3,38.9s-19.9,39.8-27.4,39
						s-51.8-17.7-52.8-11.5s25.7,26.4,44.3,27.4c0,0-35.2,38.8-58.6,27.6s-25.4-29-40-35.6s-27-6.6-21,0.2s32.4,13.4,40.7,28.1
						s15.8,24.7-8.4,21.1s-63.5-21.3-65.3-41.6L2356.8,1663z"/>
					<g>
						<path class="st1" d="M2522.3,1629.4c0,0-135.6-5.2-165.5,33.6c0,0-6.6,19.8-27,37.9l-3.2,8.7c0,0,23.5-24.8,31.9-26.3
							C2358.5,1683.2,2345.4,1635.2,2522.3,1629.4z"/>
						<path class="st1" d="M2329.8,1700.9c0,0-29.1,21.5-31.1,60l5.3,0.5c0,0,9.3-39.8,26.1-55.3S2329.8,1700.9,2329.8,1700.9z"/>
					</g>
				</g>
				<g>
					<path class="st2" d="M2236.6,1612.5c0,0,54.7-30.6,29.2-72.2c0,0-20.4-25.5-42.3-32.1c0,0,11.7,62,0,63.4s-8-70-8-70
						s-57.6-27.7-80.2-25.5c0,0,35.7,60.5,24.1,59.1s-51.8-62.7-51.8-62.7s-59.1-10.9-68.6,24.1s5.8,52.5,14.6,54.7
						c8.8,2.2,64.9,1.5,63.4,8.8s-39.4,19-60.5,12.4c0,0,23.3,57.6,54,54.7s40.1-21.9,59.1-23.3s32.8,3.6,23.3,8.8
						s-41.6,1.7-56.9,14.7s-27.7,21,0.7,26.9s79.5,2.2,89.7-19.7L2236.6,1612.5z"/>
					<g>
						<path class="st1" d="M2065.9,1507.5c0,0,153.2,49.6,170.7,105c0,0-0.7,24.8,14.6,53.2v10.9c0,0-16-37.2-24.8-42.3
							C2226.4,1634.4,2260.7,1586.3,2065.9,1507.5z"/>
						<path class="st1" d="M2251.2,1665.8c0,0,23.6,35.9,10.1,79.5l-6.1-1.6c0,0,5.9-48.1-6.5-72.3S2251.2,1665.8,2251.2,1665.8z"/>
					</g>
				</g>
				<g>
					<path class="st2" d="M2323.6,1570.3c0,0-72.1-40.4-38.4-95.2c0,0,26.9-33.7,55.8-42.3c0,0-15.4,81.7,0,83.6
						s10.6-92.3,10.6-92.3s76-36.5,105.8-33.7c0,0-47.1,79.8-31.7,77.9s68.3-82.7,68.3-82.7s77.9-14.4,90.4,31.7
						s-7.7,69.2-19.2,72.1s-85.6,1.9-83.6,11.5s51.9,25,79.8,16.3c0,0-30.8,75.9-71.1,72.1s-52.9-28.8-77.9-30.8
						s-43.3,4.8-30.8,11.5s54.8,2.2,75,19.4s36.5,27.7-1,35.4s-104.8,2.9-118.3-26L2323.6,1570.3z"/>
					<g>
						<path class="st1" d="M2548.6,1431.8c0,0-201.9,65.4-225,138.4c0,0,1,32.7-19.2,70.2v14.4c0,0,21.1-49,32.7-55.8
							C2337.1,1599.1,2291.9,1535.7,2548.6,1431.8z"/>
						<path class="st1" d="M2304.4,1640.4c0,0-31.1,47.3-13.4,104.8l8-2.2c0,0-7.8-63.4,8.5-95.3S2304.4,1640.4,2304.4,1640.4z"/>
					</g>
				</g>
				<path class="st3" d="M2321.2,1870.1c-78,0-141.2-63.3-141.2-141.2h282.5C2462.5,1806.9,2399.2,1870.1,2321.2,1870.1
					C2321.2,1870.1,2321.2,1870.1,2321.2,1870.1z"/>
				<path class="st4" d="M2286.4,1869c5.8,0.7,11.7,1.1,17.6,1.1c78,0,141.2-63.2,141.2-141.2h-35.1
					C2410.1,1800.1,2357.1,1860.1,2286.4,1869z"/>
				<path class="st3" d="M2464.4,1877.3H2178c0-9.6,7.8-17.4,17.4-17.4H2447C2456.6,1859.8,2464.4,1867.6,2464.4,1877.3
					L2464.4,1877.3z"/>
				<rect x="2175.3" y="1728.8" class="st5" width="290.3" height="4.3"/>
			</g>
			<g>
				<g>
					<g>
						<path class="st6" d="M1653.9,469.7c6.4-1.9,96.1-1.4,95.7,2.4s-1.9,55.9-2.7,60.9c0.3,11.2-14.3,27.1-47.3,27.9
							s-48.3-14.4-48.6-25.6c-1.4-5.7-5.6-60.7-5.6-60.7L1653.9,469.7z"/>
						<path class="st7" d="M1804.1,335.5c-0.8-33.6-28.8-103.9-109.8-103.9c-85.4,0-109.1,74.1-109.9,102.4
							c-1.2,39.7,20.6,71.1,46.9,94.7c14.1,12.6,14.1,45.9,14.1,45.9l104.2-2.5c0,0-2.4-29.3,14-44.7
							C1787.9,404.5,1805,372.5,1804.1,335.5z"/>
						<path class="st3" d="M1641.4,359.2l-14.6-6.3c-1.8-0.8-1.7-2.1,0.2-2.9l0,0c2-0.7,4.3-0.7,6.3,0l8.2,3.5
							c0.7,0.3,1.5,0.3,2.1,0l14-6.5c0.7-0.3,1.4-0.3,2.1-0.1l16.6,5.9c0.7,0.2,1.4,0.2,2-0.1l1.6-0.7c7.7-3.5,20.4-3.8,28.2-0.7
							l1.7,0.7c0.6,0.2,1.4,0.2,2,0l17.5-6.9c0.7-0.2,1.4-0.2,2.1,0l12.6,5.8c0.7,0.3,1.4,0.3,2.1,0l10.6-4.4c2-0.7,4.2-0.7,6.3,0
							l0,0c1.8,0.8,1.7,2.1-0.2,2.9l-17.3,7.1c-0.7,0.3-1.4,0.3-2.1,0l-12.7-5.9c-0.7-0.2-1.4-0.2-2.1,0l-17.1,6.7
							c-0.6,0.2-1.4,0.2-2,0l-1.2-0.5c-7.8-3.2-20.6-2.9-28.2,0.7l-1.2,0.5c-0.6,0.2-1.3,0.3-2,0.1l-16.6-6c-0.7-0.2-1.4-0.2-2,0.1
							l-14.6,6.7C1642.9,359.5,1642.1,359.5,1641.4,359.2z"/>
						<g>
							<path class="st6" d="M1714.2,487.7c1.2,0,2.3-1,2.3-2.3c0,0,0,0,0,0c0-40.8,4.4-86.1,36.7-140.8c0.6-1.1,0.1-2.5-1-3
								c-1-0.5-2.3-0.2-2.9,0.8C1716.5,398,1712,444,1712,485.5C1712,486.7,1713,487.7,1714.2,487.7z"/>
							<path class="st6" d="M1674.3,487.7c1.2,0,2.3-1,2.3-2.3c0,0,0,0,0,0c0-41.4-4.5-87.4-37.3-143.1c-0.6-1.1-2-1.4-3.1-0.8
								c-1.1,0.6-1.4,2-0.8,3.1l0,0c32.2,54.8,36.7,100,36.7,140.8C1672,486.7,1673,487.7,1674.3,487.7z"/>
						</g>
						<path class="st8" d="M1747.1,495.3l-98.2,2.3c-4,0.1-7.3-3.1-7.4-7v-0.5c-0.1-4,3-7.3,7-7.4l98.2-2.3c4-0.1,7.3,3,7.4,7v0.6
							C1754.2,491.9,1751.1,495.2,1747.1,495.3z"/>
						<path class="st8" d="M1747.5,513.7l-98.2,2.3c-4,0.1-7.3-3-7.4-7v-0.6c-0.1-4,3-7.3,7-7.4l98.2-2.3c4-0.1,7.3,3,7.4,7v0.6
							C1754.7,510.3,1751.5,513.6,1747.5,513.7C1747.5,513.7,1747.5,513.7,1747.5,513.7z"/>
						<path class="st8" d="M1747.6,532.4l-98.2,2.3c-4,0.1-7.3-3-7.4-7v-0.6c-0.1-4,3-7.3,7-7.4l98.2-2.3c4-0.1,7.3,3,7.4,7v0.6
							C1754.7,528.9,1751.6,532.2,1747.6,532.4z"/>
					</g>
					<g>
						<g>
							<path class="st9" d="M2174.9,1119.6l-2.8,17.7c0,0-19.9,29.3,12.1,50.1c0,0,14,7.7,17.1-3s0.2-6.9,5-21.9s1.5-30.2-8.5-36.5
								l-6.9-10.7L2174.9,1119.6z"/>
							<path class="st10" d="M2186.4,1136.5c-14.2,1.9-16.1,0.5-16.1,0.5s-43.6-130.5-48.3-142.6s-114.3-158.3-114.3-158.3
								l56.8-120.2c0,0,114.7,221.4,125.8,252.2c18.4,50.9,14.7,160.7,14.7,160.7C2199.6,1132.9,2193.2,1135.5,2186.4,1136.5z"/>
							<path class="st9" d="M2207,1138.9c0,0,2.6,14.2,5.6,18.4s5.9,7.9,3.3,10s-13.8-9-14.2-11.3S2207,1138.9,2207,1138.9z"/>
						</g>
						<g>
							<path class="st11" d="M2314.9,1365.7l-200.6,28.6c-26.2,3.7-50.4-14.5-54.2-40.7l-12.4-86.9c-3.7-26.2,14.5-50.4,40.7-54.2
								l200.6-28.6c26.2-3.7,50.4,14.5,54.2,40.7l12.4,86.9C2359.3,1337.7,2341.1,1361.9,2314.9,1365.7z"/>
							<path class="st8" d="M2382.2,1308.7l-12.5-87.9c-3.8-26.3-28.1-44.5-54.4-40.8l-68.9,9.8l-2.7-18.8
								c-1.2-8.7-9.3-14.7-18-13.5c0,0,0,0,0,0l-59.9,8.5c-8.7,1.2-14.7,9.3-13.5,18c0,0,0,0,0,0l2.7,18.8l-39.9,5.7
								c-26.3,3.8-44.5,28.1-40.9,54.4l12.5,87.9c3.8,26.3,28.1,44.5,54.4,40.9l200.2-28.5C2367.6,1359.3,2385.9,1335,2382.2,1308.7
								z M2162.1,1182.6c-0.5-3.2,1.8-6.2,5-6.7l59.9-8.5c0.6-0.1,1.2-0.1,1.8,0c2.6,0.4,4.6,2.4,4.9,5l2.7,18.8l-71.6,10.2
								L2162.1,1182.6z"/>
						</g>
						<path class="st9" d="M2063,710.6c0,0-44.8,37.1-88.5,10.2c0,0-5.7-26.3-2.5-44.3c0.4-2.2,0.7-4.4,1.1-6.4
							c3.4-20.3,4.8-31.8,4.8-31.8h0.1c2.3-0.5,77.2-16.5,76.7-14.1C2043.4,678.8,2063,710.6,2063,710.6z"/>
						<path class="st12" d="M2045.2,636c-9,11.2-36.4,31.4-72.2,34.1c3.4-20.3,4.8-31.8,4.8-31.8h0.1
							C1979.9,638.1,2047.8,632.7,2045.2,636z"/>
						<path class="st9" d="M1963.6,633.5c0,0,75,32.6,94.6-14.4c19.6-47,42.5-74.5-4.6-97.3s-63.9-8.8-74.3,5.3
							S1944.6,623.8,1963.6,633.5z"/>
						<path class="st8" d="M2053.1,632c0.9,0.9,16.9,9.1,60.3-48.7c6.8-9.1,14.2-30,5.9-51.3s-46.9-43.7-80.1-56.5
							s-45,5.1-56.6,23.1c-12.2,18.9-39.8,31.2-39.8,31.2c26.7,22,66.7,4.8,78.4,10.9s12.5,26.5,12.3,32.9s0.3,11.9,16.9,9.1
							s3,23.3-0.4,28.2C2049.9,611,2045.3,624.7,2053.1,632z"/>
						<g>
							<path class="st8" d="M2167.1,1872h48.2c10.1,0,21.3-10.1,24.1-28.6s23.6-28.7,28.1-43.8S2249,1763,2249,1763l-3.9-5l-4-5.2
								l-38.2,9c0,0-0.9,9.1-1.5,20.7c-0.4,8.4-0.6,18-0.2,26.5c1.1,20.2-5.7,42-23.6,45.9S2167.1,1872,2167.1,1872z"/>
							<path class="st8" d="M1831.5,1872h127.8c0.9-0.1,1.8-0.4,2.7-0.8c8.5-4.3,5.9-36.9,4.8-47c-0.2-1.9-0.3-3-0.3-3
								s-44.9-35.9-51.1-8.4c-0.2,0.9-0.4,1.7-0.7,2.5l0,0c-7.8,25.8-42.7,37.4-62.8,40.7C1836.5,1858.5,1832.6,1867.5,1831.5,1872z
								"/>
							<path class="st13" d="M1857.3,1135c0,0,6.8,85.2,14.8,187.5c10.9,139,24,309.8,25.3,342.2c2.2,56.2,11.2,146,11.2,146
								s21.3,21.3,64,12.3c0,0,38-128.3,48.9-264c0.2-2.2,0.3-4.5,0.5-6.7c10.1-138.2,25.8-429.2,25.8-429.2L1857.3,1135z"/>
							<path class="st14" d="M1857.3,1135c0,0,6.8,85.2,14.8,187.5l149.5,236.6c0.2-2.2,0.3-4.5,0.5-6.7
								c10.1-138.2,25.8-429.2,25.8-429.2L1857.3,1135z"/>
							<path class="st13" d="M1888.4,1145.1c0,0,123,308.4,203.9,453.3s106.2,185.4,106.2,185.4s46.3-18.5,50.6-31.2
								c0,0-30.9-279.8-85.1-348c-30.6-38.5-66.6-154.2-68.3-194.6s-10.9-120.5-10.9-120.5L1888.4,1145.1z"/>
						</g>
						<path class="st15" d="M1850.8,1164.6c1.3,1.3,3.1,2.1,4.9,2.3c18,1,69.8,14.5,114.6,13c37.7-1.1,71.6-9.9,108.3-23.5
							c4.9-1.8,16.2-6.9,16.3-12.2c0.2-5.8,0.2-14.2,0.2-24.9c-0.1-36.9-0.1-100.4,9-173.1c1.7-13.5,3-27,4-40.2
							c2.4-34.6,2.4-67.8-0.4-97.9c-5.1-55.8-19.4-100.4-43.7-121.3c-3.2-2.6-24.5,6.1-44.2,14.2c-18.1,7.5-35.7,7.2-52.1,2.8
							l-17.5,13.5c-21.4,17.4-45.3,41.3-57.5,79.3c-18.2,56.3-32.2,208-34,236.1C1857.6,1040.1,1848.8,1162.7,1850.8,1164.6z"/>
						<path class="st10" d="M1878.3,863.8c3.3-20.1,8.7-47.8,15-67.2c10.5-32.6,29.5-54.9,48.3-71.5c28.6,9.3,58.9,21.1,71.5,32.5
							c26.8,24.3,22.7,74.2,22.7,74.2s-61.4,117.2-176.4,192.8C1862.6,985.3,1870.2,913.4,1878.3,863.8z"/>
						<g>
							<path class="st9" d="M1682.8,562.2c0.6-8.5,1.8-27.5-0.7-27c-1.8,0.4-3.9,2.6-5.5,5.8c-1.7,7-14.7-2-22-21.2
								c-4.2-10.9-6.2-21.5-7.8-21.5c-3.2,0-10.3,9-11,28.3s4.8,41.4,20.4,52l10.4,12.3l23.4-11.8
								C1690,579.2,1686.3,570.9,1682.8,562.2z"/>
							<path class="st15" d="M1672.1,573.1c12.5-8.7,18.7-3.3,18.7-3.3s103.4,117.8,113.7,126.9s168,45.1,168,45.1
								s63.7,11.8,72.6,47.5c7.8,31-6.5,53.5-23.9,68.7c-20.8,18-50.5,21.5-74.9,8.8c-54.8-28.5-163.6-86-182.6-103.5
								c-42.3-39-106-173.8-106-173.8C1661.2,582.9,1666.1,577.3,1672.1,573.1z"/>
						</g>
					</g>
				</g>
				<g>
					<path class="st7" d="M1690,163.1c-1.3,0-2.5-1-2.7-2.3c-0.1-0.6-8.5-58,4.9-127.5c0.2-1.5,1.6-2.5,3.1-2.3
						c1.5,0.2,2.5,1.6,2.3,3.1c0,0.1,0,0.2-0.1,0.3c-13.2,68.6-5,125.1-4.9,125.6c0.2,1.5-0.8,2.9-2.3,3.1c0,0,0,0,0,0L1690,163.1z"
						/>
					<path class="st7" d="M1573,234.3c-0.9,0-1.8-0.5-2.3-1.2c-0.3-0.4-28.3-42.6-92.6-87.7c-1.2-0.9-1.5-2.6-0.7-3.8
						c0.9-1.2,2.6-1.5,3.8-0.7c65.1,45.7,93.7,88.7,94,89.2c0.8,1.3,0.5,3-0.8,3.8C1574.1,234.1,1573.5,234.3,1573,234.3L1573,234.3
						z"/>
					<path class="st7" d="M1815.2,208.2c-1.5,0-2.7-1.2-2.7-2.7c0-1,0.5-1.9,1.4-2.4c0.6-0.3,55.1-31.4,75.2-78
						c0.7-1.3,2.3-1.9,3.7-1.2c1.2,0.6,1.8,2,1.3,3.3c-20.9,48.3-75.2,79.3-77.5,80.6C1816.1,208,1815.7,208.2,1815.2,208.2z"/>
					<path class="st7" d="M1983.2,319.1c-0.2,0-0.3,0-0.5,0c-17-3.2-127,0-128.2,0c-1.5,0.1-2.8-1-2.9-2.5c-0.1-1.5,1-2.8,2.5-2.9
						c0.1,0,0.2,0,0.3,0c4.6-0.1,111.8-3.2,129.3,0c1.5,0.3,2.4,1.7,2.2,3.2C1985.7,318.1,1984.5,319,1983.2,319.1L1983.2,319.1z"/>
					<path class="st7" d="M1422.5,362.1c-1.5,0-2.7-1.2-2.7-2.7c0-1.2,0.8-2.3,2-2.6c60.8-18,127.8-18.2,128.4-18.2
						c1.5,0,2.7,1.2,2.7,2.7c0,1.5-1.2,2.7-2.7,2.7c-0.7,0-66.9,0.2-126.9,18C1423,362.1,1422.7,362.1,1422.5,362.1z"/>
				</g>
			</g>
			<g>
				<path class="st9" d="M784,1017.8c66.8-17,140.3-120.7,140.3-120.7l-18.8-16.3C886,903.7,805,943.3,805,943.3
					c0.4-21-0.1-40.2-1.4-57.7c-9-118.6-53.7-158.2-65.9-166.8c-1-0.7-2-1.4-3.1-2c0,0,0,0.9-0.1,2.5c-0.2,3.5-0.5,10.6-0.8,20.4
					C731.1,812.3,728.1,1032.1,784,1017.8z"/>
				<path class="st9" d="M905.5,880.8c0.3-2.8,2.2-43.6,10.3-51.3s24.1-18.3,28.7-17.5s20.2,26.8,12.8,44.7s-32.9,40.4-32.9,40.4
					L905.5,880.8z"/>
				<path class="st16" d="M638.4,1707.6c4.1,16.2,8.5,31.6,13.1,46c1,3.1,2,6.1,2.9,9.1c0.5,1.5,1,2.9,1.5,4.4
					c1,2.8,1.9,5.6,2.9,8.3c1.2,3.6,2.5,7,3.7,10.4c0.9,2.5,1.8,4.9,2.7,7.3c13.6,36.4,24.9,59.4,24.9,59.4l27-1.9
					c0,0-10.1-48.3-12.2-117.3c-0.1-2.5-0.1-5-0.2-7.5c-0.1-5.3-0.2-10.8-0.2-16.4c0-2.3,0-4.6,0-6.9c0.5-59.5,7.9-129.8,31.4-197
					c17.4-49.7,31.8-100.4,43-151.8c32.3-149,24.8-246.9,24.8-246.9l-152,17.8l-7.1,0.8c-0.7,69.8-2.4,164.6-4,238.6
					c-0.3,12.9-0.5,25.1-0.8,36.5c-1,47.6-1.8,80.1-1.8,80.1C608.8,1543.3,619.5,1632.1,638.4,1707.6z"/>
				<path class="st8" d="M681.9,584.9c0,0-36,30.6-3,65.8c0,0-27.5,2.7-36.8-4.9c0.9,1.9,2.1,3.7,3.5,5.4c0,0-30.7,1.1-43.4-8.5
					S597.8,476,683,493.6c0,0,72.3-5.5,65.5,78.1s20.5,83.6,20.5,83.6s-7.6,3.7-11.3,3.7c0,0-5.3-2-6.4-5c0,0,1.1,4.6,2.4,6.1
					c0,0-29.4,2.8-44.1-8.3S677.7,602.1,681.9,584.9z"/>
				<path class="st9" d="M565.9,1089.5c28.7-64.4,42.5-82.6,42.9-102.9c0.4-16-7.5-33.3-22.9-75.7c-3.6-9.9-6.1-20.2-7.7-30.7
					c-12.1-81.7,35.1-170.1,64.5-176.1c8.2-2.2,22-31.7,21.9-79.3l3.7,0.7l61.9,12.3c0,0-1.4,19.5-1.5,37.8
					c0,15.3,0.8,30.8,4.2,32.7c4.5,0.4,8.5,1.2,8.5,1.2s52.3,36.8,55.7,86.6c4.5,66.6-42.4,145.6-0.8,278.7
					C839,1210.9,550,1125.1,565.9,1089.5z"/>
				<path class="st16" d="M730.2,637.9c0,0-1.4,19.5-1.5,37.8c-34.6-1-52.9-32.5-60.4-50L730.2,637.9z"/>
				<path class="st8" d="M662,618.9c0,0-18.1-28.7-22.5-53.2c-3.1-17.5,5.8-82.4,71-73c13.1,1.8,25.7,6.6,36.7,13.9
					c14.2,9.6,34.6,30.2,11.7,86.8l-6,19.1L662,618.9z"/>
				<path class="st9" d="M741.8,655.3c0,0-81.9,1.3-82-49.7s-10.7-85.2,41.6-88.2s62.5,16.4,66.6,33.5S763.1,653.6,741.8,655.3z"/>
				<path class="st8" d="M738.8,516.2c0,0-22.4,59.8-56.8,68.7s-49.3-0.4-49.3-0.4c8.4-21.8,14.5-44.3,18.1-67.4
					C650.6,517.1,721.8,487.7,738.8,516.2z"/>
				<path class="st8" d="M733.2,521c0,0,16.7,13.4,20.8,26.3s5.9,39.7,13.7,38.8c0,0,16.9-40.7-2.1-63.7
					C745.5,498.1,733.2,521,733.2,521z"/>
				<path class="st9" d="M459.4,1158l24.6,7.4c0,0,81.1-134.6,88.5-169.6c2.4-11.4,8.3-34.2,15.2-59.8
					c14.2-52.9,32.6-117.7,32.6-117.7l6-26.2l20.7-89.5c0,0-39.5,4-62.7,13.7c-7.7,3.2-13.5,7-15.5,11.5
					c-17,37.3-34,131.6-45.9,198.8c-6.6,37.5-11.7,66.6-14.4,72.7C501.2,1016.6,478.6,1111.3,459.4,1158z"/>
				<path class="st8" d="M736.3,523c0,0-16,62.7-59.4,82.7c0,0,43.4-38.5,47.1-79.9S736.3,523,736.3,523z"/>
				<path class="st9" d="M551.3,1694.5c8.8,93.2,47.2,153.5,47.2,153.5l13.1,12c0,0,12-68.3,20.6-146.4
					c8.2-74.3,19.5-152.9,32.3-176.9c19.1-35.8,33.2-109.2,43.3-186.6c16.7-128.2,22.7-267.8,22.7-267.8l-154.1-7.6
					c-15.5,26.1-22.3,68.8-23.8,117.4c-1.7,51.1,2.3,108.6,7.9,160.1c7.8,72,18.6,132,21.2,145.5c0,0,0,0,0,0.1
					c0.3,1.8-0.1,3.6-1,5.2C549.9,1563.4,545.5,1632.9,551.3,1694.5z"/>
				<path class="st17" d="M731,875.4c3.5,84.6,16.1,168.4,53,163c45.2-6.6,56.9-48.8,59.3-80.1c0.9-11.6,0.7-23.3-0.7-34.8
					c0,0-22.2-0.1-25.8-3.4c-17.1-15.8-12-170.4-20.5-186.5s-63.3-26.4-63.3-26.4S727.6,791.8,731,875.4z"/>
				<path class="st18" d="M731,875.4c3.5,84.6,16.1,168.4,53,163c45.2-6.6,56.9-48.8,59.3-80.1c-11.1-0.6-30.6-3.3-38.4-15.1
					c-11.1-16.9-45.8-126-45.8-126S745.6,841.8,731,875.4z"/>
				<path class="st19" d="M521.7,1240.8c0,0,32.2,10,79.7,16.5c58.8,8.1,141,11.1,214.4-16.5c0,0,6-109.2-11.3-166.2
					S779,990.4,779,990.4s-69.7,17.5-140.5,3.9c-10.1-1.9-20-4.5-29.7-7.7c0,0-43.7,92.7-55.7,132.4S521.7,1240.8,521.7,1240.8z"/>
				<path class="st11" d="M521.7,1240.8c0,0,32.2,10,79.7,16.5c87.1-49.4,44.6-257.2,44.6-257.2c-2.6-2.1-5.1-4-7.5-5.8
					c-10.1-1.9-20-4.5-29.7-7.7c0,0-43.7,92.7-55.7,132.4S521.7,1240.8,521.7,1240.8z"/>
				<path class="st17" d="M450.5,1032.9c0,21.3,21.7,34.3,45,40.7c22.4,6.1,46.2,6,53.7,1C562,1066,582.9,970.1,589,941
					c1.1-5.3,1.7-8.4,1.7-8.4s16.7,39.9,17.2,43.6c0.2,1.7,0.4,4,0.6,6c0.2,2.5,0.3,4.5,0.3,4.5s90.7,45.8,170.1,3.7
					c0,0,32.3-186.6,18.3-218.7c-7-16-43.3-48.9-57.8-63.1c-3.3-3.2-2.9-9.5-1.7-15.3c0.8-3.6-1.5-7.2-5-8c-1-0.2-2.1-0.2-3.1,0.1
					c-9.3,2.4-26.2,2-44.2-3.9c-9.6-3.1-18.7-7.5-27-13.2c-1.9-1.3-4.5-0.8-5.7,1.1c-0.4,0.5-0.6,1.2-0.7,1.8
					c-1.4,11.1-4.7,31.4-10.9,31.4c-8.5,0-66.1,7-70.3,14.2c-1.5,2.5-16.5,36.4-35.4,81.3c0,0,0,0.1,0,0.1
					C499.8,882.6,450.5,1005.7,450.5,1032.9z"/>
				<path class="st18" d="M590.8,932.6c0,0,16.7,39.9,17.2,43.6c0.2,1.7,0.4,4,0.6,6c8.2,6.6,17.7,11.6,27.8,14.6
					c28.3,8.6,40.6-45.6,38.9-72.7s-41.7-104.2-55-105.8S590.8,932.6,590.8,932.6z"/>
				<path class="st20" d="M589,941c1.1-5.3,1.7-8.4,1.7-8.4C589.9,935.3,589.3,938.2,589,941z"/>
				<path class="st18" d="M705,1011c51.6,0,72.9-17.8,74.5-19l3.3-24.3c-0.5,0.4-69.8,42-177,2.1l2.3,18.4
					C649.3,1003.5,678.2,1011,705,1011z"/>
				<path class="st18" d="M450.5,1032.9c0,21.3,21.7,34.3,45,40.7c-32.1-38.2,38.1-269.3,39.9-275.2
					C499.8,882.6,450.5,1005.7,450.5,1032.9z"/>
				<path class="st18" d="M641.1,702.7c0,0,43.2,27.3,75.9,20.9c0,0,7.8-5-3-9.9c-10.2-4.7-33.8-18.5-28.6-32.1
					c-9.6-3.1-18.7-7.5-27-13.2c-1.9-1.3-4.5-0.8-5.7,1.1c-0.4,0.5-0.6,1.2-0.7,1.8C650.6,682.3,647.2,702.7,641.1,702.7z"/>
				<g>
					<path class="st18" d="M674.5,1875h17.2c5.8-0.9,10-2.6,16-3.4c9-1.2,13.1,2.5,14,3.4l0.2,0.2h73.2c1.8-2.6,0.1-8.7-1.7-13.2
						c-1.2-3.1-3.7-5.4-6.8-6.3c-7.8-2.3-23.1-4.3-37.1-17c-7.9-7.1-38.1-26.2-38.1-26.2h-0.2c-0.7,0-3.8,1-17.6,12.6
						c-7.1,6-19.2-8.5-19.2-8.5c-1.7,1.5-3,3.3-4,5.4c-1.7,3.5-2.3,7.4-1.6,11.2c1.1,6.6-2.4,18.9-5.2,27.2c-1.7,5-3.2,8.6-3.2,8.6
						S659.7,1873.1,674.5,1875z"/>
					<path class="st17" d="M670.5,1822c4.1,2.9,12.8,8.6,18.6,9.4c7.8,1,22.3-18.8,22.3-18.8h-0.2c-0.7,0-3.8,1-17.6,12.6
						c-7.1,6-19.2-8.5-19.2-8.5C672.8,1818.1,671.4,1820,670.5,1822z"/>
					<path class="st17" d="M674.5,1875h17.2c5.8-0.9,10-2.6,16-3.4c9-1.2,13.1,2.5,14,3.4l0.2,0.2h73.2c1.8-2.6,0.1-8.7-1.7-13.2
						c-2.2-2-2.8,8.6-4.1,10.3s-59.7,0.6-63.1-1.8s-13.5-6.8-27.7-3.4c-12.3,2.9-30.4-4.6-34.9-6.6c-1.7,5-3.2,8.6-3.2,8.6
						S659.7,1873.1,674.5,1875z"/>
				</g>
				<g>
					<path class="st18" d="M582.5,1875h17.3c5.8-0.9,10-2.6,16-3.4c9-1.2,13.1,2.5,14,3.4l0.2,0.2h73.2c1.8-2.6,0.1-8.7-1.7-13.2
						c-1.2-3.1-3.7-5.4-6.9-6.3c-7.8-2.3-23.1-4.3-37.1-17c-7.9-7.1-38.1-26.2-38.1-26.2h-0.2c-0.7,0-3.8,1-17.6,12.6
						c-7.1,6-19.2-8.5-19.2-8.5c-1.7,1.5-3,3.3-4,5.4c-1.7,3.5-2.3,7.4-1.6,11.2c1.1,6.6-2.4,18.9-5.3,27.2c-1.7,5-3.1,8.6-3.1,8.6
						S567.7,1873.1,582.5,1875z"/>
					<path class="st17" d="M578.4,1822c4.1,2.9,12.8,8.6,18.6,9.4c7.8,1,22.3-18.8,22.3-18.8h-0.2c-0.7,0-3.8,1-17.6,12.6
						c-7.1,6-19.2-8.5-19.2-8.5C580.8,1818.2,579.4,1820,578.4,1822z"/>
					<path class="st17" d="M582.5,1875h17.3c5.8-0.9,10-2.6,16-3.4c9-1.2,13.1,2.5,14,3.4l0.2,0.2h73.2c1.8-2.6,0.1-8.7-1.7-13.2
						c-2.2-2-2.8,8.6-4.1,10.3s-59.8,0.6-63.1-1.8s-13.5-6.8-27.7-3.4c-12.3,2.9-30.4-4.6-34.9-6.6c-1.7,5-3.1,8.6-3.1,8.6
						S567.7,1873.1,582.5,1875z"/>
				</g>
				<path class="st9" d="M461.1,1153.9c0,0-7.5,17.6-15.3,22.5s-15.2,16.7-16.8,26.2c-3,17.4,10.4,28.3,20.2,28.3s19.2-13.4,25-45.4
					c0.3-1.8,9.6-20.1,9.6-20.1L461.1,1153.9z"/>
				<polygon class="st21" points="863.7,961.4 935.2,941.2 935.2,790.8 863.7,798.8 				"/>
				<path class="st9" d="M947.8,815.1c0,0-12-13.4-24-3.2S924.6,844,935,850s13.8,9.1,13.8,9.1L947.8,815.1z"/>
			</g>
			<g>
				<path class="st6" d="M1159.8,1874h-0.5c-3.1,0-5.6-2.5-5.6-5.6c0,0,0-0.1,0-0.1l8.6-370.8l25.2-2.9l-21.5,373.8
					C1165.7,1871.5,1163,1874,1159.8,1874z"/>
				<path class="st6" d="M1012.9,1874h-0.5c-3.1,0-5.6-2.5-5.6-5.7c0,0,0-0.1,0-0.1l8.5-370.8l25.2-2.9l-21.5,373.7
					C1018.8,1871.4,1016.2,1874,1012.9,1874z"/>
				<path class="st6" d="M1418.2,1874h0.5c3.1,0,5.6-2.5,5.6-5.7c0,0,0-0.1,0-0.1l-8.6-370.8l-25.2-2.9l21.5,373.8
					C1412.3,1871.5,1414.9,1874,1418.2,1874z"/>
				<path class="st7" d="M996.2,1471.5v-254.1c0-44.7,36.3-81,81-81h183.1c44.7,0,81,36.3,81,81v263.8L996.2,1471.5z"/>
				<path class="st8" d="M996.2,1471.5H1374l0,0v40.1l0,0h-353.5c-13.4,0-24.3-10.9-24.3-24.3l0,0L996.2,1471.5L996.2,1471.5
					L996.2,1471.5z"/>
				<path class="st8" d="M1148.9,1471.5h267.4c9.9,0,18,8,18,18v4.2c0,9.9-8,18-18,18h-267.4c-9.9,0-18-8-18-18v-4.2
					C1131,1479.6,1139,1471.5,1148.9,1471.5z"/>
			</g>
			<g>
				<path class="st6" d="M866.8,1878.9h-0.7c-4.3-0.1-7.6-3.7-7.5-7.9c0-0.1,0-0.1,0-0.2l11.3-519.2l33.3-4.1l-28.4,523.3
					C874.7,1875.2,871.2,1878.7,866.8,1878.9z"/>
				<path class="st6" d="M1559.6,1878.9h0.7c4.3-0.1,7.6-3.7,7.5-7.9c0,0,0-0.1,0-0.1l-11.3-519.2l-33.3-4.1l28.4,523.3
					C1551.6,1875.2,1555.2,1878.7,1559.6,1878.9z"/>
				<path class="st8" d="M1594.1,1361.2H826.6c-11.7,0-21.2-9.5-21.2-21.2v-20.3c0-11.7,9.5-21.2,21.2-21.2h767.5
					c11.7,0,21.2,9.5,21.2,21.2v20.3C1615.3,1351.7,1605.8,1361.2,1594.1,1361.2z"/>
			</g>
			<g>
				<g>
					<polygon class="st6" points="1298.8,1298.5 1543.3,1298.5 1616.8,1115.6 1372.7,1115.6 					"/>
					<polygon class="st6" points="1546.1,1291.4 1223.3,1291.4 1223.3,1298.5 1543.3,1298.5 					"/>
				</g>
				<path class="st0" d="M1481.6,1207.1c1.8-6.4-1.9-11.6-8.3-11.6s-13.1,5.2-15,11.6s1.9,11.6,8.3,11.6
					S1479.7,1213.5,1481.6,1207.1z"/>
			</g>
			<path class="st22" d="M1549.4,602.5c-5-3.4-10.1-6.5-15-10c-1-0.8-1.6-2-1.6-3.3c0.6-6.9,1.7-13.8,2.3-20.7
				c0.2-2,0.6-3.1,2.6-3.8c6.8-2.7,13.6-5.5,20.3-8.3c1.1-0.5,2.2-1,4.1-1.8c-3.2-10.4-6.4-20.6-9.7-31.2
				c-8.7,1.7-16.7,3.2-24.5,4.9c-2.8,0.6-4.3,0.3-6.1-2.3c-3.7-5.3-8-10-12-15.1c-0.6-1-0.8-2.2-0.5-3.3c2.7-6.9,5.3-13.9,8.4-20.6
				c1.5-3.2,0.7-5-2.2-6.5c-1.1-0.7-2.1-1.5-3-2.4l-15-8.1c-0.6-0.1-1.3-0.2-1.9-0.4c-6.1-2.5-4.9-2.4-8.4,2.6
				c-4.2,6.2-8.3,12.5-12,17.9l-27.1-2.5c-3.4-8.3-7-17-10.6-25.7c-10.8,1.6-21.3,4.8-31.1,9.7c1.7,8.6,3.4,16.9,5.1,25.3
				c0.4,1.8,0.2,2.7-2.3,4.2c-5.4,3.2-10.4,7.2-14.8,11.8c-2.2,2.3-3.3,2.5-5.3,1.6c-6.9-2.9-14-5.7-20.9-8.6
				c-1.7-0.7-2.8-0.7-4.1,1c-5.7,7.6-9.7,16.1-12.9,24.9c-0.6,1.8,0.2,2.5,1.5,3.4c6.1,4,12.2,8.1,18.3,12.1c1.8,1.1,2.3,2.1,2,4.4
				c-1.2,7.9-2,15.9-3,24.5l-24.6,10.2c1.3,11,4.5,21.6,9.4,31.5l26.6-5.5c5.1,5.9,9.8,11.5,14.7,16.8c1.9,2,2.2,3.5,1.1,6
				c-2.9,6.6-5.6,13.3-8.3,20c-0.6,1.5-2,3.4,1.8,4.4c8.2,2.4,15.8,6.4,22.4,11.8c2.7,2.2,4.1,1.7,5.4-0.4c4-6.2,8.3-12.3,12.2-18.6
				c1.5-2.4,3.1-2.5,5.7-2.2c6.2,0.9,12.5,1.5,18.8,1.7c2.7,0.1,3.7,0.8,4.6,3.2c2.9,7.7,6.2,15.4,9.2,22.9c6.7,0,25-5.7,31.6-9.8
				c-1.7-8.2-3.4-16.6-5.3-24.9c-0.5-2.1,0.1-3,1.7-4.2c5.1-4,10-8.4,15-12.5c1-0.7,2.3-1,3.6-0.7c6.2,2.4,12.3,5.1,18.4,7.7
				c3.4,1.5,4.8,2.1,6.1,1.2l14.3-26.6C1554.9,606.3,1553.4,605.3,1549.4,602.5z M1496.2,593.2c-12.8,23.8-42.5,32.7-66.3,19.9l0,0
				c-23.8-12.8-32.7-42.5-19.9-66.3l0,0c12.8-23.8,42.5-32.7,66.3-19.9l0,0C1500.1,539.7,1509,569.4,1496.2,593.2L1496.2,593.2z"/>
			<path class="st23" d="M1331.9,649.6c-10,1-19.9,2.3-29.8,3.1c-2.1,0-4.2-0.9-5.6-2.6c-6.5-9.6-12.5-19.5-19.1-29.1
				c-1.9-2.8-2.4-4.6-0.8-7.6c5.9-10.7,11.6-21.5,17.3-32.2c0.9-1.7,1.8-3.5,3.4-6.6l-45.6-29.8c-9.3,11.5-18,21.8-26.3,32.4
				c-2.9,3.8-5.2,4.9-10.2,3.5c-10.3-2.9-20.9-4.3-31.4-6.7c-1.8-0.6-3.3-1.9-4.1-3.6c-3.9-11.7-7.9-23.5-11-35.4
				c-1.5-5.7-4.3-7.2-9.7-6c-2,0.4-4.3,0.1-6.4,0.2l-27.9,5.6c-0.9,0.6-1.8,1.1-2.8,1.5c-10.5,3.3-8.9,2.1-8,12.3
				c1.2,12.5,2.5,24.9,3.7,35.7l-37.5,25.5l-40.9-21.8c-12.6,13.6-21.9,28.8-29.7,45.4c11.3,9.2,22.3,18.2,33.4,27
				c2.4,1.9,3.1,3.4,1.5,7.9c-3.6,9.7-5.7,19.9-6.4,30.2c-0.4,5.7-1.5,7.1-5.1,8.2c-12,3.6-24,7.5-36,11.2c-3,0.9-4.4,2.2-4.2,5.7
				c0.7,15.8,4.7,30.9,10,45.7c1,2.9,2.9,3,5.6,2.7c12.1-1.4,24.3-2.5,36.4-4c3.5-0.4,5.2,0.3,7.2,3.6c6.8,11.5,14.4,22.6,22.2,34.7
				l-20.9,39.2c13.4,12.7,28.8,23,45.6,30.5l28.4-35.3c12.9,2.2,24.8,4.5,36.8,6c4.5,0.6,6.6,2.2,7.8,6.5c3.2,11.6,6.9,23,10.5,34.5
				c0.8,2.6,1.1,6.4,7,3.8c13.1-5.6,27.1-8.5,41.3-8.6c5.7-0.1,7.1-2.1,6.6-6.2c-1.5-12.3-2.4-24.6-4.1-36.9
				c-0.7-4.7,1.3-6.6,4.9-8.8c9-5.4,17.7-11.4,26-17.8c3.5-2.8,5.6-3,9.3-0.8c12,6.8,24.3,13.2,36.2,19.6c8.6-7.1,26-33.9,30.2-46.2
				c-11-8.8-22-17.7-33.2-26.4c-2.8-2.2-3-4-2.3-7.3c2.3-10.6,3.8-21.4,6-32c0.5-2,1.9-3.8,3.9-4.7c10.5-3.5,21.2-6.6,31.9-9.7
				c6-1.7,8.4-2.4,9.1-4.9l-9.9-49.4C1343,648.5,1340,648.8,1331.9,649.6z M1253.7,694.1c8.8,44.2-19.8,87.2-64,96l0,0
				c-44.2,8.8-87.2-19.8-96-64c0,0,0,0,0,0l0,0c-8.8-44.2,19.8-87.1,64-96c0,0,0,0,0,0l0,0C1201.8,621.2,1244.8,649.9,1253.7,694.1
				C1253.6,694.1,1253.6,694.1,1253.7,694.1z"/>
		</g>
		<path class="st8" d="M2952.5,1880.1H3.4c-1.9,0-3.4-1.5-3.4-3.4v-1.2c0-1.9,1.5-3.4,3.4-3.4h2949.1c1.9,0,3.4,1.5,3.4,3.4v1.2
			C2955.9,1878.5,2954.4,1880.1,2952.5,1880.1z"/>
	</g>
</g>
</svg>
